<svg width="281" height="72" viewBox="0 0 281 72" fill="none" xmlns="http://www.w3.org/2000/svg">
<path d="M267.38 2.98216C272.277 2.98216 276.297 6.2029 276.297 10.2586V61.6711C276.297 65.6672 272.35 68.9476 267.38 68.9476H12.5723C7.67492 68.9476 3.65472 65.7269 3.65472 61.6711V10.2586C3.65472 6.2029 7.60183 2.98216 12.5723 2.98216H267.38ZM267.38 0H12.5723C5.62828 0 0 4.59253 0 10.2586V61.6711C0 67.3372 5.62828 71.9298 12.5723 71.9298H267.453C274.397 71.9298 280.025 67.3372 280.025 61.6711V10.2586C279.952 4.59253 274.324 0 267.38 0Z" fill="#4A6BDE"/>
<path d="M54.552 14.5046C56.1571 12.7213 58.8321 11.2946 60.9722 11.2946C61.3289 13.7913 60.2588 16.288 58.6538 18.0714C57.0488 19.8548 54.552 21.2815 52.0553 21.1032C51.8769 18.7848 53.1253 16.1097 54.552 14.5046ZM70.0674 42.6821C70.0674 42.6821 64.1823 40.542 64.1823 34.1219C64.1823 28.7717 68.6407 26.0966 68.9974 25.9183C66.3223 22.1732 62.3989 21.6382 60.9722 21.6382C57.5838 21.2815 54.3737 23.5999 52.5903 23.5999C50.8069 23.5999 48.1319 21.6382 45.2784 21.6382C41.5333 21.6382 38.1449 23.7782 36.3615 26.9883C32.4381 33.7652 35.2915 43.3954 39.0366 48.7456C40.82 51.4207 43.1384 54.2741 45.9918 54.0957C48.8452 53.9174 49.7369 52.3123 53.1253 52.3123C56.5137 52.3123 57.4054 54.0957 60.4372 53.9174C63.4689 53.9174 65.2523 51.2423 67.0357 48.7456C69.1758 45.7138 70.0674 42.8604 70.0674 42.6821Z" fill="#4A6BDE"/>
<path d="M94.4396 19.2596V19.854H91.8241V27.5816H91.1703V19.854H88.5548V19.2596H94.4396Z" fill="#4A6BDE"/>
<path d="M99.7897 21.6376H100.384V27.5818H99.7897V26.2146C99.2547 27.1063 98.3631 27.7007 97.2336 27.7007C96.4015 27.7007 95.6881 27.4035 95.0343 26.809C94.4399 26.2146 94.1426 25.4419 94.1426 24.6097C94.1426 23.7775 94.4399 23.0047 95.0343 22.4103C95.6287 21.8159 96.342 21.5187 97.2336 21.5187C98.3631 21.5187 99.2547 22.0536 99.7897 23.0047V21.6376ZM97.2931 27.1657C98.0064 27.1657 98.6008 26.9279 99.0764 26.4524C99.5519 25.9769 99.7897 25.3824 99.7897 24.6691C99.7897 23.9558 99.5519 23.3614 99.0764 22.8858C98.6008 22.4103 98.0064 22.1725 97.2931 22.1725C96.5798 22.1725 95.9854 22.4103 95.5098 22.8858C95.0343 23.3614 94.7965 23.9558 94.7965 24.6691C94.7965 25.3824 95.0343 25.9769 95.5098 26.4524C95.9854 26.9279 96.5798 27.1657 97.2931 27.1657ZM97.6497 20.8054V20.7459C97.6497 20.4487 97.6497 20.3298 97.8281 20.2704C97.8281 20.2704 97.947 20.1515 98.0658 20.1515L98.1253 20.092C98.2442 19.9732 98.3631 19.9137 98.3631 19.6759C98.3631 19.4382 98.2442 19.3193 97.947 19.3193C97.7092 19.3193 97.4714 19.4382 97.3525 19.7354C97.2336 19.676 96.9959 19.5571 96.9364 19.5571C97.1148 19.141 97.4714 18.9032 97.947 18.9032C98.4225 18.9032 98.8386 19.141 98.8386 19.6759C98.8386 20.092 98.6008 20.3298 98.4225 20.4487C98.1847 20.5676 98.1847 20.627 98.1847 20.8648V20.8054H97.6497Z" fill="#4A6BDE"/>
<path d="M103 20.271C103 20.8655 102.049 20.8655 102.049 20.271C102.049 19.6766 103 19.6766 103 20.271ZM102.227 27.5825V21.6382H102.822V27.5825H102.227Z" fill="#4A6BDE"/>
<path d="M116.375 23.8371V27.582H115.781V23.8371C115.781 22.7077 115.127 22.1133 114.176 22.1133C113.106 22.1133 112.393 22.8266 112.393 24.3126V27.6414H111.798V23.8965C111.798 22.7671 111.204 22.1727 110.253 22.1727C109.183 22.1727 108.41 22.9454 108.41 24.3721V27.7008H107.815V21.7566H108.41V22.7671C108.826 21.9944 109.48 21.6377 110.312 21.6377C111.144 21.6377 111.858 22.0538 112.155 22.8266C112.571 21.9944 113.344 21.6377 114.116 21.6377C115.484 21.5188 116.375 22.351 116.375 23.8371Z" fill="#4A6BDE"/>
<path d="M118.812 20.271C118.812 20.8655 117.861 20.8655 117.861 20.271C117.801 19.6766 118.812 19.6766 118.812 20.271ZM118.039 27.5825V21.6382H118.634V27.5825H118.039Z" fill="#4A6BDE"/>
<path d="M125.233 22.4106C125.768 23.005 126.065 23.7778 126.065 24.61C126.065 24.6694 126.065 24.8477 126.065 24.9072H120.656C120.715 25.561 121.012 26.096 121.429 26.5121C121.904 26.9282 122.499 27.1065 123.152 27.1065C124.103 27.1065 124.817 26.6904 125.233 26.0366L125.768 26.3338C125.292 27.166 124.341 27.701 123.152 27.701C122.261 27.701 121.488 27.4037 120.894 26.8093C120.299 26.2149 120.002 25.5016 120.002 24.5505C120.002 23.6589 120.299 22.9456 120.834 22.3511C121.429 21.7567 122.142 21.4595 123.034 21.4595C123.985 21.5189 124.698 21.8162 125.233 22.4106ZM121.429 22.7078C120.953 23.1239 120.715 23.6589 120.656 24.3127H125.411C125.352 23.5994 125.114 23.0644 124.638 22.6483C124.222 22.2323 123.687 22.0539 123.093 22.0539C122.439 22.0539 121.904 22.2917 121.429 22.7078ZM123.212 19.7357L122.32 20.8056H121.666L122.855 19.379H123.509L124.698 20.8056H124.044L123.212 19.7357ZM121.785 19.0818C121.785 17.893 122.558 17.6552 123.271 18.3091C123.925 18.844 124.163 18.7251 124.163 18.0118H124.638C124.638 18.6063 124.52 18.9629 124.163 19.0818C123.866 19.2007 123.509 19.1412 123.152 18.7846C122.558 18.2496 122.261 18.309 122.261 19.0818H121.785Z" fill="#4A6BDE"/>
<path d="M132.485 23.8971V27.5825H131.891V23.8971C131.891 22.7677 131.237 22.1138 130.167 22.1138C128.919 22.1138 128.087 22.946 128.087 24.4915V27.642H127.492V21.6977H128.087V22.8271C128.503 21.9949 129.216 21.5788 130.227 21.5788C131.594 21.5194 132.485 22.4705 132.485 23.8971Z" fill="#4A6BDE"/>
<path d="M142.651 22.4106C143.245 23.005 143.542 23.7183 143.542 24.61C143.542 25.5016 143.245 26.2149 142.651 26.8093C142.056 27.4038 141.343 27.701 140.451 27.701C139.322 27.701 138.371 27.1065 137.895 26.2149V29.9598H137.301V21.6378H137.895V23.005C138.371 22.0539 139.322 21.519 140.451 21.519C141.343 21.519 142.056 21.8162 142.651 22.4106ZM140.451 27.166C141.165 27.166 141.759 26.9282 142.235 26.4527C142.71 25.9771 142.948 25.3827 142.948 24.6694C142.948 23.9561 142.71 23.3617 142.235 22.8861C141.759 22.4106 141.165 22.1728 140.451 22.1728C139.738 22.1728 139.144 22.4106 138.668 22.8861C138.193 23.3617 137.955 23.9561 137.955 24.6694C137.955 25.3827 138.193 25.9771 138.668 26.4527C139.144 26.9282 139.738 27.166 140.451 27.166Z" fill="#4A6BDE"/>
<path d="M150.022 23.8968V27.5822H149.428V23.8968C149.428 22.7674 148.774 22.1135 147.704 22.1135C146.456 22.1135 145.624 22.9457 145.624 24.4912V27.6417H145.029V19.3197H145.624V22.8268C146.04 21.9946 146.753 21.5785 147.764 21.5785C149.131 21.5191 150.022 22.4702 150.022 23.8968Z" fill="#4A6BDE"/>
<path d="M152.103 19.3197H152.816L152.044 20.8058H151.449L152.103 19.3197ZM152.281 27.5822V21.638H151.687V27.5822H152.281Z" fill="#4A6BDE"/>
<path d="M160.365 22.2326H158.582V26.0964C158.582 27.1069 159.117 27.1663 160.365 27.0474V27.5824C158.76 27.8202 157.987 27.4041 157.987 26.0964V22.2326H156.68V21.6382H157.987V20.1521L158.582 19.9738V21.6382H160.365V22.2326Z" fill="#4A6BDE"/>
<path d="M167.024 21.6378H167.618V27.5821H167.024V26.2149C166.489 27.1065 165.597 27.701 164.468 27.701C163.636 27.701 162.922 27.4038 162.269 26.8093C161.674 26.2149 161.377 25.4422 161.377 24.61C161.377 23.7778 161.674 23.005 162.269 22.4106C162.863 21.8162 163.576 21.519 164.468 21.519C165.597 21.519 166.489 22.0539 167.024 23.005V21.6378ZM164.468 27.166C165.181 27.166 165.776 26.9282 166.251 26.4527C166.727 25.9771 166.965 25.3827 166.965 24.6694C166.965 23.9561 166.727 23.3617 166.251 22.8861C165.776 22.4106 165.181 22.1728 164.468 22.1728C163.755 22.1728 163.16 22.4106 162.685 22.8861C162.209 23.3617 161.971 23.9561 161.971 24.6694C161.971 25.3827 162.209 25.9771 162.685 26.4527C163.16 26.9282 163.814 27.166 164.468 27.166ZM164.944 29.0681C164.944 29.6626 163.992 29.6626 163.992 29.0681C163.992 28.4737 165.003 28.4737 164.944 29.0681Z" fill="#4A6BDE"/>
<path d="M170.234 20.2711C170.234 20.8655 169.283 20.8655 169.283 20.2711C169.223 19.6767 170.234 19.6767 170.234 20.2711ZM169.461 27.5825V21.6383H170.056V27.5825H169.461Z" fill="#4A6BDE"/>
<path d="M100.623 53.7391L99.4338 50.1724H91.4681L90.2791 53.7391H85.999L93.0137 33.7653H97.8882L104.903 53.7391H100.623ZM92.7164 46.4867H98.1855L95.4509 38.3426L92.7164 46.4867Z" fill="#4A6BDE"/>
<path d="M119.882 41.2546C121.25 42.6813 121.963 44.4646 121.963 46.6047C121.963 48.7448 121.25 50.5281 119.882 51.9549C118.515 53.3816 116.91 54.0949 114.948 54.0949C112.927 54.0949 111.382 53.3816 110.312 52.0143V59.4451H106.626V39.4712H110.312V41.1357C111.382 39.709 112.927 39.0551 114.948 39.0551C116.91 39.0551 118.515 39.8279 119.882 41.2546ZM114.295 50.647C115.424 50.647 116.375 50.2904 117.148 49.5176C117.921 48.7448 118.277 47.7936 118.277 46.6047C118.277 45.4158 117.921 44.4646 117.148 43.7513C116.435 42.9785 115.483 42.6218 114.295 42.6218C113.165 42.6218 112.214 42.9785 111.441 43.7513C110.728 44.4646 110.312 45.4752 110.312 46.6047C110.312 47.7342 110.668 48.7448 111.441 49.5176C112.214 50.2309 113.165 50.647 114.295 50.647Z" fill="#4A6BDE"/>
<path d="M137.718 41.2546C139.085 42.6813 139.798 44.4646 139.798 46.6047C139.798 48.7448 139.085 50.5281 137.718 51.9549C136.35 53.3816 134.745 54.0949 132.784 54.0949C130.762 54.0949 129.217 53.3816 128.147 52.0143V59.4451H124.461V39.4712H128.147V41.1357C129.217 39.709 130.762 39.0551 132.784 39.0551C134.745 39.0551 136.41 39.8279 137.718 41.2546ZM132.13 50.647C133.259 50.647 134.21 50.2904 134.983 49.5176C135.756 48.7448 136.112 47.7936 136.112 46.6047C136.112 45.4158 135.756 44.4646 134.983 43.7513C134.27 42.9785 133.319 42.6218 132.13 42.6218C131 42.6218 130.049 42.9785 129.276 43.7513C128.563 44.4646 128.147 45.4752 128.147 46.6047C128.147 47.7342 128.503 48.7448 129.276 49.5176C130.049 50.2309 131 50.647 132.13 50.647Z" fill="#4A6BDE"/>
<path d="M148.061 45.1182C150.142 45.5343 152.876 46.5448 152.816 49.5764C152.816 51.003 152.281 52.1918 151.152 52.9646C150.082 53.7373 148.715 54.1534 147.051 54.1534C144.138 54.1534 142.117 53.024 141.047 50.7652L144.257 48.9819C144.673 50.2302 145.624 50.8247 147.051 50.8247C148.358 50.8247 149.012 50.4086 149.012 49.5764C149.012 48.8036 147.883 48.3875 146.397 48.0309C144.257 47.4959 141.641 46.6042 141.641 43.6321C141.641 42.2055 142.176 41.1355 143.187 40.3033C144.257 39.4712 145.505 39.0551 147.051 39.0551C149.369 39.0551 151.33 40.125 152.46 42.0866L149.309 43.8104C148.834 42.8594 148.061 42.3838 147.051 42.3838C146.099 42.3838 145.386 42.8594 145.386 43.5727C145.446 44.286 146.634 44.7021 148.061 45.1182Z" fill="#4A6BDE"/>
<path d="M162.922 42.979H159.712V48.9236C159.712 50.4692 160.841 50.4692 162.922 50.3503V53.6793C157.869 54.2737 156.026 52.7876 156.026 48.8641V42.9195H153.529V39.3528H156.026V36.4993L159.712 35.3699V39.3528H162.922V42.979Z" fill="#4A6BDE"/>
<path d="M172.552 54.1543C170.412 54.1543 168.629 53.441 167.202 52.0144C165.776 50.5877 165.062 48.745 165.062 46.6645C165.062 44.5841 165.776 42.8008 167.202 41.3147C168.629 39.8881 170.472 39.1154 172.552 39.1154C174.633 39.1154 176.475 39.8287 177.902 41.3147C179.329 42.7413 180.101 44.5246 180.101 46.6645C180.101 48.8045 179.388 50.5877 177.902 52.0144C176.475 53.441 174.692 54.1543 172.552 54.1543ZM172.552 50.5283C173.682 50.5283 174.573 50.1717 175.346 49.3989C176.119 48.6261 176.475 47.7345 176.475 46.5457C176.475 45.4163 176.119 44.4652 175.346 43.6924C174.573 42.9197 173.682 42.563 172.552 42.563C171.423 42.563 170.531 42.9197 169.758 43.6924C169.045 44.4057 168.688 45.3568 168.688 46.5457C168.688 47.6751 169.045 48.6261 169.758 49.3989C170.531 50.1717 171.423 50.5283 172.552 50.5283Z" fill="#4A6BDE"/>
<path d="M186.403 41.9087C187.117 40.066 188.781 39.1743 190.743 39.1743V43.2758C189.613 43.157 188.603 43.3353 187.711 43.9892C186.819 44.5836 186.403 45.5347 186.403 46.9018V53.7377H182.718V39.4715H186.403V41.9087Z" fill="#4A6BDE"/>
<path d="M195.974 48.0903C196.45 49.8736 197.817 50.7652 200.016 50.7652C201.443 50.7652 202.513 50.2897 203.226 49.3386L206.198 51.0624C204.772 53.0835 202.691 54.094 199.957 54.094C197.579 54.094 195.677 53.3807 194.25 51.9541C192.824 50.5274 192.11 48.7442 192.11 46.5448C192.11 44.4049 192.824 42.6216 194.25 41.195C195.677 39.7684 197.46 39.0551 199.66 39.0551C201.74 39.0551 203.464 39.7684 204.831 41.195C206.198 42.6216 206.912 44.4049 206.912 46.5448C206.912 47.0203 206.852 47.4959 206.793 48.0309H195.974V48.0903ZM203.226 45.2371C202.81 43.2755 201.383 42.3838 199.66 42.3838C197.698 42.3838 196.331 43.4538 195.915 45.2371H203.226Z" fill="#4A6BDE"/>
</svg>
