<svg width="232" height="64" viewBox="0 0 232 64" fill="none" xmlns="http://www.w3.org/2000/svg">
<path d="M220.605 2.63414C224.645 2.63414 227.962 5.47901 227.962 9.06144V54.474C227.962 58.0038 224.706 60.9013 220.605 60.9013H10.3729C6.33229 60.9013 3.01538 58.0565 3.01538 54.474V9.06144C3.01538 5.47901 6.27198 2.63414 10.3729 2.63414H220.605ZM220.605 0H10.3729C4.64368 0 0 4.05658 0 9.06144V54.474C0 59.4789 4.64368 63.5355 10.3729 63.5355H220.665C226.394 63.5355 231.038 59.4789 231.038 54.474V9.06144C230.978 4.05658 226.334 0 220.605 0Z" fill="white"/>
<path d="M48.186 12.812C49.6037 11.2368 51.9666 9.97656 53.8569 9.97656C54.172 12.1819 53.2268 14.3873 51.8091 15.9625C50.3914 17.5378 48.186 18.798 45.9806 18.6405C45.8231 16.5927 46.9258 14.2298 48.186 12.812ZM61.8907 37.7011C61.8907 37.7011 56.6924 35.8108 56.6924 30.1399C56.6924 25.4141 60.6305 23.0512 60.9456 22.8937C58.5827 19.5856 55.1171 19.1131 53.8569 19.1131C50.8639 18.798 48.0285 20.8459 46.4532 20.8459C44.8779 20.8459 42.5151 19.1131 39.9946 19.1131C36.6866 19.1131 33.6936 21.0034 32.1183 23.8388C28.6528 29.8248 31.1732 38.3312 34.4812 43.057C36.0565 45.4199 38.1043 47.9403 40.6247 47.7828C43.1452 47.6253 43.9328 46.2075 46.9258 46.2075C49.9188 46.2075 50.7064 47.7828 53.3843 47.6253C56.0623 47.6253 57.6375 45.2624 59.2128 43.057C61.1031 40.3791 61.8907 37.8587 61.8907 37.7011Z" fill="white"/>
<path d="M83.4192 17.0119V17.537H81.1088V24.3631H80.5312V17.537H78.2209V17.0119H83.4192Z" fill="white"/>
<path d="M88.1449 19.1124H88.67V24.3633H88.1449V23.1556C87.6723 23.9432 86.8847 24.4683 85.887 24.4683C85.1519 24.4683 84.5218 24.2058 83.9442 23.6807C83.4191 23.1556 83.1566 22.473 83.1566 21.7379C83.1566 21.0027 83.4191 20.3201 83.9442 19.795C84.4693 19.2699 85.0994 19.0074 85.887 19.0074C86.8847 19.0074 87.6723 19.48 88.1449 20.3201V19.1124ZM85.9395 23.9957C86.5696 23.9957 87.0947 23.7857 87.5148 23.3656C87.9349 22.9456 88.1449 22.4205 88.1449 21.7904C88.1449 21.1603 87.9349 20.6352 87.5148 20.2151C87.0947 19.795 86.5696 19.585 85.9395 19.585C85.3094 19.585 84.7844 19.795 84.3643 20.2151C83.9442 20.6352 83.7342 21.1603 83.7342 21.7904C83.7342 22.4205 83.9442 22.9456 84.3643 23.3656C84.7844 23.7857 85.3094 23.9957 85.9395 23.9957ZM86.2546 18.3773V18.3248C86.2546 18.0622 86.2546 17.9572 86.4121 17.9047C86.4121 17.9047 86.5171 17.7997 86.6222 17.7997L86.6747 17.7472C86.7797 17.6422 86.8847 17.5897 86.8847 17.3796C86.8847 17.1696 86.7797 17.0646 86.5171 17.0646C86.3071 17.0646 86.0971 17.1696 85.992 17.4321C85.887 17.3796 85.677 17.2746 85.6245 17.2746C85.782 16.9071 86.0971 16.697 86.5171 16.697C86.9372 16.697 87.3048 16.9071 87.3048 17.3796C87.3048 17.7472 87.0947 17.9572 86.9372 18.0622C86.7272 18.1673 86.7272 18.2198 86.7272 18.4298V18.3773H86.2546Z" fill="white"/>
<path d="M90.9803 17.9055C90.9803 18.4306 90.1401 18.4306 90.1401 17.9055C90.1401 17.3804 90.9803 17.3804 90.9803 17.9055ZM90.2976 24.364V19.1132H90.8227V24.364H90.2976Z" fill="white"/>
<path d="M102.795 21.0551V24.3631H102.27V21.0551C102.27 20.0574 101.692 19.5323 100.852 19.5323C99.9068 19.5323 99.2767 20.1624 99.2767 21.4752V24.4156H98.7516V21.1076C98.7516 20.1099 98.2265 19.5848 97.3864 19.5848C96.4413 19.5848 95.7586 20.2675 95.7586 21.5277V24.4681H95.2336V19.2173H95.7586V20.1099C96.1262 19.4273 96.7038 19.1123 97.4389 19.1123C98.174 19.1123 98.8041 19.4798 99.0667 20.1624C99.4342 19.4273 100.117 19.1123 100.799 19.1123C102.007 19.0072 102.795 19.7424 102.795 21.0551Z" fill="white"/>
<path d="M104.948 17.9055C104.948 18.4306 104.108 18.4306 104.108 17.9055C104.055 17.3804 104.948 17.3804 104.948 17.9055ZM104.265 24.364V19.1132H104.79V24.364H104.265Z" fill="white"/>
<path d="M110.619 19.7954C111.091 20.3205 111.354 21.0031 111.354 21.7382C111.354 21.7907 111.354 21.9483 111.354 22.0008H106.575C106.628 22.5784 106.89 23.0509 107.258 23.4185C107.678 23.7861 108.203 23.9436 108.781 23.9436C109.621 23.9436 110.251 23.576 110.619 22.9984L111.091 23.261C110.671 23.9961 109.831 24.4687 108.781 24.4687C107.993 24.4687 107.311 24.2061 106.785 23.6811C106.26 23.156 105.998 22.5259 105.998 21.6857C105.998 20.8981 106.26 20.268 106.733 19.7429C107.258 19.2178 107.888 18.9553 108.676 18.9553C109.516 19.0078 110.146 19.2703 110.619 19.7954ZM107.258 20.058C106.838 20.4255 106.628 20.8981 106.575 21.4757H110.776C110.724 20.8456 110.514 20.373 110.093 20.0054C109.726 19.6379 109.253 19.4804 108.728 19.4804C108.151 19.4804 107.678 19.6904 107.258 20.058ZM108.833 17.4325L108.046 18.3777H107.468L108.518 17.1175H109.096L110.146 18.3777H109.568L108.833 17.4325ZM107.573 16.8549C107.573 15.8048 108.256 15.5947 108.886 16.1723C109.463 16.6449 109.673 16.5399 109.673 15.9098H110.093C110.093 16.4349 109.988 16.7499 109.673 16.8549C109.411 16.9599 109.096 16.9074 108.781 16.5924C108.256 16.1198 107.993 16.1723 107.993 16.8549H107.573Z" fill="white"/>
<path d="M117.025 21.1083V24.3639H116.5V21.1083C116.5 20.1107 115.922 19.5331 114.977 19.5331C113.874 19.5331 113.139 20.2682 113.139 21.6334V24.4164H112.614V19.1655H113.139V20.1632C113.507 19.4281 114.137 19.0605 115.029 19.0605C116.237 19.008 117.025 19.8481 117.025 21.1083Z" fill="white"/>
<path d="M126.004 19.7952C126.529 20.3203 126.792 20.9504 126.792 21.738C126.792 22.5256 126.529 23.1558 126.004 23.6808C125.479 24.2059 124.849 24.4685 124.061 24.4685C123.063 24.4685 122.223 23.9434 121.803 23.1558V26.4638H121.278V19.1126H121.803V20.3203C122.223 19.4801 123.063 19.0076 124.061 19.0076C124.849 19.0076 125.479 19.2701 126.004 19.7952ZM124.061 23.9959C124.691 23.9959 125.216 23.7859 125.636 23.3658C126.056 22.9457 126.266 22.4206 126.266 21.7905C126.266 21.1604 126.056 20.6353 125.636 20.2153C125.216 19.7952 124.691 19.5852 124.061 19.5852C123.431 19.5852 122.906 19.7952 122.486 20.2153C122.066 20.6353 121.856 21.1604 121.856 21.7905C121.856 22.4206 122.066 22.9457 122.486 23.3658C122.906 23.7859 123.431 23.9959 124.061 23.9959Z" fill="white"/>
<path d="M132.515 21.1083V24.3638H131.99V21.1083C131.99 20.1106 131.413 19.533 130.467 19.533C129.365 19.533 128.63 20.2682 128.63 21.6334V24.4163H128.104V17.0651H128.63V20.1631C128.997 19.428 129.627 19.0605 130.52 19.0605C131.728 19.0079 132.515 19.8481 132.515 21.1083Z" fill="white"/>
<path d="M134.353 17.0651H134.983L134.3 18.3778H133.775L134.353 17.0651ZM134.51 24.3638V19.113H133.985V24.3638H134.51Z" fill="white"/>
<path d="M141.651 19.6381H140.076V23.0512C140.076 23.9438 140.549 23.9963 141.651 23.8913V24.3639C140.234 24.5739 139.551 24.2063 139.551 23.0512V19.6381H138.396V19.113H139.551V17.8003L140.076 17.6428V19.113H141.651V19.6381Z" fill="white"/>
<path d="M147.533 19.1126H148.058V24.3635H147.533V23.1558C147.06 23.9434 146.272 24.4685 145.275 24.4685C144.54 24.4685 143.909 24.2059 143.332 23.6808C142.807 23.1558 142.544 22.4731 142.544 21.738C142.544 21.0029 142.807 20.3203 143.332 19.7952C143.857 19.2701 144.487 19.0076 145.275 19.0076C146.272 19.0076 147.06 19.4801 147.533 20.3203V19.1126ZM145.275 23.9959C145.905 23.9959 146.43 23.7859 146.85 23.3658C147.27 22.9457 147.48 22.4206 147.48 21.7905C147.48 21.1604 147.27 20.6353 146.85 20.2153C146.43 19.7952 145.905 19.5852 145.275 19.5852C144.645 19.5852 144.119 19.7952 143.699 20.2153C143.279 20.6353 143.069 21.1604 143.069 21.7905C143.069 22.4206 143.279 22.9457 143.699 23.3658C144.119 23.7859 144.697 23.9959 145.275 23.9959ZM145.695 25.6762C145.695 26.2013 144.855 26.2013 144.855 25.6762C144.855 25.1511 145.747 25.1511 145.695 25.6762Z" fill="white"/>
<path d="M150.368 17.9055C150.368 18.4306 149.528 18.4306 149.528 17.9055C149.475 17.3804 150.368 17.3804 150.368 17.9055ZM149.685 24.364V19.1132H150.21V24.364H149.685Z" fill="white"/>
<path d="M88.8801 47.4677L87.8299 44.3172H80.7937L79.7436 47.4677H75.963L82.159 29.8248H86.4647L92.6607 47.4677H88.8801ZM81.8964 41.0616H86.7272L84.3118 33.8679L81.8964 41.0616Z" fill="white"/>
<path d="M105.893 36.4401C107.1 37.7003 107.731 39.2756 107.731 41.1659C107.731 43.0562 107.1 44.6315 105.893 45.8917C104.685 47.1519 103.267 47.782 101.535 47.782C99.7493 47.782 98.384 47.1519 97.4389 45.9442V52.5078H94.1833V34.8649H97.4389V36.3351C98.384 35.0749 99.7493 34.4973 101.535 34.4973C103.267 34.4973 104.685 35.1799 105.893 36.4401ZM100.957 44.7365C101.955 44.7365 102.795 44.4215 103.477 43.7388C104.16 43.0562 104.475 42.2161 104.475 41.1659C104.475 40.1157 104.16 39.2756 103.477 38.6455C102.847 37.9629 102.007 37.6478 100.957 37.6478C99.9593 37.6478 99.1192 37.9629 98.4365 38.6455C97.8064 39.2756 97.4389 40.1683 97.4389 41.1659C97.4389 42.1636 97.7539 43.0562 98.4365 43.7388C99.1192 44.3689 99.9593 44.7365 100.957 44.7365Z" fill="white"/>
<path d="M121.645 36.4401C122.853 37.7003 123.483 39.2756 123.483 41.1659C123.483 43.0562 122.853 44.6315 121.645 45.8917C120.438 47.1519 119.02 47.782 117.287 47.782C115.502 47.782 114.137 47.1519 113.192 45.9442V52.5078H109.936V34.8649H113.192V36.3351C114.137 35.0749 115.502 34.4973 117.287 34.4973C119.02 34.4973 120.49 35.1799 121.645 36.4401ZM116.71 44.7365C117.707 44.7365 118.547 44.4215 119.23 43.7388C119.913 43.0562 120.228 42.2161 120.228 41.1659C120.228 40.1157 119.913 39.2756 119.23 38.6455C118.6 37.9629 117.76 37.6478 116.71 37.6478C115.712 37.6478 114.872 37.9629 114.189 38.6455C113.559 39.2756 113.192 40.1683 113.192 41.1659C113.192 42.1636 113.507 43.0562 114.189 43.7388C114.872 44.3689 115.712 44.7365 116.71 44.7365Z" fill="white"/>
<path d="M130.782 39.8532C132.62 40.2208 135.035 41.1134 134.983 43.7913C134.983 45.0516 134.51 46.1017 133.512 46.7843C132.567 47.467 131.36 47.8345 129.889 47.8345C127.316 47.8345 125.531 46.8369 124.586 44.8415L127.421 43.2663C127.789 44.3689 128.629 44.894 129.889 44.894C131.045 44.894 131.622 44.5265 131.622 43.7913C131.622 43.1087 130.624 42.7412 129.312 42.4261C127.421 41.9535 125.111 41.1659 125.111 38.5405C125.111 37.2803 125.584 36.3351 126.476 35.6C127.421 34.8649 128.524 34.4973 129.889 34.4973C131.937 34.4973 133.67 35.4425 134.668 37.1753L131.885 38.698C131.465 37.8579 130.782 37.4378 129.889 37.4378C129.049 37.4378 128.419 37.8579 128.419 38.488C128.472 39.1181 129.522 39.4856 130.782 39.8532Z" fill="white"/>
<path d="M143.909 37.9632H141.074V43.214C141.074 44.5793 142.071 44.5793 143.909 44.4742V47.4147C139.446 47.9398 137.818 46.6271 137.818 43.1615V37.9107H135.613V34.7601H137.818V32.2397L141.074 31.2421V34.7601H143.909V37.9632Z" fill="white"/>
<path d="M152.415 47.8352C150.525 47.8352 148.95 47.2051 147.69 45.9449C146.429 44.6846 145.799 43.0569 145.799 41.2191C145.799 39.3813 146.429 37.806 147.69 36.4933C148.95 35.2331 150.578 34.5505 152.415 34.5505C154.253 34.5505 155.881 35.1806 157.141 36.4933C158.401 37.7535 159.084 39.3288 159.084 41.2191C159.084 43.1094 158.454 44.6846 157.141 45.9449C155.881 47.2051 154.306 47.8352 152.415 47.8352ZM152.415 44.6321C153.413 44.6321 154.201 44.3171 154.883 43.6345C155.566 42.9519 155.881 42.1642 155.881 41.1141C155.881 40.1164 155.566 39.2763 154.883 38.5936C154.201 37.911 153.413 37.596 152.415 37.596C151.418 37.596 150.63 37.911 149.948 38.5936C149.317 39.2237 149.002 40.0639 149.002 41.1141C149.002 42.1117 149.317 42.9519 149.948 43.6345C150.63 44.3171 151.418 44.6321 152.415 44.6321Z" fill="white"/>
<path d="M164.65 37.018C165.28 35.3902 166.75 34.6026 168.483 34.6026V38.2257C167.486 38.1207 166.593 38.2782 165.805 38.8558C165.018 39.3809 164.65 40.221 164.65 41.4287V47.4672H161.395V34.8651H164.65V37.018Z" fill="white"/>
<path d="M173.104 42.4786C173.524 44.0539 174.732 44.8415 176.674 44.8415C177.935 44.8415 178.88 44.4215 179.51 43.5813L182.135 45.1041C180.875 46.8894 179.037 47.782 176.622 47.782C174.522 47.782 172.841 47.1519 171.581 45.8917C170.321 44.6315 169.691 43.0562 169.691 41.1134C169.691 39.2231 170.321 37.6478 171.581 36.3876C172.841 35.1274 174.417 34.4973 176.359 34.4973C178.197 34.4973 179.72 35.1274 180.928 36.3876C182.135 37.6478 182.765 39.2231 182.765 41.1134C182.765 41.5335 182.713 41.9535 182.66 42.4261H173.104V42.4786ZM179.51 39.9582C179.142 38.2254 177.882 37.4378 176.359 37.4378C174.627 37.4378 173.419 38.383 173.051 39.9582H179.51Z" fill="white"/>
</svg>
