<svg width="81" height="80" viewBox="0 0 81 80" fill="none" xmlns="http://www.w3.org/2000/svg">
<path d="M12.6362 58.1843L16.565 50.4509C16.9203 49.7456 17.2206 49.5941 17.7509 49.5941C18.5806 49.5941 18.9093 50.1504 18.9093 50.7531V66.575C18.9093 67.1831 18.5806 67.7363 17.7509 67.7363C16.9203 67.7363 16.5907 67.1831 16.5907 66.575V56.8509C16.5907 56.1719 16.6419 55.5667 16.6919 55.1129H16.6654L13.0614 62.1416C12.8881 62.493 12.6362 62.7469 12.0299 62.7469C11.4275 62.7469 11.175 62.4933 10.9987 62.1416L7.39696 55.1129H7.37095C7.42212 55.5667 7.47215 56.1719 7.47215 56.8509V66.5744C7.47215 67.1825 7.14339 67.7357 6.31371 67.7357C5.48091 67.7357 5.15356 67.1825 5.15356 66.5744V50.7525C5.15356 50.1498 5.48091 49.5935 6.31371 49.5935C6.84233 49.5935 7.14339 49.745 7.49561 50.4503L11.4275 58.1838C11.6785 58.6657 11.8792 59.1426 12.0299 59.6221C12.1828 59.1432 12.3852 58.6663 12.6362 58.1843Z" fill="#005490"/>
<path d="M26.166 55.7442L29.1896 50.2494C29.4641 49.7171 30.0722 49.3931 30.7255 49.7691C31.381 50.1499 31.407 50.8043 31.1051 51.3301L26.6186 59.4698V66.5748C26.6186 67.1823 26.2672 67.7358 25.4324 67.7358C24.6045 67.7358 24.2508 67.1823 24.2508 66.5748V59.4698L19.7649 51.3301C19.4655 50.8043 19.4898 50.1496 20.1454 49.7691C20.7973 49.3931 21.405 49.7171 21.6829 50.2494L24.7071 55.7442C25.0076 56.2712 25.2083 56.7512 25.4324 57.3301C25.6648 56.7512 25.8658 56.2715 26.166 55.7442Z" fill="#005490"/>
<path d="M48.6663 61.4109C48.6663 64.7864 46.5744 67.4844 42.8684 67.4844H38.4107C37.5533 67.4844 37.1997 66.9283 37.1997 66.3245V51.0041C37.1997 50.4037 37.5533 49.8479 38.4107 49.8479H43.8801C47.0784 49.8479 48.6663 52.0885 48.6663 54.8902V61.4109ZM46.296 54.8904C46.296 53.3235 45.6144 52.1145 43.8801 52.1145H39.57V65.2144H42.8681C45.163 65.2144 46.2957 63.5777 46.2957 61.4112V54.8904H46.296Z" fill="#005490"/>
<path d="M61.9379 62.6937C61.9379 65.4657 60.3543 67.7359 57.1568 67.7359H55.3651C52.1682 67.7359 50.5798 65.4657 50.5798 62.6937V50.7525C50.5798 50.1498 50.9569 49.5938 51.7643 49.5938C52.6205 49.5938 52.9485 50.1498 52.9485 50.7525V62.6937C52.9485 64.2589 53.6283 65.4657 55.3649 65.4657H57.1565C58.8939 65.4657 59.5755 64.2589 59.5755 62.6937V50.7525C59.5755 50.1498 59.9526 49.5938 60.7596 49.5938C61.6136 49.5938 61.9376 50.1498 61.9376 50.7525V62.6937H61.9379Z" fill="#005490"/>
<path d="M71.2129 65.4657C72.2984 65.4657 72.8765 65.038 72.9777 63.9831C73.0246 63.3758 73.329 62.8209 74.1361 62.8209C74.9901 62.8209 75.3463 63.3758 75.3463 63.9831C75.3463 66.6019 73.7847 67.736 71.2129 67.736H68.6466C65.4489 67.736 63.8577 65.4657 63.8577 62.6937V54.6361C63.8577 51.8606 65.4492 49.5935 68.6466 49.5935H71.2129C73.7847 49.5935 75.3463 50.7293 75.3463 53.349C75.3463 53.9517 74.9901 54.5052 74.1361 54.5052C73.3293 54.5052 73.0246 53.9517 72.9777 53.349C72.8765 52.318 72.2984 51.8604 71.2129 51.8604H68.6466C66.9093 51.8604 66.2277 53.072 66.2277 54.6358V62.6934C66.2277 64.259 66.9093 65.4655 68.6466 65.4655H71.2129V65.4657Z" fill="#005490"/>
<path d="M12.0031 78.8052H10.9086V74.9151H6.5541V78.8052H5.45728V70.2913H6.5541V73.9469H10.9086V70.2913H12.0031V78.8052Z" fill="#005490"/>
<path d="M23.4484 74.683C23.4484 75.9879 23.0679 77.0443 22.3094 77.8511C21.5515 78.6559 20.5494 79.063 19.3045 79.063C18.0918 79.063 17.1041 78.6508 16.3561 77.8279C15.6047 77.0078 15.229 75.9348 15.229 74.6132C15.229 73.3391 15.5708 72.2895 16.2566 71.4734C17.0012 70.6011 18.0253 70.1643 19.3158 70.1643C20.6297 70.1643 21.6666 70.6141 22.4219 71.5187C23.1052 72.343 23.4484 73.3977 23.4484 74.683ZM22.3377 74.5765C22.3377 73.5789 22.0706 72.7571 21.5346 72.1117C20.9995 71.4678 20.2749 71.1441 19.3732 71.1441C18.392 71.1441 17.6301 71.4819 17.0871 72.1584C16.5884 72.7856 16.3366 73.602 16.3366 74.6132C16.3366 75.6628 16.6077 76.5049 17.1518 77.141C17.7 77.7733 18.4267 78.0911 19.3384 78.0911C20.3188 78.0911 21.0814 77.7386 21.6149 77.031C22.1005 76.3922 22.3377 75.5746 22.3377 74.5765Z" fill="#005490"/>
<path d="M32.9873 76.5051C32.9873 77.2667 32.6789 77.8855 32.0643 78.3542C31.4517 78.826 30.6322 79.0632 29.6131 79.0632C28.5372 79.0632 27.7211 78.8054 27.1611 78.2909C26.6017 77.777 26.3133 77.0482 26.2964 76.1071H27.2994C27.357 76.8071 27.5837 77.3176 27.9852 77.6376C28.3857 77.9536 29.0068 78.1145 29.8472 78.1145C30.4437 78.1145 30.931 77.9695 31.3002 77.6715C31.6711 77.3789 31.8571 76.9948 31.8571 76.5289C31.8571 75.9208 31.4379 75.5109 30.604 75.2953L28.2936 74.6835C27.1481 74.3816 26.5782 73.7037 26.5782 72.6646C26.5782 71.9191 26.8414 71.3117 27.3618 70.854C27.8896 70.3955 28.5819 70.1648 29.4367 70.1648C31.5852 70.1648 32.6789 71.0369 32.7176 72.7788H31.6799C31.649 72.1967 31.4283 71.7546 31.0153 71.462C30.6486 71.1969 30.1556 71.0643 29.5329 71.0643C28.9946 71.0643 28.5412 71.2028 28.1697 71.4827C27.7989 71.7665 27.6177 72.1128 27.6177 72.5354C27.6177 73.096 27.9917 73.4719 28.7379 73.6667L31.4014 74.3661C31.8596 74.4919 32.2367 74.7457 32.5316 75.1231C32.8366 75.5302 32.9873 75.9881 32.9873 76.5051Z" fill="#005490"/>
<path d="M42.5972 72.7054C42.5972 73.4711 42.3626 74.0868 41.8939 74.5558C41.4755 74.9852 40.9574 75.1978 40.3437 75.1978H37.5541V78.8054H36.4536V70.2915H40.1664C40.9336 70.2915 41.536 70.5275 41.9776 70.9917C42.39 71.4367 42.5972 72.0108 42.5972 72.7054ZM41.4882 72.7054C41.4882 72.3192 41.3548 71.9837 41.0899 71.6911C40.8259 71.4044 40.5135 71.2608 40.1557 71.2608H37.5538V74.2282H40.2959C40.5678 74.2282 40.8259 74.0984 41.0673 73.8395C41.3444 73.5413 41.4882 73.1619 41.4882 72.7054Z" fill="#005490"/>
<path d="M47.3143 70.2915H46.2175V78.8054H47.3143V70.2915Z" fill="#005490"/>
<path d="M57.0848 71.2608H54.3088V78.8054H53.2103V71.2608H50.4077V70.2915H57.0848V71.2608Z" fill="#005490"/>
<path d="M66.791 78.8052H65.5791L64.7081 76.2613H61.4465L60.5317 78.8052H59.3628L62.4585 70.2913H63.8024L66.791 78.8052ZM64.3762 75.3508L63.1237 71.6043L61.7371 75.3508H64.3762Z" fill="#005490"/>
<path d="M75.043 78.8052H69.7556V70.2913H70.8519V77.8347H75.043V78.8052Z" fill="#005490"/>
<path fill-rule="evenodd" clip-rule="evenodd" d="M17.7346 23.7705C20.4329 23.3507 23.076 23.593 25.4828 24.3715L24.6141 27.8768C22.3289 26.6072 21.167 27.1604 18.3311 27.6048C11.8073 28.6233 7.29959 34.5038 8.27344 40.7409C8.27768 40.7551 8.27995 40.7644 8.28419 40.7785L8.92843 44.9202C8.92843 44.9202 9.20122 46.5513 7.17493 46.8662C5.14949 47.1785 4.69719 45.5811 4.69719 45.5811L4.08433 41.6648C4.08009 41.6475 4.07698 41.6283 4.07528 41.6127C2.75486 33.1392 8.87019 25.1531 17.7346 23.7705Z" fill="#0091D0"/>
<path fill-rule="evenodd" clip-rule="evenodd" d="M19.4256 18.3225C19.4256 20.5057 17.5709 22.2798 15.2832 22.2798C12.9954 22.2798 11.1401 20.5057 11.1401 18.3225C11.1401 16.139 12.9954 14.3621 15.2832 14.3621C17.5709 14.3623 19.4256 16.1393 19.4256 18.3225Z" fill="#0091D0"/>
<path fill-rule="evenodd" clip-rule="evenodd" d="M62.7652 23.7705C60.067 23.3507 57.4236 23.593 55.0171 24.3715L55.8858 27.8768C58.171 26.6072 59.3329 27.1604 62.1685 27.6048C68.6926 28.6233 73.2003 34.5038 72.2264 40.7409C72.2222 40.7551 72.2202 40.7644 72.2157 40.7785L71.5717 44.9202C71.5717 44.9202 71.2984 46.5513 73.3249 46.8662C75.3504 47.1785 75.803 45.5811 75.803 45.5811L76.4158 41.6648C76.4201 41.6475 76.4229 41.6283 76.4249 41.6127C77.745 33.1392 71.6297 25.1531 62.7652 23.7705Z" fill="#0091D0"/>
<path fill-rule="evenodd" clip-rule="evenodd" d="M61.0742 18.3225C61.0742 20.5057 62.9292 22.2798 65.2167 22.2798C67.5042 22.2798 69.3597 20.5057 69.3597 18.3225C69.3597 16.139 67.5045 14.3621 65.2167 14.3621C62.9289 14.3621 61.0742 16.1393 61.0742 18.3225Z" fill="#0091D0"/>
<path fill-rule="evenodd" clip-rule="evenodd" d="M45.6466 6.21573C45.6466 9.05587 43.2342 11.364 40.2581 11.364C37.2805 11.364 34.865 9.05587 34.865 6.21573C34.865 3.37135 37.2805 1.06689 40.2581 1.06689C43.2342 1.06689 45.6466 3.37135 45.6466 6.21573Z" fill="#005490"/>
<path fill-rule="evenodd" clip-rule="evenodd" d="M40.3314 13.76C27.3002 13.76 16.7407 23.3736 16.7407 35.2294V41.8149C16.7407 41.8149 17.0652 44.0763 19.6072 44.0763C22.7362 44.0763 22.9595 41.8149 22.9595 41.8149V34.934C22.9595 26.2038 30.7368 19.1231 40.3314 19.1231C49.9269 19.1231 57.7033 26.2038 57.7033 34.934C57.7033 34.951 57.6993 34.9705 57.6993 34.9857V41.8149C57.6993 41.8149 58.053 44.1671 60.7913 44.1671C63.5339 44.1671 63.9218 41.8149 63.9218 41.8149V35.3046V35.2294C63.9221 23.3736 53.3626 13.76 40.3314 13.76Z" fill="#005490"/>
</svg>
