<svg width="33" height="34" viewBox="0 0 33 34" fill="none" xmlns="http://www.w3.org/2000/svg">
<path d="M6.07337 22.0563C7.5882 22.0519 9.04572 21.4886 10.1555 20.4786L20.9973 26.547C20.2464 29.4213 21.7636 32.3998 24.5598 33.5403C27.3559 34.6809 30.5829 33.6376 32.1365 31.0907C33.6902 28.5438 33.0994 25.2658 30.7493 23.394C28.3992 21.5223 25.0026 21.6245 22.7742 23.6341L11.9324 17.5656C12.0461 17.1399 12.1089 16.7027 12.1195 16.2627L22.7725 10.2995C24.887 12.1825 28.059 12.3571 30.3756 10.718C32.6921 9.07885 33.5197 6.07422 32.3593 3.51613C31.1989 0.95804 28.3677 -0.454016 25.5732 0.131552C22.7788 0.717121 20.7851 3.14019 20.7947 5.93945C20.8008 6.42818 20.8689 6.91427 20.9973 7.38658L11.1531 12.8951C9.57616 10.5055 6.49028 9.54752 3.79608 10.6113C1.10189 11.6751 -0.443158 14.4616 0.112561 17.2545C0.668281 20.0474 3.16854 22.0615 6.07337 22.0563Z" fill="white"/>
</svg>
