<svg width="187" height="84" viewBox="0 0 187 84" fill="none" xmlns="http://www.w3.org/2000/svg">
<path d="M7.59603 74.4987V80.0731H6.66318V74.4987C6.66318 72.8397 5.6637 71.7779 3.99791 71.7779C2.13222 71.7779 0.866214 73.0388 0.866214 75.3614V80.0731H0V67.5308H0.866214V72.8397C1.53253 71.5788 2.59864 70.9152 4.06454 70.9152C6.26339 70.9152 7.59603 72.3088 7.59603 74.4987Z" fill="#606060"/>
<path d="M17.1909 72.3086C17.9905 73.2377 18.4569 74.3658 18.4569 75.6267C18.4569 75.6931 18.4569 75.9585 18.4569 76.0249H10.2612C10.3945 77.0203 10.7943 77.8167 11.4606 78.4803C12.1935 79.0775 13.0598 79.4093 14.0592 79.4093C15.5251 79.4093 16.5912 78.7457 17.1909 77.7503L17.9905 78.2812C17.2576 79.5421 15.7917 80.272 14.0592 80.272C12.66 80.272 11.5272 79.8739 10.661 78.9448C9.79479 78.0821 9.32837 76.954 9.32837 75.5604C9.32837 74.2331 9.72816 73.105 10.5944 72.2423C11.4606 71.3796 12.5933 70.915 13.926 70.915C15.3252 70.915 16.3913 71.3796 17.1909 72.3086ZM11.4606 72.7068C10.7943 73.3041 10.3945 74.1668 10.2612 75.1622H17.5241C17.4574 74.1004 17.0577 73.2377 16.3913 72.6404C15.725 72.0432 14.9254 71.7114 14.0592 71.7114C12.9931 71.7777 12.1269 72.1095 11.4606 72.7068Z" fill="#606060"/>
<path d="M28.3184 71.1141H29.2513V80.0729H28.3184V78.0821C27.5188 79.4757 26.1862 80.272 24.4538 80.272C23.1878 80.272 22.055 79.8075 21.1888 78.9448C20.256 78.0157 19.7896 76.9539 19.7896 75.6267C19.7896 74.2995 20.256 73.2377 21.1888 72.3086C22.1217 71.3796 23.1878 70.915 24.4538 70.915C26.1862 70.915 27.5188 71.7777 28.3184 73.105V71.1141ZM24.5204 79.4093C25.5865 79.4093 26.4527 79.0112 27.1857 78.2812C27.9186 77.5512 28.2518 76.6221 28.2518 75.5604C28.2518 74.4986 27.9186 73.5695 27.1857 72.8395C26.4527 72.1095 25.5199 71.7114 24.5204 71.7114C23.5209 71.7114 22.5215 72.1095 21.7885 72.8395C21.0556 73.5695 20.7224 74.4986 20.7224 75.5604C20.7224 76.6221 21.0556 77.5512 21.7885 78.2812C22.5215 79.0112 23.4543 79.4093 24.5204 79.4093Z" fill="#606060"/>
<path d="M31.7834 80.0732V67H32.6497V80.0732H31.7834Z" fill="#606060"/>
<path d="M39.9125 71.9772H37.2472V77.817C37.2472 79.3434 38.1134 79.4761 39.9125 79.277V80.0733C37.5138 80.4051 36.3144 79.8079 36.3144 77.817V71.9772H34.3154V71.1145H36.3144V68.8582L37.2472 68.5928V71.1145H39.9125V71.9772Z" fill="#606060"/>
<path d="M49.5077 74.4987V80.0731H48.5748V74.4987C48.5748 72.8397 47.5753 71.7779 45.9095 71.7779C44.0438 71.7779 42.7778 73.0388 42.7778 75.3614V80.0731H41.9116V67.5308H42.7778V72.8397C43.4442 71.5788 44.5103 70.9152 45.9762 70.9152C48.1084 70.9152 49.5077 72.3088 49.5077 74.4987Z" fill="#606060"/>
<path d="M52.5726 78.9449C51.7064 78.0821 51.24 76.954 51.24 75.6268C51.24 74.2995 51.7064 73.1714 52.5726 72.3087C53.4388 71.446 54.6382 70.9814 55.9708 70.9814C57.7033 70.9814 59.2358 71.8441 59.9021 73.3041L59.1692 73.7023C58.6361 72.5741 57.4367 71.8441 55.9708 71.8441C54.9047 71.8441 53.9719 72.2423 53.2389 72.9723C52.506 73.7023 52.1728 74.6313 52.1728 75.6931C52.1728 76.7549 52.506 77.684 53.2389 78.414C53.9719 79.1439 54.9047 79.4757 55.9708 79.4757C57.4367 79.4757 58.6361 78.7458 59.2358 77.6176L59.9688 78.0821C59.2358 79.4757 57.7033 80.3384 55.9708 80.3384C54.6382 80.2721 53.5055 79.8076 52.5726 78.9449Z" fill="#606060"/>
<path d="M69.5635 71.1141H70.4964V80.0729H69.5635V78.0821C68.764 79.4757 67.4313 80.272 65.6989 80.272C64.4329 80.272 63.3001 79.8075 62.4339 78.9448C61.5011 78.0157 61.0347 76.9539 61.0347 75.6267C61.0347 74.2995 61.5011 73.2377 62.4339 72.3086C63.3668 71.3796 64.4329 70.915 65.6989 70.915C67.4313 70.915 68.764 71.7777 69.5635 73.105V71.1141ZM65.7655 79.4093C66.8316 79.4093 67.6978 79.0112 68.4308 78.2812C69.1637 77.5512 69.4969 76.6221 69.4969 75.5604C69.4969 74.4986 69.1637 73.5695 68.4308 72.8395C67.6978 72.1095 66.765 71.7114 65.7655 71.7114C64.766 71.7114 63.7666 72.1095 63.0336 72.8395C62.3007 73.5695 61.9675 74.4986 61.9675 75.5604C61.9675 76.6221 62.3007 77.5512 63.0336 78.2812C63.8332 79.0112 64.6994 79.4093 65.7655 79.4093Z" fill="#606060"/>
<path d="M73.9612 72.906C74.4942 71.6451 75.4937 71.0479 76.9596 71.0479V71.9106C75.2272 71.9106 73.9612 72.9723 73.9612 75.1623V80.1394H73.095V71.1806H73.9612V72.906Z" fill="#606060"/>
<path d="M85.8885 72.3086C86.688 73.2377 87.1545 74.3658 87.1545 75.6267C87.1545 75.693 87.1545 75.9585 87.1545 76.0248H79.0254C79.1586 77.0203 79.5584 77.8166 80.2248 78.4802C80.9577 79.0775 81.8239 79.4093 82.8234 79.4093C84.2893 79.4093 85.3554 78.7457 85.9551 77.7502L86.7547 78.2148C86.0217 79.4756 84.5558 80.2056 82.8234 80.2056C81.4241 80.2056 80.2914 79.8075 79.4252 78.8784C78.559 78.0157 78.0925 76.8875 78.0925 75.4939C78.0925 74.1667 78.4923 73.0386 79.3585 72.1759C80.2248 71.3132 81.3575 70.8486 82.6901 70.8486C84.0228 70.915 85.0889 71.3795 85.8885 72.3086ZM80.1581 72.7068C79.4918 73.304 79.092 74.1667 78.9587 75.1621H86.2216C86.155 74.1004 85.7552 73.2377 85.0889 72.6404C84.4226 72.0431 83.623 71.7113 82.7568 71.7113C81.624 71.7777 80.8244 72.1095 80.1581 72.7068Z" fill="#606060"/>
<path d="M100.579 71.9772H97.9132V77.817C97.9132 79.3434 98.7795 79.4761 100.579 79.277V80.0733C98.1798 80.4051 96.9804 79.8079 96.9804 77.817V71.9772H94.9814V71.1145H96.9804V68.8582L97.9132 68.5928V71.1145H100.579V71.9772Z" fill="#606060"/>
<path d="M109.774 72.3091C110.573 73.2381 111.04 74.3663 111.04 75.6272C111.04 75.6935 111.04 75.959 111.04 76.0253H102.911C103.044 77.0208 103.444 77.8171 104.11 78.4807C104.843 79.078 105.709 79.4098 106.709 79.4098C108.175 79.4098 109.241 78.7462 109.84 77.7507L110.64 78.2153C109.907 79.4761 108.441 80.2061 106.709 80.2061C105.309 80.2061 104.177 79.8079 103.31 78.8789C102.444 78.0162 101.978 76.888 101.978 75.4944C101.978 74.1672 102.378 73.0391 103.244 72.1764C104.11 71.3137 105.243 70.8491 106.575 70.8491C107.908 70.9155 108.974 71.38 109.774 72.3091ZM104.043 72.7072C103.377 73.3045 102.977 74.1672 102.844 75.1626H110.107C110.04 74.1008 109.64 73.2381 108.974 72.6409C108.308 72.0436 107.508 71.7118 106.642 71.7118C105.576 71.7782 104.71 72.11 104.043 72.7072Z" fill="#606060"/>
<path d="M113.705 78.9449C112.839 78.0821 112.372 76.954 112.372 75.6268C112.372 74.2995 112.839 73.1714 113.705 72.3087C114.571 71.446 115.771 70.9814 117.103 70.9814C118.836 70.9814 120.368 71.8441 121.034 73.3041L120.302 73.7023C119.768 72.5741 118.569 71.8441 117.103 71.8441C116.037 71.8441 115.104 72.2423 114.371 72.9723C113.638 73.7023 113.305 74.6313 113.305 75.6931C113.305 76.7549 113.638 77.684 114.371 78.414C115.104 79.1439 116.037 79.4757 117.103 79.4757C118.569 79.4757 119.768 78.7458 120.368 77.6176L121.101 78.0821C120.368 79.4757 118.836 80.3384 117.103 80.3384C115.771 80.2721 114.638 79.8076 113.705 78.9449Z" fill="#606060"/>
<path d="M130.496 74.4987V80.0731H129.563V74.4987C129.563 72.8397 128.564 71.7779 126.898 71.7779C125.032 71.7779 123.766 73.0388 123.766 75.3614V80.0731H122.9V67.5308H123.766V72.8397C124.433 71.5788 125.499 70.9152 126.965 70.9152C129.164 70.9152 130.496 72.3088 130.496 74.4987Z" fill="#606060"/>
<path d="M140.491 74.4986V80.0729H139.558V74.4986C139.558 72.8395 138.559 71.7777 136.893 71.7777C135.027 71.7777 133.761 73.0386 133.761 75.3613V80.0729H132.895V71.1141H133.761V72.8395C134.428 71.5787 135.494 70.915 136.96 70.915C139.092 70.915 140.491 72.3086 140.491 74.4986Z" fill="#606060"/>
<path d="M143.556 78.9448C142.623 78.0157 142.157 76.9539 142.157 75.6267C142.157 74.2995 142.623 73.2377 143.556 72.3086C144.489 71.3796 145.622 70.915 146.888 70.915C148.22 70.915 149.286 71.3796 150.219 72.3086C151.152 73.1713 151.618 74.2995 151.618 75.6267C151.618 76.9539 151.152 78.0157 150.219 78.9448C149.286 79.8075 148.22 80.272 146.888 80.272C145.622 80.272 144.489 79.8075 143.556 78.9448ZM146.954 79.4093C148.02 79.4093 148.887 79.0112 149.62 78.2812C150.352 77.5512 150.686 76.6221 150.686 75.5604C150.686 74.4986 150.352 73.5695 149.62 72.8395C148.887 72.1095 147.954 71.7114 146.954 71.7114C145.955 71.7114 144.955 72.1095 144.222 72.8395C143.489 73.5695 143.156 74.4986 143.156 75.5604C143.156 76.6221 143.489 77.5512 144.222 78.2812C144.955 79.0112 145.888 79.4093 146.954 79.4093Z" fill="#606060"/>
<path d="M153.617 80.0732V67H154.484V80.0732H153.617Z" fill="#606060"/>
<path d="M157.882 78.9448C156.949 78.0157 156.482 76.9539 156.482 75.6267C156.482 74.2995 156.949 73.2377 157.882 72.3086C158.815 71.3796 159.947 70.915 161.213 70.915C162.546 70.915 163.612 71.3796 164.545 72.3086C165.478 73.1713 165.944 74.2995 165.944 75.6267C165.944 76.9539 165.478 78.0157 164.545 78.9448C163.612 79.8075 162.546 80.272 161.213 80.272C159.947 80.272 158.815 79.8075 157.882 78.9448ZM161.213 79.4093C162.279 79.4093 163.146 79.0112 163.879 78.2812C164.612 77.5512 164.945 76.6221 164.945 75.5604C164.945 74.4986 164.612 73.5695 163.879 72.8395C163.146 72.1095 162.213 71.7114 161.213 71.7114C160.214 71.7114 159.214 72.1095 158.481 72.8395C157.748 73.5695 157.415 74.4986 157.415 75.5604C157.415 76.6221 157.748 77.5512 158.481 78.2812C159.281 79.0112 160.147 79.4093 161.213 79.4093Z" fill="#606060"/>
<path d="M175.939 71.1146H176.805V79.6089C176.805 80.9361 176.405 81.9315 175.539 82.6615C174.673 83.3915 173.607 83.7897 172.341 83.7897C170.275 83.7897 168.743 82.9933 168.076 81.6661L168.876 81.2015C169.476 82.3961 170.608 82.927 172.341 82.927C174.54 82.927 175.939 81.6661 175.939 79.6089V77.9498C175.206 79.3434 173.807 80.2061 172.074 80.2061C170.808 80.2061 169.676 79.7416 168.743 78.8789C167.877 77.9498 167.41 76.888 167.41 75.5608C167.41 74.2336 167.877 73.1718 168.743 72.2427C169.676 71.3137 170.742 70.8491 172.074 70.8491C173.807 70.8491 175.206 71.7118 175.939 73.1054V71.1146ZM172.074 79.4098C173.14 79.4098 174.007 79.0116 174.74 78.2816C175.473 77.5517 175.872 76.6226 175.872 75.5608C175.872 74.499 175.473 73.57 174.74 72.84C174.007 72.11 173.074 71.7118 172.074 71.7118C171.075 71.7118 170.075 72.11 169.342 72.84C168.61 73.57 168.276 74.499 168.276 75.5608C168.276 76.6226 168.61 77.5517 169.342 78.2816C170.142 79.0116 171.075 79.4098 172.074 79.4098Z" fill="#606060"/>
<path d="M186.001 71.1147H187L183.135 80.8699C182.402 82.6617 181.07 83.7235 179.604 83.6571V82.7944C180.737 82.8608 181.736 82.0644 182.269 80.6708L182.469 80.2063L178.338 71.1147H179.337L183.002 79.0781L186.001 71.1147Z" fill="#606060"/>
<path d="M96.4476 30.493C91.036 30.493 85.9758 31.9718 81.6184 34.507V22.1831C81.6184 13.7324 75.6445 4.01408 67 0V60H81.6184C81.6184 51.7606 88.2951 45.1408 96.4476 45.1408C104.67 45.1408 111.347 51.831 111.347 60H125.966C125.895 43.7324 112.682 30.493 96.4476 30.493Z" fill="#FF5050"/>
</svg>
