<svg width="24" height="24" viewBox="0 0 24 24" fill="none" xmlns="http://www.w3.org/2000/svg">
<path d="M21.0497 23.4332H2.33886C1.04714 23.4332 0 22.3872 0 21.0968V8.30387C0.0394696 7.51985 0.464589 6.80608 1.13551 6.39737L10.4909 0.790007C11.2313 0.346528 12.1561 0.346528 12.8964 0.790007L22.2519 6.39737C22.9549 6.82116 23.3858 7.58057 23.3886 8.40083V21.0968C23.3886 22.3872 22.3414 23.4332 21.0497 23.4332ZM2.33886 9.26062V21.0968H21.0497V9.26062L11.6943 15.4906L2.33886 9.26062ZM11.6943 2.79347L3.87782 7.47795L11.6943 12.6835L19.5096 7.47795L11.6943 2.79347Z" fill="#4A6BDE"/>
</svg>
