<svg width="20" height="20" viewBox="0 0 20 20" fill="none" xmlns="http://www.w3.org/2000/svg">
<path fill-rule="evenodd" clip-rule="evenodd" d="M2 0H18.0002C19.1048 0 20.0002 0.89543 20.0002 2V18.0002C20.0002 19.1048 19.1048 20.0002 18.0002 20.0002H2C0.895429 20.0002 0 19.1048 0 18.0002V2C0 0.895429 0.89543 0 2 0ZM12.8469 13.1386V20H9.92711V13.1386H8.17527C7.88329 13.1386 7.7373 12.9926 7.7373 12.7006V10.5108C7.7373 10.2189 7.88329 10.0729 8.17527 10.0729H9.92711V7.88307C9.92711 5.40129 11.533 4.0874 13.7228 4.0874H15.4746C15.7666 4.0874 15.9126 4.23339 15.9126 4.52536V6.27721C15.9126 6.56918 15.7666 6.71517 15.4746 6.71517H14.3067C13.1388 6.71517 12.8469 7.29912 12.8469 8.17504V10.0729H15.6206C15.9126 10.0729 16.0586 10.2189 16.0586 10.5108L15.6206 12.7006C15.6206 12.9926 15.3286 13.1386 15.1826 13.1386H12.8469Z" fill="white"/>
</svg>
