<svg width="40" height="40" viewBox="0 0 40 40" fill="none" xmlns="http://www.w3.org/2000/svg">
<path fill-rule="evenodd" clip-rule="evenodd" d="M19.3159 40C8.58694 39.6391 0 30.8225 0 20.0057C0 8.96005 8.9543 0 20 0C31.0457 0 40 8.96005 40 20.0057C40 29.2689 33.7025 37.0653 25.1553 39.3404V26.285H29.8268C30.1188 26.285 30.7027 25.993 30.7027 25.4089L31.5787 21.028C31.5787 20.4439 31.2867 20.1519 30.7027 20.1519H25.1553V16.3552C25.1553 14.6028 25.7392 13.4346 28.075 13.4346H30.4108C30.9947 13.4346 31.2867 13.1426 31.2867 12.5585V9.0538C31.2867 8.46969 30.9947 8.17764 30.4108 8.17764H26.9071C22.5276 8.17764 19.3159 10.8061 19.3159 15.7711V20.1519H15.8122C15.2283 20.1519 14.9363 20.4439 14.9363 21.028V25.4089C14.9363 25.993 15.2283 26.285 15.8122 26.285H19.3159V40Z" fill="#3B5998"/>
</svg>
