<svg width="50" height="51" viewBox="0 0 50 51" fill="none" xmlns="http://www.w3.org/2000/svg">
<path fill-rule="evenodd" clip-rule="evenodd" d="M5 0.413269H44.9857C47.7471 0.413269 49.9857 2.65185 49.9857 5.41327V45.3607C49.9857 48.1221 47.7471 50.3607 44.9857 50.3607H31.4351V33.2256H37.2728C37.6377 33.2256 38.3674 32.861 38.3674 32.1318L39.462 26.6632C39.462 25.934 39.0971 25.5694 38.3674 25.5694H31.4351V20.8299C31.4351 18.6424 32.1648 17.1841 35.0837 17.1841H38.0026C38.7323 17.1841 39.0971 16.8195 39.0971 16.0903V11.7154C39.0971 10.9862 38.7323 10.6216 38.0026 10.6216H33.6242C28.1514 10.6216 24.1379 13.9029 24.1379 20.1007V25.5694H19.7596C19.0299 25.5694 18.665 25.934 18.665 26.6632V32.1318C18.665 32.861 19.0299 33.2256 19.7596 33.2256H24.1379V50.3607H4.99999C2.23857 50.3607 0 48.1221 0 45.3607V5.41328C0 2.65185 2.23858 0.413269 5 0.413269Z" fill="#3B5998"/>
</svg>
