<svg width="281" height="72" viewBox="0 0 281 72" fill="none" xmlns="http://www.w3.org/2000/svg">
<path d="M269.976 3.13466C274.434 3.13466 278.001 6.76087 278.001 11.1599V60.7973C278.001 65.2558 274.375 68.8226 269.976 68.8226H11.9799C7.58094 68.8226 3.95473 65.2558 3.95473 60.7973V11.1599C3.95473 6.76087 7.58094 3.13466 11.9799 3.13466H269.976ZM269.976 0.162354H11.9799C5.91645 0.162354 0.982422 5.09638 0.982422 11.1599V60.7973C0.982422 66.8608 5.91645 71.7949 11.9799 71.7949H269.976C276.039 71.7949 280.973 66.8608 280.973 60.7973V11.1599C280.973 5.09638 276.039 0.162354 269.976 0.162354Z" fill="#4A6BDE"/>
<path d="M90.7453 19.6592V20.2537H88.1298V27.9812H87.4759V20.2537H84.8605V19.6592H90.7453Z" fill="#4A6BDE"/>
<path d="M96.0953 22.0373H96.6898V27.9815H96.0953V26.6143C95.5604 27.506 94.6687 28.1004 93.5393 28.1004C92.7071 28.1004 91.9938 27.8032 91.3399 27.2088C90.7455 26.6143 90.4483 25.8416 90.4483 25.0094C90.4483 24.1772 90.7455 23.4044 91.3399 22.81C91.9344 22.2156 92.6477 21.9184 93.5393 21.9184C94.6687 21.9184 95.5604 22.4534 96.0953 23.4044V22.0373ZM93.5988 27.5654C94.3121 27.5654 94.9065 27.3276 95.382 26.8521C95.8576 26.3766 96.0953 25.7821 96.0953 25.0688C96.0953 24.3555 95.8576 23.7611 95.382 23.2856C94.9065 22.81 94.3121 22.5723 93.5988 22.5723C92.8854 22.5723 92.291 22.81 91.8155 23.2856C91.3399 23.7611 91.1022 24.3555 91.1022 25.0688C91.1022 25.7821 91.3399 26.3766 91.8155 26.8521C92.291 27.3276 92.8854 27.5654 93.5988 27.5654ZM93.9554 21.2051V21.1456C93.9554 20.8484 93.9554 20.7295 94.1337 20.6701C94.1337 20.6701 94.2526 20.5512 94.3715 20.5512L94.4309 20.4918C94.5498 20.3729 94.6687 20.3134 94.6687 20.0757C94.6687 19.8379 94.5498 19.719 94.2526 19.719C94.0148 19.719 93.7771 19.8379 93.6582 20.1351C93.5393 20.0757 93.3015 19.9568 93.2421 19.9568C93.4204 19.5407 93.7771 19.3029 94.2526 19.3029C94.7282 19.3029 95.1443 19.5407 95.1443 20.0757C95.1443 20.4918 94.9065 20.7295 94.7282 20.8484C94.4904 20.9673 94.4904 21.0267 94.4904 21.2645V21.2051H93.9554Z" fill="#4A6BDE"/>
<path d="M99.3057 20.6708C99.3057 21.2652 98.3546 21.2652 98.3546 20.6708C98.3546 20.0764 99.3057 20.0764 99.3057 20.6708ZM98.5329 27.9822V22.038H99.1274V27.9822H98.5329Z" fill="#4A6BDE"/>
<path d="M112.681 24.2366V27.9815H112.087V24.2366C112.087 23.1072 111.433 22.5128 110.482 22.5128C109.412 22.5128 108.698 23.2261 108.698 24.7121V28.0409H108.104V24.296C108.104 23.1666 107.509 22.5722 106.558 22.5722C105.488 22.5722 104.716 23.345 104.716 24.7716V28.1003H104.121V22.1561H104.716V23.1666C105.132 22.3939 105.786 22.0372 106.618 22.0372C107.45 22.0372 108.163 22.4533 108.461 23.2261C108.877 22.3939 109.649 22.0372 110.422 22.0372C111.789 21.9183 112.681 22.7505 112.681 24.2366Z" fill="#4A6BDE"/>
<path d="M115.118 20.6708C115.118 21.2652 114.167 21.2652 114.167 20.6708C114.107 20.0764 115.118 20.0764 115.118 20.6708ZM114.345 27.9822V22.038H114.939V27.9822H114.345Z" fill="#4A6BDE"/>
<path d="M121.538 22.8103C122.073 23.4048 122.37 24.1775 122.37 25.0097C122.37 25.0691 122.37 25.2475 122.37 25.3069H116.961C117.02 25.9608 117.317 26.4958 117.733 26.9119C118.209 27.328 118.803 27.5063 119.457 27.5063C120.408 27.5063 121.122 27.0902 121.538 26.4363L122.073 26.7335C121.597 27.5657 120.646 28.1007 119.457 28.1007C118.566 28.1007 117.793 27.8035 117.198 27.2091C116.604 26.6146 116.307 25.9013 116.307 24.9503C116.307 24.0586 116.604 23.3453 117.139 22.7509C117.733 22.1565 118.447 21.8592 119.338 21.8592C120.289 21.9187 121.003 22.2159 121.538 22.8103ZM117.733 23.1075C117.258 23.5236 117.02 24.0586 116.961 24.7125H121.716C121.657 23.9992 121.419 23.4642 120.943 23.0481C120.527 22.632 119.992 22.4537 119.398 22.4537C118.744 22.4537 118.209 22.6914 117.733 23.1075ZM119.517 20.1354L118.625 21.2054H117.971L119.16 19.7788H119.814L121.003 21.2054H120.349L119.517 20.1354ZM118.09 19.4816C118.09 18.2927 118.863 18.0549 119.576 18.7088C120.23 19.2438 120.468 19.1249 120.468 18.4116H120.943C120.943 19.006 120.824 19.3627 120.468 19.4816C120.171 19.6004 119.814 19.541 119.457 19.1843C118.863 18.6494 118.566 18.7088 118.566 19.4816H118.09Z" fill="#4A6BDE"/>
<path d="M128.79 24.2968V27.9823H128.196V24.2968C128.196 23.1674 127.542 22.5136 126.472 22.5136C125.224 22.5136 124.391 23.3458 124.391 24.8913V28.0417H123.797V22.0975H124.391V23.2269C124.808 22.3947 125.521 21.9786 126.531 21.9786C127.899 21.9191 128.79 22.8702 128.79 24.2968Z" fill="#4A6BDE"/>
<path d="M138.956 22.8103C139.551 23.4048 139.848 24.1181 139.848 25.0097C139.848 25.9013 139.551 26.6147 138.956 27.2091C138.362 27.8035 137.649 28.1007 136.757 28.1007C135.628 28.1007 134.677 27.5063 134.201 26.6147V30.3595H133.607V22.0376H134.201V23.4048C134.677 22.4537 135.628 21.9187 136.757 21.9187C137.649 21.9187 138.362 22.2159 138.956 22.8103ZM136.757 27.5657C137.47 27.5657 138.065 27.328 138.54 26.8524C139.016 26.3769 139.254 25.7825 139.254 25.0692C139.254 24.3558 139.016 23.7614 138.54 23.2859C138.065 22.8103 137.47 22.5726 136.757 22.5726C136.044 22.5726 135.449 22.8103 134.974 23.2859C134.498 23.7614 134.26 24.3558 134.26 25.0692C134.26 25.7825 134.498 26.3769 134.974 26.8524C135.449 27.328 136.044 27.5657 136.757 27.5657Z" fill="#4A6BDE"/>
<path d="M146.328 24.2966V27.982H145.734V24.2966C145.734 23.1671 145.08 22.5133 144.01 22.5133C142.762 22.5133 141.93 23.3455 141.93 24.891V28.0414H141.335V19.7195H141.93V23.2266C142.346 22.3944 143.059 21.9783 144.069 21.9783C145.437 21.9189 146.328 22.8699 146.328 24.2966Z" fill="#4A6BDE"/>
<path d="M148.409 19.7195H149.122L148.349 21.2055H147.755L148.409 19.7195ZM148.587 27.982V22.0377H147.993V27.982H148.587Z" fill="#4A6BDE"/>
<path d="M156.672 22.6323H154.889V26.4961C154.889 27.5066 155.424 27.5661 156.672 27.4472V27.9822C155.067 28.2199 154.294 27.8038 154.294 26.4961V22.6323H152.986V22.0379H154.294V20.5519L154.889 20.3735V22.0379H156.672V22.6323Z" fill="#4A6BDE"/>
<path d="M163.329 22.0376H163.923V27.9818H163.329V26.6147C162.794 27.5063 161.902 28.1007 160.773 28.1007C159.941 28.1007 159.227 27.8035 158.573 27.2091C157.979 26.6147 157.682 25.8419 157.682 25.0097C157.682 24.1775 157.979 23.4048 158.573 22.8103C159.168 22.2159 159.881 21.9187 160.773 21.9187C161.902 21.9187 162.794 22.4537 163.329 23.4048V22.0376ZM160.773 27.5657C161.486 27.5657 162.08 27.328 162.556 26.8524C163.032 26.3769 163.269 25.7825 163.269 25.0692C163.269 24.3558 163.032 23.7614 162.556 23.2859C162.08 22.8103 161.486 22.5726 160.773 22.5726C160.059 22.5726 159.465 22.8103 158.989 23.2859C158.514 23.7614 158.276 24.3558 158.276 25.0692C158.276 25.7825 158.514 26.3769 158.989 26.8524C159.465 27.328 160.119 27.5657 160.773 27.5657ZM161.248 29.4679C161.248 30.0623 160.297 30.0623 160.297 29.4679C160.297 28.8735 161.308 28.8735 161.248 29.4679Z" fill="#4A6BDE"/>
<path d="M166.54 20.6708C166.54 21.2652 165.589 21.2652 165.589 20.6708C165.529 20.0764 166.54 20.0764 166.54 20.6708ZM165.767 27.9822V22.038H166.361V27.9822H165.767Z" fill="#4A6BDE"/>
<path d="M103.705 43.3787V44.9243C103.705 47.7778 102.813 50.0961 100.971 51.8795C99.1278 53.6629 96.7499 54.5546 93.8965 54.5546C90.8053 54.5546 88.2491 53.544 86.228 51.5823C84.2068 49.5611 83.1962 47.1238 83.1962 44.211C83.1962 41.2981 84.2068 38.8608 86.1685 36.8397C88.1897 34.8185 90.6864 33.8079 93.6587 33.8079C97.4038 33.8079 100.673 35.6508 102.338 38.4447L98.9494 40.4064C97.9983 38.8014 95.9771 37.6125 93.5993 37.6125C91.697 37.6125 90.092 38.2664 88.903 39.5147C87.6547 40.7631 87.0602 42.3087 87.0602 44.211C87.0602 46.1133 87.7141 47.6589 88.903 48.9072C90.1514 50.1556 91.8159 50.7501 93.8965 50.7501C96.9283 50.7501 99.0089 49.3234 99.7222 46.9455H93.6587V43.4382H103.705V43.3787Z" fill="#4A6BDE"/>
<path d="M113.097 54.5538C110.957 54.5538 109.174 53.8405 107.747 52.4138C106.321 50.9872 105.607 49.1445 105.607 47.064C105.607 44.9835 106.321 43.2003 107.747 41.7142C109.174 40.2876 111.017 39.5148 113.097 39.5148C115.237 39.5148 117.02 40.2281 118.447 41.7142C119.874 43.1408 120.646 44.9241 120.646 47.064C120.646 49.204 119.933 50.9872 118.447 52.4138C116.961 53.8405 115.237 54.5538 113.097 54.5538ZM113.097 50.9278C114.227 50.9278 115.118 50.5711 115.891 49.7984C116.664 49.0256 117.02 48.134 117.02 46.9451C117.02 45.8157 116.664 44.8647 115.891 44.0919C115.118 43.3191 114.227 42.9625 113.097 42.9625C111.968 42.9625 111.076 43.3191 110.303 44.0919C109.59 44.8052 109.233 45.7563 109.233 46.9451C109.233 48.0745 109.59 49.0256 110.303 49.7984C111.076 50.5711 111.968 50.9278 113.097 50.9278Z" fill="#4A6BDE"/>
<path d="M130.04 54.5538C127.9 54.5538 126.116 53.8405 124.69 52.4139C123.263 50.9873 122.55 49.1446 122.55 47.0641C122.55 44.9836 123.263 43.2003 124.69 41.7143C126.116 40.2876 127.959 39.5149 130.04 39.5149C132.179 39.5149 133.963 40.2282 135.389 41.7143C136.816 43.1409 137.589 44.9242 137.589 47.0641C137.589 49.204 136.875 50.9873 135.389 52.4139C133.903 53.8405 132.179 54.5538 130.04 54.5538ZM130.04 50.9278C131.169 50.9278 132.061 50.5712 132.833 49.7984C133.606 49.0257 133.963 48.134 133.963 46.9452C133.963 45.8158 133.606 44.8647 132.833 44.092C132.061 43.3192 131.169 42.9626 130.04 42.9626C128.91 42.9626 128.019 43.3192 127.246 44.092C126.532 44.8053 126.176 45.7564 126.176 46.9452C126.176 48.0746 126.532 49.0257 127.246 49.7984C128.019 50.5712 128.91 50.9278 130.04 50.9278Z" fill="#4A6BDE"/>
<path d="M151.144 39.8711H154.71V53.4248C154.71 55.6243 153.997 57.2888 152.511 58.4777C151.084 59.6666 149.301 60.2016 147.28 60.2016C144.188 60.2016 141.751 59.0127 140.503 56.6943L143.653 54.9109C144.367 56.2782 145.615 56.9321 147.399 56.9321C149.717 56.9321 151.144 55.6837 151.144 53.4248V51.8792C150.074 53.3059 148.528 54.0192 146.566 54.0192C144.545 54.0192 142.881 53.3059 141.513 51.8792C140.146 50.4525 139.492 48.7285 139.492 46.7074C139.492 44.6862 140.206 42.9623 141.573 41.5356C142.94 40.1089 144.605 39.3955 146.626 39.3955C148.587 39.3955 150.133 40.1089 151.203 41.5356V39.8711H151.144ZM150.014 44.0323C149.301 43.319 148.35 42.9028 147.161 42.9028C145.972 42.9028 145.021 43.2595 144.307 44.0323C143.594 44.7457 143.178 45.6968 143.178 46.8263C143.178 49.0852 144.842 50.7497 147.161 50.7497C149.479 50.7497 151.144 49.1447 151.144 46.8263C151.144 45.6373 150.787 44.7457 150.014 44.0323Z" fill="#4A6BDE"/>
<path d="M158.1 54.1384V33.3323H161.785V54.1384H158.1Z" fill="#4A6BDE"/>
<path d="M168.203 48.4905C168.679 50.2737 170.046 51.1654 172.246 51.1654C173.672 51.1654 174.742 50.6898 175.455 49.7387L178.428 51.4626C177.001 53.4836 174.92 54.4941 172.186 54.4941C169.808 54.4941 167.906 53.7808 166.48 52.3542C165.053 50.9276 164.34 49.1443 164.34 46.945C164.34 44.805 165.053 43.0218 166.48 41.5951C167.906 40.1685 169.69 39.4552 171.889 39.4552C173.969 39.4552 175.693 40.1685 177.06 41.5951C178.428 43.0218 179.141 44.805 179.141 46.945C179.141 47.4205 179.081 47.896 179.022 48.431H168.203V48.4905ZM175.455 45.6372C175.039 43.6756 173.613 42.784 171.889 42.784C169.927 42.784 168.56 43.8539 168.144 45.6372H175.455Z" fill="#4A6BDE"/>
<path d="M196.441 34.1639C198.343 34.1639 200.007 34.8178 201.315 36.1257C202.623 37.4335 203.277 38.9791 203.277 40.8813C203.277 42.7836 202.623 44.3887 201.315 45.637C200.007 46.9448 198.402 47.5988 196.441 47.5988H192.933V54.1378H189.01V34.1639H196.441ZM196.441 43.9131C198.105 43.9131 199.353 42.6053 199.353 40.8813C199.353 39.1574 198.105 37.8496 196.441 37.8496H192.933V43.9131H196.441Z" fill="#4A6BDE"/>
<path d="M205.654 54.1384V33.3323H209.34V54.1384H205.654Z" fill="#4A6BDE"/>
<path d="M223.548 39.8715H227.234V54.1377H223.548V52.4733C222.419 53.9 220.873 54.5538 218.912 54.5538C217.01 54.5538 215.345 53.8405 213.978 52.4139C212.611 50.9873 211.957 49.1446 211.957 47.0641C211.957 44.9836 212.67 43.2003 213.978 41.7143C215.345 40.2876 216.95 39.5149 218.912 39.5149C220.933 39.5149 222.478 40.2282 223.548 41.5954V39.8715ZM219.566 51.0467C220.695 51.0467 221.646 50.6901 222.419 49.9173C223.192 49.1446 223.548 48.1935 223.548 47.0046C223.548 45.8158 223.192 44.8647 222.419 44.1514C221.706 43.3786 220.755 43.022 219.566 43.022C218.377 43.022 217.485 43.3786 216.712 44.1514C215.999 44.8647 215.583 45.8752 215.583 47.0046C215.583 48.134 215.94 49.1446 216.712 49.9173C217.485 50.6306 218.436 51.0467 219.566 51.0467Z" fill="#4A6BDE"/>
<path d="M239.896 39.8718H243.82L238.648 54.1389C237.162 58.2407 234.784 60.024 231.098 59.8457V56.3978C233.06 56.3978 234.13 55.625 234.843 53.6633L229.018 39.8718H233.06L236.746 49.4426L239.896 39.8718Z" fill="#4A6BDE"/>
<path d="M35.4609 18.4712V54.3171C35.4609 54.7333 35.6393 55.0899 35.8771 55.3872L53.3542 36.3644L35.8771 17.3417C35.6393 17.6984 35.4609 18.055 35.4609 18.4712Z" fill="#4A6BDE"/>
<path d="M54.6027 37.7311L38.3145 55.3866L59.5961 43.1407L54.6027 37.7311Z" fill="#4A6BDE"/>
<path d="M68.8684 35.0558L61.1408 30.5977L55.791 36.423L61.1408 42.2484L68.8684 37.7902C69.9383 37.1958 69.9383 35.6503 68.8684 35.0558Z" fill="#4A6BDE"/>
<path d="M38.3145 17.4005L54.6027 35.1154L59.5961 29.7059L38.3145 17.4005Z" fill="#4A6BDE"/>
</svg>
