<svg width="248" height="64" viewBox="0 0 248 64" fill="none" xmlns="http://www.w3.org/2000/svg">
<path d="M237.602 2.9726C241.54 2.9726 244.69 6.17563 244.69 10.0613V53.906C244.69 57.8441 241.487 60.9947 237.602 60.9947H9.7141C5.82846 60.9947 2.62543 57.8441 2.62543 53.906V10.0613C2.62543 6.17563 5.82846 2.9726 9.7141 2.9726H237.602ZM237.602 0.347168H9.7141C4.35822 0.347168 0 4.70539 0 10.0613V53.906C0 59.2619 4.35822 63.6201 9.7141 63.6201H237.602C242.958 63.6201 247.316 59.2619 247.316 53.906V10.0613C247.316 4.70539 242.958 0.347168 237.602 0.347168Z" fill="white"/>
<path d="M79.2883 17.5689V18.094H76.9779V24.9201H76.4003V18.094H74.0899V17.5689H79.2883Z" fill="white"/>
<path d="M84.0137 19.6694H84.5388V24.9203H84.0137V23.7126C83.5411 24.5002 82.7535 25.0253 81.7559 25.0253C81.0207 25.0253 80.3906 24.7628 79.813 24.2377C79.2879 23.7126 79.0254 23.03 79.0254 22.2949C79.0254 21.5597 79.2879 20.8771 79.813 20.352C80.3381 19.827 80.9682 19.5644 81.7559 19.5644C82.7535 19.5644 83.5411 20.037 84.0137 20.8771V19.6694ZM81.8084 24.5527C82.4385 24.5527 82.9636 24.3427 83.3836 23.9226C83.8037 23.5026 84.0137 22.9775 84.0137 22.3474C84.0137 21.7173 83.8037 21.1922 83.3836 20.7721C82.9636 20.352 82.4385 20.142 81.8084 20.142C81.1783 20.142 80.6532 20.352 80.2331 20.7721C79.813 21.1922 79.603 21.7173 79.603 22.3474C79.603 22.9775 79.813 23.5026 80.2331 23.9226C80.6532 24.3427 81.1783 24.5527 81.8084 24.5527ZM82.1234 18.9343V18.8818C82.1234 18.6193 82.1234 18.5142 82.2809 18.4617C82.2809 18.4617 82.386 18.3567 82.491 18.3567L82.5435 18.3042C82.6485 18.1992 82.7535 18.1467 82.7535 17.9366C82.7535 17.7266 82.6485 17.6216 82.386 17.6216C82.1759 17.6216 81.9659 17.7266 81.8609 17.9892C81.7559 17.9366 81.5458 17.8316 81.4933 17.8316C81.6508 17.4641 81.9659 17.254 82.386 17.254C82.806 17.254 83.1736 17.4641 83.1736 17.9366C83.1736 18.3042 82.9636 18.5142 82.806 18.6193C82.596 18.7243 82.596 18.7768 82.596 18.9868V18.9343H82.1234Z" fill="white"/>
<path d="M86.8493 18.4625C86.8493 18.9876 86.0092 18.9876 86.0092 18.4625C86.0092 17.9374 86.8493 17.9374 86.8493 18.4625ZM86.1667 24.921V19.6702H86.6918V24.921H86.1667Z" fill="white"/>
<path d="M98.6639 21.6121V24.9201H98.1388V21.6121C98.1388 20.6144 97.5612 20.0893 96.7211 20.0893C95.7759 20.0893 95.1458 20.7194 95.1458 22.0322V24.9726H94.6207V21.6646C94.6207 20.6669 94.0956 20.1418 93.2555 20.1418C92.3103 20.1418 91.6277 20.8245 91.6277 22.0847V25.0252H91.1026V19.7743H91.6277V20.6669C91.9953 19.9843 92.5729 19.6693 93.308 19.6693C94.0431 19.6693 94.6732 20.0368 94.9358 20.7194C95.3033 19.9843 95.9859 19.6693 96.6686 19.6693C97.8762 19.5643 98.6639 20.2994 98.6639 21.6121Z" fill="white"/>
<path d="M100.817 18.4625C100.817 18.9876 99.9764 18.9876 99.9764 18.4625C99.9239 17.9374 100.817 17.9374 100.817 18.4625ZM100.134 24.921V19.6702H100.659V24.921H100.134Z" fill="white"/>
<path d="M106.487 20.3524C106.96 20.8775 107.222 21.5601 107.222 22.2952C107.222 22.3477 107.222 22.5053 107.222 22.5578H102.444C102.497 23.1354 102.759 23.608 103.127 23.9755C103.547 24.3431 104.072 24.5006 104.65 24.5006C105.49 24.5006 106.12 24.133 106.487 23.5554L106.96 23.818C106.54 24.5531 105.7 25.0257 104.65 25.0257C103.862 25.0257 103.179 24.7631 102.654 24.2381C102.129 23.713 101.867 23.0829 101.867 22.2427C101.867 21.4551 102.129 20.825 102.602 20.2999C103.127 19.7748 103.757 19.5123 104.545 19.5123C105.385 19.5648 106.015 19.8273 106.487 20.3524ZM103.127 20.615C102.707 20.9825 102.497 21.4551 102.444 22.0327H106.645C106.592 21.4026 106.382 20.93 105.962 20.5625C105.595 20.1949 105.122 20.0374 104.597 20.0374C104.019 20.0374 103.547 20.2474 103.127 20.615ZM104.702 17.9895L103.914 18.9347H103.337L104.387 17.6745H104.965L106.015 18.9347H105.437L104.702 17.9895ZM103.442 17.4119C103.442 16.3618 104.124 16.1517 104.755 16.7293C105.332 17.2019 105.542 17.0969 105.542 16.4668H105.962C105.962 16.9919 105.857 17.3069 105.542 17.4119C105.28 17.5169 104.965 17.4644 104.65 17.1494C104.124 16.6768 103.862 16.7293 103.862 17.4119H103.442Z" fill="white"/>
<path d="M112.894 21.6653V24.9209H112.369V21.6653C112.369 20.6677 111.791 20.0901 110.846 20.0901C109.743 20.0901 109.008 20.8252 109.008 22.1904V24.9734H108.483V19.7225H109.008V20.7202C109.376 19.9851 110.006 19.6175 110.899 19.6175C112.106 19.565 112.894 20.4051 112.894 21.6653Z" fill="white"/>
<path d="M121.873 20.3523C122.398 20.8774 122.66 21.5075 122.66 22.2951C122.66 23.0827 122.398 23.7128 121.873 24.2379C121.348 24.763 120.717 25.0255 119.93 25.0255C118.932 25.0255 118.092 24.5004 117.672 23.7128V27.0209H117.147V19.6697H117.672V20.8774C118.092 20.0372 118.932 19.5646 119.93 19.5646C120.717 19.5646 121.348 19.8272 121.873 20.3523ZM119.93 24.553C120.56 24.553 121.085 24.3429 121.505 23.9229C121.925 23.5028 122.135 22.9777 122.135 22.3476C122.135 21.7175 121.925 21.1924 121.505 20.7723C121.085 20.3523 120.56 20.1422 119.93 20.1422C119.3 20.1422 118.775 20.3523 118.355 20.7723C117.935 21.1924 117.725 21.7175 117.725 22.3476C117.725 22.9777 117.935 23.5028 118.355 23.9229C118.775 24.3429 119.3 24.553 119.93 24.553Z" fill="white"/>
<path d="M128.384 21.6653V24.9208H127.859V21.6653C127.859 20.6676 127.281 20.09 126.336 20.09C125.233 20.09 124.498 20.8252 124.498 22.1904V24.9733H123.973V17.6221H124.498V20.7201C124.866 19.985 125.496 19.6175 126.389 19.6175C127.596 19.565 128.384 20.4051 128.384 21.6653Z" fill="white"/>
<path d="M130.222 17.6221H130.852L130.169 18.9348H129.644L130.222 17.6221ZM130.379 24.9208V19.67H129.854V24.9208H130.379Z" fill="white"/>
<path d="M137.52 20.1951H135.945V23.6082C135.945 24.5008 136.418 24.5533 137.52 24.4483V24.9209C136.102 25.1309 135.42 24.7634 135.42 23.6082V20.1951H134.265V19.67H135.42V18.3573L135.945 18.1998V19.67H137.52V20.1951Z" fill="white"/>
<path d="M143.401 19.6697H143.926V24.9205H143.401V23.7128C142.929 24.5004 142.141 25.0255 141.143 25.0255C140.408 25.0255 139.778 24.763 139.201 24.2379C138.675 23.7128 138.413 23.0302 138.413 22.2951C138.413 21.56 138.675 20.8774 139.201 20.3523C139.726 19.8272 140.356 19.5646 141.143 19.5646C142.141 19.5646 142.929 20.0372 143.401 20.8774V19.6697ZM141.143 24.553C141.773 24.553 142.299 24.3429 142.719 23.9229C143.139 23.5028 143.349 22.9777 143.349 22.3476C143.349 21.7175 143.139 21.1924 142.719 20.7723C142.299 20.3523 141.773 20.1422 141.143 20.1422C140.513 20.1422 139.988 20.3523 139.568 20.7723C139.148 21.1924 138.938 21.7175 138.938 22.3476C138.938 22.9777 139.148 23.5028 139.568 23.9229C139.988 24.3429 140.566 24.553 141.143 24.553ZM141.563 26.2332C141.563 26.7583 140.723 26.7583 140.723 26.2332C140.723 25.7081 141.616 25.7081 141.563 26.2332Z" fill="white"/>
<path d="M146.236 18.4625C146.236 18.9876 145.396 18.9876 145.396 18.4625C145.344 17.9374 146.236 17.9374 146.236 18.4625ZM145.554 24.921V19.6702H146.079V24.921H145.554Z" fill="white"/>
<path d="M90.7347 38.5202V39.8855C90.7347 42.4059 89.9471 44.4537 88.3193 46.029C86.6915 47.6042 84.5912 48.3919 82.0708 48.3919C79.3403 48.3919 77.0825 47.4992 75.2972 45.7664C73.5119 43.9811 72.6192 41.8283 72.6192 39.2554C72.6192 36.6824 73.5119 34.5296 75.2447 32.7443C77.03 30.959 79.2353 30.0663 81.8608 30.0663C85.1688 30.0663 88.0568 31.6941 89.527 34.162L86.534 35.8948C85.6939 34.4771 83.9086 33.4269 81.8082 33.4269C80.128 33.4269 78.7102 34.0045 77.6601 35.1072C76.5574 36.2099 76.0323 37.5751 76.0323 39.2554C76.0323 40.9356 76.6099 42.3009 77.6601 43.4035C78.7627 44.5062 80.233 45.0313 82.0708 45.0313C84.7487 45.0313 86.5865 43.7711 87.2166 41.6708H81.8608V38.5727H90.7347V38.5202Z" fill="white"/>
<path d="M99.0312 48.3918C97.1409 48.3918 95.5656 47.7617 94.3054 46.5015C93.0452 45.2413 92.4151 43.6135 92.4151 41.7757C92.4151 39.9379 93.0452 38.3627 94.3054 37.0499C95.5656 35.7897 97.1934 35.1071 99.0312 35.1071C100.921 35.1071 102.497 35.7372 103.757 37.0499C105.017 38.3101 105.7 39.8854 105.7 41.7757C105.7 43.666 105.07 45.2413 103.757 46.5015C102.444 47.7617 100.921 48.3918 99.0312 48.3918ZM99.0312 45.1888C100.029 45.1888 100.816 44.8737 101.499 44.1911C102.182 43.5085 102.497 42.7209 102.497 41.6707C102.497 40.673 102.182 39.8329 101.499 39.1503C100.816 38.4677 100.029 38.1526 99.0312 38.1526C98.0335 38.1526 97.2459 38.4677 96.5632 39.1503C95.9331 39.7804 95.6181 40.6205 95.6181 41.6707C95.6181 42.6684 95.9331 43.5085 96.5632 44.1911C97.2459 44.8737 98.0335 45.1888 99.0312 45.1888Z" fill="white"/>
<path d="M113.996 48.3918C112.105 48.3918 110.53 47.7617 109.27 46.5015C108.01 45.2413 107.38 43.6135 107.38 41.7757C107.38 39.9379 108.01 38.3627 109.27 37.0499C110.53 35.7897 112.158 35.1071 113.996 35.1071C115.886 35.1071 117.461 35.7372 118.722 37.0499C119.982 38.3101 120.664 39.8854 120.664 41.7757C120.664 43.666 120.034 45.2413 118.722 46.5015C117.409 47.7617 115.886 48.3918 113.996 48.3918ZM113.996 45.1888C114.993 45.1888 115.781 44.8737 116.464 44.1911C117.146 43.5085 117.461 42.7209 117.461 41.6707C117.461 40.673 117.146 39.8329 116.464 39.1503C115.781 38.4677 114.993 38.1526 113.996 38.1526C112.998 38.1526 112.21 38.4677 111.528 39.1503C110.898 39.7804 110.583 40.6205 110.583 41.6707C110.583 42.6684 110.898 43.5085 111.528 44.1911C112.21 44.8737 112.998 45.1888 113.996 45.1888Z" fill="white"/>
<path d="M132.637 35.4218H135.787V47.3938C135.787 49.3366 135.157 50.8069 133.845 51.857C132.584 52.9072 131.009 53.3798 129.224 53.3798C126.493 53.3798 124.34 52.3296 123.238 50.2818L126.021 48.7065C126.651 49.9142 127.754 50.4918 129.329 50.4918C131.377 50.4918 132.637 49.3891 132.637 47.3938V46.0286C131.692 47.2888 130.326 47.9189 128.594 47.9189C126.808 47.9189 125.338 47.2888 124.13 46.0286C122.923 44.7684 122.345 43.2456 122.345 41.4603C122.345 39.675 122.975 38.1523 124.183 36.8921C125.391 35.6319 126.861 35.0018 128.646 35.0018C130.379 35.0018 131.744 35.6319 132.689 36.8921V35.4218H132.637ZM131.639 39.0974C131.009 38.4673 130.169 38.0998 129.119 38.0998C128.069 38.0998 127.228 38.4148 126.598 39.0974C125.968 39.7276 125.601 40.5677 125.601 41.5654C125.601 43.5607 127.071 45.0309 129.119 45.0309C131.167 45.0309 132.637 43.6132 132.637 41.5654C132.637 40.5152 132.322 39.7276 131.639 39.0974Z" fill="white"/>
<path d="M138.78 48.0241V29.6461H142.036V48.0241H138.78Z" fill="white"/>
<path d="M147.707 43.0358C148.127 44.611 149.334 45.3987 151.277 45.3987C152.537 45.3987 153.483 44.9786 154.113 44.1384L156.738 45.6612C155.478 47.4465 153.64 48.3391 151.225 48.3391C149.124 48.3391 147.444 47.709 146.184 46.4488C144.924 45.1886 144.294 43.6134 144.294 41.6705C144.294 39.7802 144.924 38.205 146.184 36.9448C147.444 35.6846 149.019 35.0544 150.962 35.0544C152.8 35.0544 154.323 35.6846 155.53 36.9448C156.738 38.205 157.368 39.7802 157.368 41.6705C157.368 42.0906 157.316 42.5107 157.263 42.9833H147.707V43.0358ZM154.113 40.5153C153.745 38.7826 152.485 37.9949 150.962 37.9949C149.229 37.9949 148.022 38.9401 147.654 40.5153H154.113Z" fill="white"/>
<path d="M172.648 30.3807C174.329 30.3807 175.799 30.9583 176.954 32.1135C178.109 33.2687 178.687 34.6339 178.687 36.3142C178.687 37.9944 178.109 39.4122 176.954 40.5148C175.799 41.67 174.381 42.2476 172.648 42.2476H169.55V48.0236H166.085V30.3807H172.648ZM172.648 38.9921C174.119 38.9921 175.221 37.8369 175.221 36.3142C175.221 34.7914 174.119 33.6362 172.648 33.6362H169.55V38.9921H172.648Z" fill="white"/>
<path d="M180.787 48.0241V29.6461H184.042V48.0241H180.787Z" fill="white"/>
<path d="M196.592 35.4222H199.848V48.0242H196.592V46.554C195.594 47.8142 194.229 48.3918 192.496 48.3918C190.816 48.3918 189.346 47.7617 188.138 46.5015C186.931 45.2413 186.353 43.6135 186.353 41.7757C186.353 39.9379 186.983 38.3627 188.138 37.0499C189.346 35.7897 190.764 35.1071 192.496 35.1071C194.282 35.1071 195.647 35.7372 196.592 36.9449V35.4222ZM193.074 45.2938C194.072 45.2938 194.912 44.9787 195.594 44.2961C196.277 43.6135 196.592 42.7734 196.592 41.7232C196.592 40.673 196.277 39.8329 195.594 39.2028C194.964 38.5202 194.124 38.2051 193.074 38.2051C192.024 38.2051 191.236 38.5202 190.554 39.2028C189.924 39.8329 189.556 40.7255 189.556 41.7232C189.556 42.7209 189.871 43.6135 190.554 44.2961C191.236 44.9262 192.076 45.2938 193.074 45.2938Z" fill="white"/>
<path d="M211.032 35.4225H214.498L209.929 48.0246C208.617 51.6477 206.516 53.2229 203.261 53.0654V50.0199C204.994 50.0199 205.939 49.3373 206.569 47.6045L201.423 35.4225H204.993L208.249 43.8764L211.032 35.4225Z" fill="white"/>
<path d="M30.455 16.5193V48.182C30.455 48.5495 30.6126 48.8646 30.8226 49.1271L46.2601 32.3244L30.8226 15.5216C30.6126 15.8367 30.455 16.1517 30.455 16.5193Z" fill="white"/>
<path d="M47.3628 33.5315L32.9754 49.1266L51.7735 38.3098L47.3628 33.5315Z" fill="white"/>
<path d="M59.9648 31.1687L53.1387 27.2306L48.4129 32.3764L53.1387 37.5223L59.9648 33.5841C60.9099 33.0591 60.9099 31.6938 59.9648 31.1687Z" fill="white"/>
<path d="M32.9754 15.5736L47.3628 31.2212L51.7735 26.4429L32.9754 15.5736Z" fill="white"/>
</svg>
