<svg width="60" height="60" viewBox="0 0 60 60" fill="none" xmlns="http://www.w3.org/2000/svg">
<path fill-rule="evenodd" clip-rule="evenodd" d="M15.6069 1.17179C19.5154 0.303154 24.2814 0 30 0C35.7186 0 40.4846 0.303154 44.3931 1.17179C48.33 2.04673 51.5485 3.52829 54.0101 5.98989C56.4717 8.45149 57.9533 11.67 58.8282 15.6069C59.6968 19.5154 60 24.2814 60 30C60 35.7186 59.6968 40.4846 58.8282 44.3931C57.9533 48.33 56.4717 51.5485 54.0101 54.0101C51.5485 56.4717 48.33 57.9533 44.3931 58.8282C40.4846 59.6968 35.7186 60 30 60C24.2814 60 19.5154 59.6968 15.6069 58.8282C11.67 57.9533 8.45149 56.4717 5.98989 54.0101C3.52829 51.5485 2.04673 48.33 1.17179 44.3931C0.303153 40.4846 0 35.7186 0 30C0 24.2814 0.303153 19.5154 1.17179 15.6069C2.04673 11.67 3.52829 8.45149 5.98989 5.98989C8.45149 3.52829 11.67 2.04673 15.6069 1.17179ZM31.5481 14.0408C33.416 12.082 36.5262 11.9793 38.523 13.7989L45.9003 20.522C47.9295 22.3713 48.0462 25.5079 46.1477 27.4988L30.952 43.4335C30.0123 44.4189 28.7106 44.9692 27.3595 44.9743L20.4404 45C17.8697 45.0095 15.6482 43.0531 15.4694 40.4207L15.0112 33.6719C14.918 32.3004 15.4105 30.9632 16.3523 29.9756L31.5481 14.0408ZM35.1583 17.5L32.9052 19.8627L40.2144 26.4755L42.4442 24.1373L35.1611 17.5L35.1583 17.5ZM36.7626 30.0952L29.4534 23.4824L20.0036 33.3917L20.4524 39.9999L27.3409 39.9743L36.7626 30.0952Z" fill="#E66149"/>
</svg>
