<svg width="60" height="60" viewBox="0 0 60 60" fill="none" xmlns="http://www.w3.org/2000/svg">
<path fill-rule="evenodd" clip-rule="evenodd" d="M40.2547 3.75648C42.7149 5.94339 44.4129 9.01809 44.874 12.8534C44.9147 13.1921 45.1739 13.4704 45.5093 13.5329C57.0883 15.6932 60 21.7467 60 36.25C60 55.8081 54.705 60 30 60C5.295 60 0 55.8081 0 36.25C0 21.7467 2.91167 15.6932 14.4907 13.5329C14.8261 13.4704 15.0853 13.1921 15.126 12.8534C15.5871 9.01809 17.2851 5.94339 19.7453 3.75648C22.6029 1.21641 26.3423 0 30 0C33.6577 0 37.3971 1.21641 40.2547 3.75648ZM30 12.5C26.7181 12.5 23.7788 12.574 21.1489 12.7481C20.6597 12.7805 20.2655 12.3458 20.3942 11.8727C20.9054 9.9927 21.8743 8.55381 23.0672 7.49352C24.8971 5.86692 27.4077 5 30 5C32.5923 5 35.1029 5.86692 36.9328 7.49352C38.1257 8.55381 39.0946 9.9927 39.6058 11.8727C39.7345 12.3458 39.3403 12.7805 38.8511 12.7481C36.2212 12.574 33.2819 12.5 30 12.5ZM30 27.5C31.3807 27.5 32.5 28.6193 32.5 30V34.25C32.5 34.6642 32.8358 35 33.25 35H37.5C38.8807 35 40 36.1193 40 37.5C40 38.8807 38.8807 40 37.5 40H33.25C32.8358 40 32.5 40.3358 32.5 40.75V45C32.5 46.3807 31.3807 47.5 30 47.5C28.6193 47.5 27.5 46.3807 27.5 45V40.75C27.5 40.3358 27.1642 40 26.75 40H22.5C21.1193 40 20 38.8807 20 37.5C20 36.1193 21.1193 35 22.5 35H26.75C27.1642 35 27.5 34.6642 27.5 34.25V30C27.5 28.6193 28.6193 27.5 30 27.5Z" fill="#E66149"/>
</svg>
