<svg width="43" height="61" viewBox="0 0 43 61" fill="none" xmlns="http://www.w3.org/2000/svg">
<path d="M30.5 60.3556H12.5V54.3556H30.5V60.3556ZM30.5 51.3556H12.5L11.831 45.3556C11.4711 43.371 10.8759 41.4363 10.058 39.5926C8.996 38.0926 7.889 36.8116 6.818 35.5606C2.88234 31.8715 0.603954 26.7489 0.5 21.3556C0.5 9.75761 9.90202 0.355591 21.5 0.355591C33.098 0.355591 42.5 9.75761 42.5 21.3556C42.3779 26.716 40.117 31.8049 36.221 35.4886L36.17 35.5486C35.102 36.7996 33.998 38.0956 32.957 39.5806C32.1398 41.4293 31.5427 43.3676 31.178 45.3556L30.5 51.3556ZM21.5 6.35559C13.2198 6.36551 6.50992 13.0754 6.5 21.3556C6.5 25.9876 8.432 28.2346 11.354 31.6396C12.464 32.9356 13.724 34.3996 14.954 36.1126C16.4467 39.0131 17.4666 42.1334 17.975 45.3556H25.028C25.5496 42.1427 26.5677 39.0305 28.046 36.1306C29.246 34.4176 30.503 32.9446 31.61 31.6486L31.655 31.5946C34.571 28.1746 36.5 25.9156 36.5 21.3556C36.4901 13.0754 29.7802 6.36551 21.5 6.35559Z" fill="#E66149"/>
</svg>
