<svg width="20" height="20" viewBox="0 0 20 20" fill="none" xmlns="http://www.w3.org/2000/svg">
<path fill-rule="evenodd" clip-rule="evenodd" d="M2.00049 0H18.0007C19.1053 0 20.0007 0.89543 20.0007 2V18.0002C20.0007 19.1048 19.1053 20.0002 18.0007 20.0002H2.00049C0.895917 20.0002 0.000488281 19.1048 0.000488281 18.0002V2C0.000488281 0.895429 0.895919 0 2.00049 0ZM7.44581 3.6499H12.5554C14.5992 3.6499 16.351 5.40175 16.351 7.44557V12.5551C16.351 14.5989 14.5992 16.3508 12.5554 16.3508H7.44581C5.40199 16.3508 3.65015 14.5989 3.65015 12.5551V7.44557C3.65015 5.40175 5.40199 3.6499 7.44581 3.6499ZM12.5554 15.0369C13.8692 15.0369 15.0371 13.869 15.0371 12.5551V7.44557C15.0371 6.13168 13.8692 4.96379 12.5554 4.96379H7.44581C6.13192 4.96379 4.96403 6.13168 4.96403 7.44557V12.5551C4.96403 13.869 6.13192 15.0369 7.44581 15.0369H12.5554ZM9.92754 6.71533C8.17569 6.71533 6.71582 8.1752 6.71582 9.92705C6.71582 11.6789 8.17569 13.1388 9.92754 13.1388C11.6794 13.1388 13.1393 11.6789 13.1393 9.92705C13.1393 8.1752 11.8254 6.71533 9.92754 6.71533ZM9.92754 11.9709C8.75964 11.9709 7.88372 11.0949 7.88372 9.92705C7.88372 8.75915 8.75964 7.88323 9.92754 7.88323C11.0954 7.88323 11.9714 8.75915 11.9714 9.92705C11.9714 11.0949 11.0954 11.9709 9.92754 11.9709ZM12.5554 6.71529C12.5554 6.27733 12.8474 5.98535 13.2854 5.98535C13.7233 5.98535 14.0153 6.42331 14.0153 6.71529C14.0153 7.15325 13.7233 7.44522 13.2854 7.44522C12.8474 7.44522 12.5554 7.15325 12.5554 6.71529Z" fill="white"/>
</svg>
