<svg width="50" height="51" viewBox="0 0 50 51" fill="none" xmlns="http://www.w3.org/2000/svg">
<path fill-rule="evenodd" clip-rule="evenodd" d="M5 0.413269H44.9856C47.7471 0.413269 49.9857 2.65185 49.9857 5.41327V45.3464C49.9857 48.1078 47.7471 50.3464 44.9857 50.3464H5.00001C2.23858 50.3464 0 48.1078 0 45.3464V5.41327C0 2.65184 2.23858 0.413269 5 0.413269ZM18.6074 9.52509H31.3775C36.4855 9.52509 40.8638 13.8988 40.8638 19.0015V31.7581C40.8638 36.8608 36.4855 41.2345 31.3775 41.2345H18.6074C13.4994 41.2345 9.12109 36.8608 9.12109 31.7581V19.0015C9.12109 13.8988 13.4994 9.52509 18.6074 9.52509ZM31.3775 37.9542C34.6612 37.9542 37.5801 35.0384 37.5801 31.7581V19.0015C37.5801 15.7212 34.6612 12.8054 31.3775 12.8054H18.6074C15.3237 12.8054 12.4048 15.7212 12.4048 19.0015V31.7581C12.4048 35.0384 15.3237 37.9542 18.6074 37.9542H31.3775ZM24.8101 17.1787C20.4318 17.1787 16.7832 20.8235 16.7832 25.1972C16.7832 29.5709 20.4318 33.2156 24.8101 33.2156C29.1884 33.2156 32.837 29.5709 32.837 25.1972C32.837 20.8235 29.5533 17.1787 24.8101 17.1787ZM24.8101 30.2998C21.8912 30.2998 19.7021 28.113 19.7021 25.1972C19.7021 22.2814 21.8912 20.0945 24.8101 20.0945C27.729 20.0945 29.9181 22.2814 29.9181 25.1972C29.9181 28.113 27.729 30.2998 24.8101 30.2998ZM31.3779 17.1789C31.3779 16.0854 32.1076 15.3564 33.2022 15.3564C34.2968 15.3564 35.0265 16.4499 35.0265 17.1789C35.0265 18.2723 34.2968 19.0013 33.2022 19.0013C32.1076 19.0013 31.3779 18.2723 31.3779 17.1789Z" fill="url(#paint0_radial_614_5162)"/>
<defs>
<radialGradient id="paint0_radial_614_5162" cx="0" cy="0" r="1" gradientUnits="userSpaceOnUse" gradientTransform="translate(1.96984 53.7012) scale(66.5285 66.4597)">
<stop stop-color="#F7E000"/>
<stop offset="0.0449938" stop-color="#F7C800"/>
<stop offset="0.1004" stop-color="#F6B000"/>
<stop offset="0.1346" stop-color="#F6A700"/>
<stop offset="0.3169" stop-color="#E66149"/>
<stop offset="0.3555" stop-color="#E4544D"/>
<stop offset="0.4271" stop-color="#DE3159"/>
<stop offset="0.5045" stop-color="#D70568"/>
<stop offset="0.6606" stop-color="#BC0090"/>
<stop offset="0.7555" stop-color="#A113A5"/>
<stop offset="0.8706" stop-color="#8528BC"/>
<stop offset="1" stop-color="#5456DA"/>
</radialGradient>
</defs>
</svg>
