<svg width="40" height="40" viewBox="0 0 40 40" fill="none" xmlns="http://www.w3.org/2000/svg">
<path fill-rule="evenodd" clip-rule="evenodd" d="M20 40C8.9543 40 0 31.0457 0 20C0 8.95431 8.9543 0 20 0C31.0457 0 40 8.95431 40 20C40 31.0457 31.0457 40 20 40ZM7.29927 14.8905C7.29927 10.8029 10.8029 7.29927 14.8905 7.29927H25.1095C29.1971 7.29927 32.7007 10.8029 32.7007 14.8905V25.1095C32.7007 29.1971 29.1971 32.7007 25.1095 32.7007H14.8905C10.8029 32.7007 7.29927 29.1971 7.29927 25.1095V14.8905ZM25.1095 30.073C27.7372 30.073 30.073 27.7372 30.073 25.1095V14.8905C30.073 12.2628 27.7372 9.92701 25.1095 9.92701H14.8905C12.2628 9.92701 9.92701 12.2628 9.92701 14.8905V25.1095C9.92701 27.7372 12.2628 30.073 14.8905 30.073H25.1095ZM19.8542 13.4304C16.3506 13.4304 13.4309 16.3501 13.4309 19.8537C13.4309 23.3574 16.3506 26.2771 19.8542 26.2771C23.3579 26.2771 26.2776 23.3574 26.2776 19.8537C26.2776 16.3501 23.6498 13.4304 19.8542 13.4304ZM19.8542 23.9413C17.5185 23.9413 15.7666 22.1895 15.7666 19.8537C15.7666 17.518 17.5185 15.7661 19.8542 15.7661C22.19 15.7661 23.9418 17.518 23.9418 19.8537C23.9418 22.1895 22.19 23.9413 19.8542 23.9413ZM25.1101 13.4305C25.1101 12.5545 25.694 11.9706 26.5699 11.9706C27.4458 11.9706 28.0298 12.8465 28.0298 13.4305C28.0298 14.3064 27.4458 14.8903 26.5699 14.8903C25.694 14.8903 25.1101 14.3064 25.1101 13.4305Z" fill="url(#paint0_radial_614_5108)"/>
<defs>
<radialGradient id="paint0_radial_614_5108" cx="0" cy="0" r="1" gradientUnits="userSpaceOnUse" gradientTransform="translate(1.57633 42.6875) scale(53.238 53.239)">
<stop stop-color="#F7E000"/>
<stop offset="0.0449938" stop-color="#F7C800"/>
<stop offset="0.1004" stop-color="#F6B000"/>
<stop offset="0.1346" stop-color="#F6A700"/>
<stop offset="0.3169" stop-color="#E66149"/>
<stop offset="0.3555" stop-color="#E4544D"/>
<stop offset="0.4271" stop-color="#DE3159"/>
<stop offset="0.5045" stop-color="#D70568"/>
<stop offset="0.6606" stop-color="#BC0090"/>
<stop offset="0.7555" stop-color="#A113A5"/>
<stop offset="0.8706" stop-color="#8528BC"/>
<stop offset="1" stop-color="#5456DA"/>
</radialGradient>
</defs>
</svg>
