<svg width="40" height="40" viewBox="0 0 40 40" fill="none" xmlns="http://www.w3.org/2000/svg">
<path fill-rule="evenodd" clip-rule="evenodd" d="M20 40C8.9543 40 0 31.0457 0 20C0 8.95431 8.9543 0 20 0C31.0457 0 40 8.95431 40 20C40 31.0457 31.0457 40 20 40ZM21.5022 18.31C22.2891 16.9985 23.3384 16.2116 25.6991 16.2116C30.2679 16.2116 30.8578 19.9916 31.2805 22.7002C31.3431 23.1018 31.4021 23.4798 31.4698 23.8184V29.8515C31.4698 30.3761 30.9452 30.6384 30.6829 30.6384H27.2729C26.7483 30.6384 26.486 30.1138 26.486 29.8515V23.8184C26.486 23.7625 26.4873 23.6946 26.4888 23.6167C26.5087 22.5998 26.5618 19.8839 24.1253 19.8839C22.0268 19.8839 21.5022 21.9823 21.5022 23.0315V30.1138C21.5022 30.6384 20.9776 30.9007 20.7153 30.9007H17.5676C17.043 30.9007 16.7807 30.3761 16.7807 30.1138V16.9985C16.7807 16.4739 17.3053 16.2116 17.5676 16.2116H20.7153C21.2399 16.2116 21.5022 16.7362 21.5022 16.9985V18.31ZM12.5833 9.39168C11.0095 9.39168 9.69792 10.7032 9.69792 12.277C9.69792 13.8509 11.0095 15.1624 12.5833 15.1624C14.1571 15.1624 15.4686 13.8509 15.4686 12.277C15.4686 10.7032 14.1571 9.39168 12.5833 9.39168ZM11.0099 16.4738H13.8953C14.4199 16.4738 14.6822 16.7361 14.9445 17.2607V30.1137C14.9445 30.6383 14.6822 30.9006 14.1576 30.9006H11.0099C10.4853 30.9006 10.223 30.6383 10.223 30.1137V17.2607C10.223 16.7361 10.4853 16.4738 11.0099 16.4738Z" fill="#4072B2"/>
</svg>
