<svg width="50" height="51" viewBox="0 0 50 51" fill="none" xmlns="http://www.w3.org/2000/svg">
<path fill-rule="evenodd" clip-rule="evenodd" d="M5 0.413269H44.9856C47.7471 0.413269 49.9857 2.65185 49.9857 5.41327V45.3464C49.9857 48.1078 47.7471 50.3464 44.9857 50.3464H5.00001C2.23858 50.3464 0 48.1078 0 45.3464V5.41327C0 2.65184 2.23858 0.413269 5 0.413269ZM26.8709 23.2701C27.8543 21.6329 29.1654 20.6506 32.1155 20.6506C37.8249 20.6506 38.562 25.3693 39.0902 28.7506L39.0902 28.7507L39.0903 28.7509C39.1686 29.252 39.2422 29.7238 39.3269 30.1464V37.6777C39.3269 38.3325 38.6713 38.66 38.3435 38.66H34.0822C33.4267 38.66 33.0989 38.0051 33.0989 37.6777V30.1464C33.0989 30.0767 33.1005 29.9922 33.1024 29.8952L33.1024 29.8946C33.1273 28.6251 33.1936 25.2348 30.1488 25.2348C27.5265 25.2348 26.8709 27.8543 26.8709 29.1641V38.0051C26.8709 38.66 26.2153 38.9874 25.8875 38.9874H21.9541C21.2985 38.9874 20.9707 38.3325 20.9707 38.0051V21.6329C20.9707 20.978 21.6263 20.6506 21.9541 20.6506H25.8875C26.5431 20.6506 26.8709 21.3055 26.8709 21.6329V23.2701ZM15.7248 12.1371C13.7581 12.1371 12.1191 13.7744 12.1191 15.739C12.1191 17.7037 13.7581 19.3409 15.7248 19.3409C17.6916 19.3409 19.3305 17.7037 19.3305 15.739C19.3305 13.7744 17.6916 12.1371 15.7248 12.1371ZM13.7588 20.9779H17.3645C18.02 20.9779 18.3478 21.3054 18.6756 21.9602V38.005C18.6756 38.6599 18.3478 38.9874 17.6922 38.9874H13.7588C13.1032 38.9874 12.7754 38.6599 12.7754 38.005V21.9602C12.7754 21.3054 13.1032 20.9779 13.7588 20.9779Z" fill="#4072B2"/>
</svg>
