<svg width="20" height="20" viewBox="0 0 20 20" fill="none" xmlns="http://www.w3.org/2000/svg">
<path fill-rule="evenodd" clip-rule="evenodd" d="M2.00073 0H18.001C19.1055 0 20.001 0.89543 20.001 2V18.0002C20.001 19.1048 19.1055 20.0002 18.001 20.0002H2.00073C0.896161 20.0002 0.000732422 19.1048 0.000732422 18.0002V2C0.000732422 0.895429 0.896163 0 2.00073 0ZM10.8036 9.0512C11.2415 8.32126 11.8255 7.8833 13.1394 7.8833C15.6821 7.8833 16.0104 9.98707 16.2457 11.4946C16.2805 11.7181 16.3134 11.9284 16.3511 12.1169V15.4746C16.3511 15.7666 16.0591 15.9126 15.9131 15.9126H14.0153C13.7233 15.9126 13.5773 15.6206 13.5773 15.4746V12.1169C13.5773 12.0858 13.578 12.048 13.5789 12.0047C13.5899 11.4387 13.6195 9.92712 12.2634 9.92712C11.0955 9.92712 10.8036 11.095 10.8036 11.679V15.6206C10.8036 15.9126 10.5116 16.0586 10.3656 16.0586H8.61375C8.32177 16.0586 8.17578 15.7666 8.17578 15.6206V8.32126C8.17578 8.02929 8.46776 7.8833 8.61375 7.8833H10.3656C10.6576 7.8833 10.8036 8.17527 10.8036 8.32126V9.0512ZM5.84 4.0874C4.96408 4.0874 4.23413 4.81734 4.23413 5.69326C4.23413 6.56918 4.96408 7.29912 5.84 7.29912C6.71592 7.29912 7.44584 6.56918 7.44584 5.69326C7.44584 4.81734 6.71592 4.0874 5.84 4.0874ZM4.96409 8.0293H6.56996C6.86193 8.0293 7.00791 8.17528 7.15389 8.46726V15.6206C7.15389 15.9126 7.0079 16.0586 6.71593 16.0586H4.96409C4.67211 16.0586 4.52612 15.9126 4.52612 15.6206V8.46726C4.52612 8.17528 4.67211 8.0293 4.96409 8.0293Z" fill="white"/>
</svg>
