<svg width="23" height="31" viewBox="0 0 23 31" fill="none" xmlns="http://www.w3.org/2000/svg">
<path d="M11.4999 30.4322C9.42492 28.6389 7.50156 26.6728 5.74997 24.5546C3.12142 21.3736 1.45172e-06 16.6362 1.45172e-06 12.1219C-0.00232837 7.40711 2.79982 3.15553 7.09886 1.35114C11.3979 -0.45324 16.3465 0.545231 19.6353 3.88063C21.7981 6.06223 23.0096 9.0298 22.9999 12.1219C22.9999 16.6362 19.8785 21.3736 17.2499 24.5546C15.4983 26.6728 13.575 28.6389 11.4999 30.4322ZM11.4999 7.12821C9.73914 7.12821 8.1121 8.08001 7.2317 9.62507C6.3513 11.1701 6.3513 13.0737 7.2317 14.6188C8.1121 16.1638 9.73914 17.1156 11.4999 17.1156C14.2219 17.1156 16.4285 14.8799 16.4285 12.1219C16.4285 9.36398 14.2219 7.12821 11.4999 7.12821Z" fill="#4A6BDE"/>
</svg>
