<svg width="200" height="44" viewBox="0 0 200 44" fill="none" xmlns="http://www.w3.org/2000/svg">
<path d="M61.06 40L63.382 33.7H62.698L60.736 39.163L58.774 33.7H58.09L60.412 40H61.06ZM64.9066 34.87L64.4566 33.7H63.7366L64.3306 34.87H64.9066ZM64.6996 40H64.1056V35.5H64.6996V40ZM73.0071 35.392C72.3591 35.392 71.8731 35.662 71.5491 36.211C71.2881 35.662 70.8291 35.392 70.1811 35.392C69.5871 35.392 69.1281 35.644 68.8041 36.157V35.5H68.2101V40H68.8041V37.507C68.8041 36.463 69.3801 35.968 70.1001 35.968C70.7481 35.968 71.1531 36.4 71.1531 37.192V40H71.7471V37.507C71.7471 36.454 72.2511 35.968 72.9981 35.968C73.6551 35.968 74.0961 36.409 74.0961 37.192V40H74.6901V37.192C74.6901 36.085 74.0151 35.392 73.0071 35.392ZM78.521 34.87H79.151L78.26 33.781H77.612L76.721 34.87H77.351L77.936 34.141L78.521 34.87ZM76.253 36.076C75.794 36.526 75.569 37.084 75.569 37.75C75.569 38.416 75.794 38.974 76.253 39.433C76.712 39.883 77.279 40.108 77.936 40.108C78.593 40.108 79.151 39.883 79.61 39.433C80.069 38.974 80.303 38.416 80.303 37.75C80.303 37.084 80.069 36.526 79.61 36.076C79.151 35.617 78.593 35.392 77.936 35.392C77.279 35.392 76.712 35.617 76.253 36.076ZM76.676 39.019C76.334 38.668 76.163 38.245 76.163 37.75C76.163 37.255 76.334 36.832 76.676 36.49C77.018 36.139 77.441 35.968 77.936 35.968C78.431 35.968 78.854 36.139 79.196 36.49C79.538 36.832 79.709 37.255 79.709 37.75C79.709 38.245 79.538 38.668 79.196 39.019C78.854 39.361 78.431 39.532 77.936 39.532C77.441 39.532 77.018 39.361 76.676 39.019ZM78.224 41.503C78.395 41.332 78.395 41.062 78.224 40.891C78.053 40.72 77.783 40.72 77.612 40.891C77.441 41.062 77.441 41.332 77.612 41.503C77.783 41.674 78.053 41.674 78.224 41.503ZM83.682 35.5H82.386V34.24L81.792 34.42V35.5H80.847V36.076H81.792V38.803C81.792 39.847 82.422 40.189 83.682 40V39.478C82.818 39.514 82.386 39.577 82.386 38.803V36.076H83.682V35.5ZM89.352 40L91.674 33.7H90.99L89.028 39.163L87.066 33.7H86.382L88.704 40H89.352ZM92.8248 34.717C92.9958 34.546 92.9958 34.276 92.8248 34.105C92.6538 33.934 92.3838 33.934 92.2128 34.105C92.0418 34.276 92.0418 34.546 92.2128 34.717C92.3838 34.888 92.6538 34.888 92.8248 34.717ZM92.8158 40V35.5H92.2218V40H92.8158ZM96.1553 35.392C95.4623 35.392 94.9043 35.617 94.4633 36.067C94.0223 36.517 93.8063 37.075 93.8063 37.75C93.8063 38.434 94.0313 39.001 94.4723 39.442C94.9133 39.883 95.4893 40.108 96.2003 40.108C97.0733 40.108 97.7843 39.712 98.1803 39.073L97.6583 38.767C97.4063 39.226 96.8933 39.532 96.2093 39.532C95.2463 39.532 94.5353 38.956 94.4183 38.047H98.3693C98.3783 37.93 98.3873 37.831 98.3873 37.768C98.3873 37.129 98.1803 36.571 97.7663 36.103C97.3613 35.626 96.8213 35.392 96.1553 35.392ZM96.1553 35.968C96.5603 35.968 96.9203 36.103 97.2263 36.364C97.5323 36.625 97.7123 36.994 97.7753 37.471H94.4183C94.5353 36.58 95.2193 35.968 96.1553 35.968ZM96.7763 34.87H97.4063L96.5153 33.781H95.8673L94.9763 34.87H95.6063L96.1913 34.141L96.7763 34.87ZM96.4883 41.503C96.6593 41.332 96.6593 41.062 96.4883 40.891C96.3173 40.72 96.0473 40.72 95.8763 40.891C95.7053 41.062 95.7053 41.332 95.8763 41.503C96.0473 41.674 96.3173 41.674 96.4883 41.503ZM101.717 35.5H100.421V34.24L99.8271 34.42V35.5H98.8821V36.076H99.8271V38.803C99.8271 39.847 100.457 40.189 101.717 40V39.478C100.853 39.514 100.421 39.577 100.421 38.803V36.076H101.717V35.5ZM109.097 38.83L105.587 33.7H105.047V40H105.677V34.87L109.187 40H109.727V33.7H109.097V38.83ZM114.944 36.382C114.53 35.725 113.927 35.392 113.126 35.392C112.487 35.392 111.938 35.617 111.479 36.076C111.029 36.535 110.804 37.093 110.804 37.75C110.804 38.407 111.029 38.965 111.479 39.424C111.938 39.883 112.487 40.108 113.126 40.108C113.927 40.108 114.53 39.775 114.944 39.118V40H115.538V35.5H114.944V36.382ZM111.911 39.019C111.569 38.668 111.398 38.245 111.398 37.75C111.398 37.255 111.569 36.832 111.911 36.49C112.253 36.139 112.676 35.968 113.171 35.968C113.666 35.968 114.089 36.139 114.431 36.49C114.773 36.832 114.944 37.255 114.944 37.75C114.944 38.245 114.773 38.668 114.431 39.019C114.089 39.361 113.666 39.532 113.171 39.532C112.676 39.532 112.253 39.361 111.911 39.019ZM121.593 35.392C120.945 35.392 120.459 35.662 120.135 36.211C119.874 35.662 119.415 35.392 118.767 35.392C118.173 35.392 117.714 35.644 117.39 36.157V35.5H116.796V40H117.39V37.507C117.39 36.463 117.966 35.968 118.686 35.968C119.334 35.968 119.739 36.4 119.739 37.192V40H120.333V37.507C120.333 36.454 120.837 35.968 121.584 35.968C122.241 35.968 122.682 36.409 122.682 37.192V40H123.276V37.192C123.276 36.085 122.601 35.392 121.593 35.392ZM127.899 37.66L130.221 35.5H129.411L127.269 37.489V33.7H126.675V40H127.269V37.831L129.519 40H130.311L127.899 37.66ZM133.228 35.392C132.553 35.392 132.049 35.662 131.716 36.202V33.7H131.122V40H131.716V37.642C131.716 36.499 132.31 35.968 133.174 35.968C133.957 35.968 134.398 36.436 134.398 37.237V40H134.992V37.237C134.992 36.112 134.317 35.392 133.228 35.392ZM139.912 39.433C140.371 38.974 140.605 38.416 140.605 37.75C140.605 37.084 140.371 36.526 139.912 36.076C139.453 35.617 138.895 35.392 138.238 35.392C137.581 35.392 137.014 35.617 136.555 36.076C136.096 36.526 135.871 37.084 135.871 37.75C135.871 38.416 136.096 38.974 136.555 39.433C137.014 39.883 137.581 40.108 138.238 40.108C138.895 40.108 139.453 39.883 139.912 39.433ZM136.978 39.019C136.636 38.668 136.465 38.245 136.465 37.75C136.465 37.255 136.636 36.832 136.978 36.49C137.32 36.139 137.743 35.968 138.238 35.968C138.733 35.968 139.156 36.139 139.498 36.49C139.84 36.832 140.011 37.255 140.011 37.75C140.011 38.245 139.84 38.668 139.498 39.019C139.156 39.361 138.733 39.532 138.238 39.532C137.743 39.532 137.32 39.361 136.978 39.019ZM138.607 34.879C138.589 34.69 138.67 34.618 138.796 34.555C138.949 34.474 139.102 34.303 139.102 33.97C139.102 33.538 138.76 33.331 138.391 33.331C138.067 33.331 137.761 33.511 137.617 33.889C137.86 34.042 138.022 34.087 138.013 34.096C138.085 33.871 138.247 33.772 138.391 33.772C138.526 33.772 138.634 33.853 138.634 33.979C138.634 34.132 138.544 34.195 138.436 34.267C138.445 34.258 138.346 34.312 138.346 34.312C138.175 34.429 138.166 34.537 138.166 34.879H138.607ZM143.678 35.392C142.985 35.392 142.427 35.617 141.986 36.067C141.545 36.517 141.329 37.075 141.329 37.75C141.329 38.434 141.554 39.001 141.995 39.442C142.436 39.883 143.012 40.108 143.723 40.108C144.596 40.108 145.307 39.712 145.703 39.073L145.181 38.767C144.929 39.226 144.416 39.532 143.732 39.532C142.769 39.532 142.058 38.956 141.941 38.047H145.892C145.901 37.93 145.91 37.831 145.91 37.768C145.91 37.129 145.703 36.571 145.289 36.103C144.884 35.626 144.344 35.392 143.678 35.392ZM143.678 35.968C144.083 35.968 144.443 36.103 144.749 36.364C145.055 36.625 145.235 36.994 145.298 37.471H141.941C142.058 36.58 142.742 35.968 143.678 35.968ZM153.902 35.392C153.254 35.392 152.768 35.662 152.444 36.211C152.183 35.662 151.724 35.392 151.076 35.392C150.482 35.392 150.023 35.644 149.699 36.157V35.5H149.105V40H149.699V37.507C149.699 36.463 150.275 35.968 150.995 35.968C151.643 35.968 152.048 36.4 152.048 37.192V40H152.642V37.507C152.642 36.454 153.146 35.968 153.893 35.968C154.55 35.968 154.991 36.409 154.991 37.192V40H155.585V37.192C155.585 36.085 154.91 35.392 153.902 35.392ZM159.146 41.503C159.317 41.332 159.317 41.062 159.146 40.891C158.975 40.72 158.705 40.72 158.534 40.891C158.363 41.062 158.363 41.332 158.534 41.503C158.705 41.674 158.975 41.674 159.146 41.503ZM160.604 36.382C160.19 35.725 159.587 35.392 158.786 35.392C158.147 35.392 157.598 35.617 157.139 36.076C156.689 36.535 156.464 37.093 156.464 37.75C156.464 38.407 156.689 38.965 157.139 39.424C157.598 39.883 158.147 40.108 158.786 40.108C159.587 40.108 160.19 39.775 160.604 39.118V40H161.198V35.5H160.604V36.382ZM157.571 39.019C157.229 38.668 157.058 38.245 157.058 37.75C157.058 37.255 157.229 36.832 157.571 36.49C157.913 36.139 158.336 35.968 158.831 35.968C159.326 35.968 159.749 36.139 160.091 36.49C160.433 36.832 160.604 37.255 160.604 37.75C160.604 38.245 160.433 38.668 160.091 39.019C159.749 39.361 159.326 39.532 158.831 39.532C158.336 39.532 157.913 39.361 157.571 39.019ZM164.561 35.392C163.886 35.392 163.382 35.662 163.049 36.202V35.5H162.455V40H163.049V37.642C163.049 36.499 163.643 35.968 164.507 35.968C165.29 35.968 165.731 36.436 165.731 37.237V40H166.325V37.237C166.325 36.112 165.65 35.392 164.561 35.392ZM169.58 35.392C168.905 35.392 168.401 35.662 168.068 36.202V33.7H167.474V40H168.068V37.642C168.068 36.499 168.662 35.968 169.526 35.968C170.309 35.968 170.75 36.436 170.75 37.237V40H171.344V37.237C171.344 36.112 170.669 35.392 169.58 35.392ZM176.848 35.392C176.173 35.392 175.669 35.662 175.336 36.202V33.7H174.742V40H175.336V37.642C175.336 36.499 175.93 35.968 176.794 35.968C177.577 35.968 178.018 36.436 178.018 37.237V40H178.612V37.237C178.612 36.112 177.937 35.392 176.848 35.392ZM183.532 39.433C183.991 38.974 184.225 38.416 184.225 37.75C184.225 37.084 183.991 36.526 183.532 36.076C183.496 36.04 183.46 36.013 183.424 35.977C183.856 35.833 184.036 35.455 184.036 34.87V34.825H183.487V34.87C183.487 35.311 183.397 35.5 182.965 35.5H182.596C182.371 35.428 182.119 35.392 181.858 35.392C181.201 35.392 180.634 35.617 180.175 36.076C179.716 36.526 179.491 37.084 179.491 37.75C179.491 38.416 179.716 38.974 180.175 39.433C180.634 39.883 181.201 40.108 181.858 40.108C182.515 40.108 183.073 39.883 183.532 39.433ZM180.598 39.019C180.256 38.668 180.085 38.245 180.085 37.75C180.085 37.255 180.256 36.832 180.598 36.49C180.94 36.139 181.363 35.968 181.858 35.968C182.353 35.968 182.776 36.139 183.118 36.49C183.46 36.832 183.631 37.255 183.631 37.75C183.631 38.245 183.46 38.668 183.118 39.019C182.776 39.361 182.353 39.532 181.858 39.532C181.363 39.532 180.94 39.361 180.598 39.019ZM187.325 35.392C186.65 35.392 186.146 35.662 185.813 36.202V35.5H185.219V40H185.813V37.642C185.813 36.499 186.407 35.968 187.271 35.968C188.054 35.968 188.495 36.436 188.495 37.237V40H189.089V37.237C189.089 36.112 188.414 35.392 187.325 35.392Z" fill="black"/>
<path d="M42.6366 13.4565L30.5521 1.37537H13.4602L1.37573 13.4565V30.5435L13.4602 42.6246H30.5521L42.6366 30.5435V13.4565Z" fill="url(#paint0_radial_31_83)"/>
<path d="M42.6366 13.4565L30.5521 1.37537H13.4602L1.37573 13.4565V30.5435L13.4602 42.6246H30.5521L42.6366 30.5435V13.4565Z" fill="url(#paint1_radial_31_83)"/>
<path d="M13.4989 1.35822L13.4309 1.38843L20.6573 17.6348L20.7253 17.6046L13.4989 1.35822Z" fill="white"/>
<path d="M29.738 2.31988L15.8284 6.67535L15.8506 6.7463L29.7603 2.39083L29.738 2.31988Z" fill="white"/>
<path d="M30.0499 2.31405L26.7065 9.47791L26.7739 9.50934L30.1173 2.34548L30.0499 2.31405Z" fill="white"/>
<path d="M15.8399 6.67565L15.8215 6.74768L26.7376 9.53535L26.756 9.46332L15.8399 6.67565Z" fill="white"/>
<path d="M26.7178 9.46869L20.6589 17.5955L20.7186 17.6399L26.7774 9.51312L26.7178 9.46869Z" fill="white"/>
<path d="M26.7618 9.4672L26.7205 9.52899L37.7322 16.895L37.7735 16.8332L26.7618 9.4672Z" fill="white"/>
<path d="M42.0566 14.1789L37.8232 16.9662L37.8641 17.0283L42.0975 14.2409L42.0566 14.1789Z" fill="white"/>
<path d="M37.6339 16.927L20.8884 17.5439L20.8912 17.6182L37.6366 17.0013L37.6339 16.927Z" fill="white"/>
<path d="M38.0551 17.2692L37.9851 17.2943L42.3336 29.3985L42.4036 29.3734L38.0551 17.2692Z" fill="white"/>
<path d="M37.6944 17.259L33.9282 27.7957L33.9983 27.8207L37.7644 17.284L37.6944 17.259Z" fill="white"/>
<path d="M33.9775 27.7868L33.9583 27.8586L42.3154 30.0935L42.3346 30.0217L33.9775 27.7868Z" fill="white"/>
<path d="M20.7279 17.617L20.6555 17.6339L22.2599 24.4868L22.3323 24.4699L20.7279 17.617Z" fill="white"/>
<path d="M22.3039 24.4408L22.2834 24.5123L33.9611 27.8553L33.9815 27.7838L22.3039 24.4408Z" fill="white"/>
<path d="M22.3269 24.4551L22.26 24.4877L26.7537 33.6979L26.8205 33.6653L22.3269 24.4551Z" fill="white"/>
<path d="M33.9345 27.7779L26.7625 33.6504L26.8096 33.7079L33.9816 27.8355L33.9345 27.7779Z" fill="white"/>
<path d="M26.82 33.6736L26.7515 33.7025L30.5179 42.6306L30.5865 42.6017L26.82 33.6736Z" fill="white"/>
<path d="M26.7631 33.6551L18.4924 38.0051L18.5271 38.0709L26.7977 33.7209L26.7631 33.6551Z" fill="white"/>
<path d="M18.5285 38.0022L18.5034 38.0721L29.5881 42.0414L29.6132 41.9715L18.5285 38.0022Z" fill="white"/>
<path d="M18.4903 38.0092L13.2441 42.3997L13.2919 42.4567L18.5381 38.0662L18.4903 38.0092Z" fill="white"/>
<path d="M22.2537 24.4644L18.4746 38.0238L18.5462 38.0438L22.3253 24.4843L22.2537 24.4644Z" fill="white"/>
<path d="M7.61076 27.8233L7.56006 27.8777L18.4852 38.0577L18.5359 38.0033L7.61076 27.8233Z" fill="white"/>
<path d="M22.282 24.4323L7.56909 27.8099L7.58573 27.8824L22.2986 24.5048L22.282 24.4323Z" fill="white"/>
<path d="M7.56585 27.8177L1.05737 30.4999L1.08571 30.5686L7.59419 27.8864L7.56585 27.8177Z" fill="white"/>
<path d="M1.73643 13.5277L1.69214 13.5874L9.53778 19.4028L9.58207 19.3431L1.73643 13.5277Z" fill="white"/>
<path d="M15.8071 6.69656L9.52808 19.3642L9.59471 19.3972L15.8737 6.72957L15.8071 6.69656Z" fill="white"/>
<path d="M9.57303 19.344L9.54541 19.413L22.2734 24.5028L22.3011 24.4338L9.57303 19.344Z" fill="white"/>
<path d="M9.52887 19.3686L7.55029 27.8391L7.62271 27.856L9.60128 19.3855L9.52887 19.3686Z" fill="white"/>
<path d="M1.40374 13.4407L1.33545 13.4702L7.54115 27.864L7.60944 27.8346L1.40374 13.4407Z" fill="white"/>
<path d="M15.8401 7.40975C16.2234 7.40975 16.5342 7.09909 16.5342 6.71586C16.5342 6.33264 16.2234 6.02197 15.8401 6.02197C15.4567 6.02197 15.146 6.33264 15.146 6.71586C15.146 7.09909 15.4567 7.40975 15.8401 7.40975Z" fill="white"/>
<path d="M20.7109 18.2766C21.0943 18.2766 21.405 17.9659 21.405 17.5827C21.405 17.1995 21.0943 16.8888 20.7109 16.8888C20.3276 16.8888 20.0168 17.1995 20.0168 17.5827C20.0168 17.9659 20.3276 18.2766 20.7109 18.2766Z" fill="white"/>
<path d="M33.9604 28.5114C34.3438 28.5114 34.6545 28.2008 34.6545 27.8175C34.6545 27.4343 34.3438 27.1237 33.9604 27.1237C33.5771 27.1237 33.2664 27.4343 33.2664 27.8175C33.2664 28.2008 33.5771 28.5114 33.9604 28.5114Z" fill="white"/>
<path d="M22.2974 25.1659C22.6807 25.1659 22.9914 24.8552 22.9914 24.472C22.9914 24.0887 22.6807 23.7781 22.2974 23.7781C21.914 23.7781 21.6033 24.0887 21.6033 24.472C21.6033 24.8552 21.914 25.1659 22.2974 25.1659Z" fill="white"/>
<path d="M9.55614 20.0732C9.93948 20.0732 10.2502 19.7625 10.2502 19.3793C10.2502 18.9961 9.93948 18.6854 9.55614 18.6854C9.17281 18.6854 8.86206 18.9961 8.86206 19.3793C8.86206 19.7625 9.17281 20.0732 9.55614 20.0732Z" fill="white"/>
<path d="M7.58544 28.5486C7.96877 28.5486 8.27953 28.2379 8.27953 27.8547C8.27953 27.4714 7.96877 27.1608 7.58544 27.1608C7.20211 27.1608 6.89136 27.4714 6.89136 27.8547C6.89136 28.2379 7.20211 28.5486 7.58544 28.5486Z" fill="white"/>
<path d="M18.5171 38.7338C18.9004 38.7338 19.2112 38.4232 19.2112 38.04C19.2112 37.6567 18.9004 37.3461 18.5171 37.3461C18.1337 37.3461 17.823 37.6567 17.823 38.04C17.823 38.4232 18.1337 38.7338 18.5171 38.7338Z" fill="white"/>
<path d="M26.7842 34.3847C27.1675 34.3847 27.4783 34.074 27.4783 33.6908C27.4783 33.3076 27.1675 32.9969 26.7842 32.9969C26.4008 32.9969 26.0901 33.3076 26.0901 33.6908C26.0901 34.074 26.4008 34.3847 26.7842 34.3847Z" fill="white"/>
<path d="M26.7595 10.1977C27.1428 10.1977 27.4536 9.88705 27.4536 9.50383C27.4536 9.1206 27.1428 8.80994 26.7595 8.80994C26.3762 8.80994 26.0654 9.1206 26.0654 9.50383C26.0654 9.88705 26.3762 10.1977 26.7595 10.1977Z" fill="white"/>
<path d="M37.8896 17.6446C38.273 17.6446 38.5837 17.3339 38.5837 16.9507C38.5837 16.5675 38.273 16.2568 37.8896 16.2568C37.5063 16.2568 37.1956 16.5675 37.1956 16.9507C37.1956 17.3339 37.5063 17.6446 37.8896 17.6446Z" fill="white"/>
<path d="M13.4603 2.75078C14.2201 2.75078 14.8361 2.13499 14.8361 1.37539C14.8361 0.615782 14.2201 0 13.4603 0C12.7005 0 12.0845 0.615782 12.0845 1.37539C12.0845 2.13499 12.7005 2.75078 13.4603 2.75078Z" fill="#1EA7DA"/>
<path d="M1.37577 14.7947C2.13559 14.7947 2.75155 14.1789 2.75155 13.4193C2.75155 12.6597 2.13559 12.0439 1.37577 12.0439C0.615955 12.0439 0 12.6597 0 13.4193C0 14.1789 0.615955 14.7947 1.37577 14.7947Z" fill="#1EA7DA"/>
<path d="M30.5645 2.75078C31.3243 2.75078 31.9403 2.13499 31.9403 1.37539C31.9403 0.615782 31.3243 0 30.5645 0C29.8047 0 29.1887 0.615782 29.1887 1.37539C29.1887 2.13499 29.8047 2.75078 30.5645 2.75078Z" fill="#1EA7DA"/>
<path d="M42.6119 14.7947C43.3717 14.7947 43.9876 14.1789 43.9876 13.4193C43.9876 12.6597 43.3717 12.0439 42.6119 12.0439C41.852 12.0439 41.2361 12.6597 41.2361 13.4193C41.2361 14.1789 41.852 14.7947 42.6119 14.7947Z" fill="#1EA7DA"/>
<path d="M1.37577 31.9065C2.13559 31.9065 2.75155 31.2908 2.75155 30.5311C2.75155 29.7715 2.13559 29.1558 1.37577 29.1558C0.615955 29.1558 0 29.7715 0 30.5311C0 31.2908 0.615955 31.9065 1.37577 31.9065Z" fill="#1EA7DA"/>
<path d="M42.6119 31.9065C43.3717 31.9065 43.9876 31.2908 43.9876 30.5311C43.9876 29.7715 43.3717 29.1558 42.6119 29.1558C41.852 29.1558 41.2361 29.7715 41.2361 30.5311C41.2361 31.2908 41.852 31.9065 42.6119 31.9065Z" fill="#1EA7DA"/>
<path d="M13.4602 44C14.2201 44 14.836 43.3842 14.836 42.6246C14.836 41.865 14.2201 41.2492 13.4602 41.2492C12.7004 41.2492 12.0845 41.865 12.0845 42.6246C12.0845 43.3842 12.7004 44 13.4602 44Z" fill="#1EA7DA"/>
<path d="M30.5645 44C31.3243 44 31.9403 43.3842 31.9403 42.6246C31.9403 41.865 31.3243 41.2492 30.5645 41.2492C29.8047 41.2492 29.1887 41.865 29.1887 42.6246C29.1887 43.3842 29.8047 44 30.5645 44Z" fill="#1EA7DA"/>
<path d="M38.3729 13.0724C37.6293 13.0104 37.0839 13.0228 37.0839 13.0228H32.1385L29.2754 13.0352H14.6005H11.8862H6.95319C6.30869 13.0228 5.66418 13.0848 5.66418 13.0848C4.12728 13.1963 2.81348 13.4069 2.81348 13.4069C4.35038 13.6547 5.66418 13.7291 5.66418 13.7415C6.40784 13.8034 6.95319 13.791 6.95319 13.791H11.8985H14.6129H29.2754H32.1385H37.0839C37.7284 13.8034 38.3729 13.7291 38.3729 13.7291C39.9098 13.6176 41.2236 13.4069 41.2236 13.4069C39.6991 13.1715 38.3729 13.0848 38.3729 13.0724Z" fill="#E63634"/>
<path d="M13.857 36.7265V31.9065L13.8446 29.1557V14.8319V12.1307V7.31061C13.857 6.67867 13.795 6.04674 13.795 6.04674C13.6835 4.53505 13.4604 3.25879 13.4604 3.25879C13.2001 4.75808 13.1133 6.04674 13.1133 6.04674C13.0514 6.76541 13.0638 7.31061 13.0638 7.31061V12.143V14.8443V29.1557L13.0762 31.9065V36.7265C13.0638 37.3585 13.1257 37.9904 13.1257 37.9904C13.2373 39.4897 13.4604 40.7784 13.4604 40.7784C13.7083 39.2791 13.8074 38.0028 13.8074 37.9904C13.8694 37.2594 13.857 36.7265 13.857 36.7265Z" fill="#E63634"/>
<path d="M38.3854 30.1966C37.6417 30.1346 37.0963 30.147 37.0963 30.147H32.151H29.3003H14.6254L11.911 30.1594H6.96565C6.32114 30.147 5.67663 30.209 5.67663 30.209C4.13973 30.3205 2.82593 30.5311 2.82593 30.5311C4.36283 30.7789 5.67663 30.8533 5.67663 30.8657C6.42029 30.9276 6.96565 30.9152 6.96565 30.9152H11.911L14.6254 30.9029H29.2879H32.1386H37.084C37.7285 30.9152 38.373 30.8533 38.373 30.8533C39.9099 30.7418 41.2237 30.5311 41.2237 30.5311C39.6992 30.2833 38.3978 30.209 38.3854 30.1966Z" fill="#E63634"/>
<path d="M30.9488 36.7265V31.9065L30.9364 29.1557V14.8443V12.143V7.323C30.9488 6.69106 30.8868 6.05913 30.8868 6.05913C30.7753 4.54744 30.5522 3.27118 30.5522 3.27118C30.3043 4.77048 30.2051 6.05913 30.2051 6.05913C30.1432 6.7778 30.1556 7.323 30.1556 7.323V12.143V14.8443V29.1557L30.1679 31.9065V36.7265C30.1556 37.3585 30.2175 37.9904 30.2175 37.9904C30.3291 39.5021 30.5522 40.7784 30.5522 40.7784C30.8001 39.2915 30.8992 38.0028 30.8992 37.9904C30.9612 37.2594 30.9488 36.7265 30.9488 36.7265Z" fill="#E63634"/>
<path d="M13.4602 14.7947C14.2201 14.7947 14.836 14.1789 14.836 13.4193C14.836 12.6597 14.2201 12.0439 13.4602 12.0439C12.7004 12.0439 12.0845 12.6597 12.0845 13.4193C12.0845 14.1789 12.7004 14.7947 13.4602 14.7947Z" fill="#E63634"/>
<path d="M30.6016 14.7947C31.3614 14.7947 31.9774 14.1789 31.9774 13.4193C31.9774 12.6597 31.3614 12.0439 30.6016 12.0439C29.8418 12.0439 29.2258 12.6597 29.2258 13.4193C29.2258 14.1789 29.8418 14.7947 30.6016 14.7947Z" fill="#E63634"/>
<path d="M30.6016 31.9065C31.3614 31.9065 31.9774 31.2908 31.9774 30.5311C31.9774 29.7715 31.3614 29.1558 30.6016 29.1558C29.8418 29.1558 29.2258 29.7715 29.2258 30.5311C29.2258 31.2908 29.8418 31.9065 30.6016 31.9065Z" fill="#E63634"/>
<path d="M13.4727 31.9065C14.2325 31.9065 14.8485 31.2908 14.8485 30.5311C14.8485 29.7715 14.2325 29.1558 13.4727 29.1558C12.7129 29.1558 12.0969 29.7715 12.0969 30.5311C12.0969 31.2908 12.7129 31.9065 13.4727 31.9065Z" fill="#E63634"/>
<path d="M71.057 8.2449C69.3456 7.1284 66.768 6.50696 64.1693 6.50696H58V27.594H64.1693C66.768 27.594 69.3456 26.962 71.057 25.856C75.0818 23.2965 75.853 19.0728 75.853 17.1137C75.8636 14.5647 74.7755 10.5516 71.057 8.2449ZM70.4337 23.9706C68.004 25.677 65.0884 25.677 63.1763 25.677H60.1128V8.41343H63.1763C66.2927 8.41343 68.2681 8.81368 70.1485 10.0355C72.3458 11.626 73.7508 14.2276 73.7508 17.0189C73.7508 20.6949 71.7119 22.8857 70.4337 23.9706Z" fill="#2490CC"/>
<path d="M79.149 27.5844H90.7164V25.6779H81.2618V17.9046H90.4101V15.9876H81.2618V8.41434H90.7164V6.50787H79.149V27.5844Z" fill="#2490CC"/>
<path d="M94.4668 27.5843H106.034V25.6778H96.5796V17.9045H105.728V15.9875H96.5796V8.41428H106.034V6.50781H94.4668V27.5843Z" fill="#2490CC"/>
<path d="M121.267 7.7297C120.095 6.96079 118.721 6.50787 115.806 6.50787H109.922V27.5949H112.034V19.1053H115.806C118.721 19.1053 120.095 18.6524 121.267 17.8835C122.841 16.8302 123.898 15.0291 123.898 12.8171C123.898 10.5736 122.841 8.783 121.267 7.7297ZM119.323 16.6511C118.119 17.1883 117.348 17.1883 115.098 17.1883H112.045V8.41434H115.098C117.359 8.41434 118.13 8.41434 119.323 8.95153C120.982 9.72043 121.785 11.2056 121.785 12.7961C121.785 14.3865 120.982 15.8822 119.323 16.6511Z" fill="#2490CC"/>
<path d="M137.261 25.7411C132.835 25.7411 128.63 21.8544 128.63 17.0724C128.63 12.5222 132.454 8.31953 137.24 8.31953C138.486 8.31953 142.11 8.70925 144.349 12.0482H146.642C145.849 10.1417 142.522 6.47626 137.261 6.47626C131.419 6.47626 126.581 11.0054 126.581 17.0408C126.581 23.0868 131.567 27.5844 137.293 27.5844C140.589 27.5844 144.539 25.878 146.726 21.8755H144.434C141.634 25.6042 138.286 25.7411 137.261 25.7411Z" fill="#2490CC"/>
<path d="M157.301 6.50787L148.269 27.5949H150.466L153.551 20.4957H163.386L166.439 27.5949H168.752L159.667 6.50787H157.301V6.50787ZM154.364 18.5892L158.505 8.89886L162.562 18.5892H154.364Z" fill="#E63635"/>
<path d="M185.422 13.3122C185.422 10.721 184.017 8.41432 181.65 7.29782C180.679 6.8449 179.274 6.49731 176.453 6.49731H174.076V8.40378H176.886C178.661 8.40378 179.749 8.55125 181.006 9.20429C182.379 9.88893 183.32 11.5953 183.32 13.249C183.32 15.1344 182.147 17.0619 179.833 17.7255C178.893 18.0099 177.974 18.0415 175.291 18.0415L182.464 27.5843H185.126L179.157 19.7162C183.224 19.4634 185.422 16.3667 185.422 13.3122Z" fill="#2490CC"/>
<path d="M173.189 6.50787H171.076V27.5844H173.189V18.9157V8.41434V6.50787Z" fill="#E63635"/>
<path d="M200 8.41434V6.50787H188.422V27.5844H200V25.6779H190.535V17.9046H199.683V15.9876H190.535V8.41434H200Z" fill="#2490CC"/>
<defs>
<radialGradient id="paint0_radial_31_83" cx="0" cy="0" r="1" gradientUnits="userSpaceOnUse" gradientTransform="translate(22.0109 22.0016) scale(20.2827 20.277)">
<stop offset="0.1541" stop-color="#ABDEE2"/>
<stop offset="0.3067" stop-color="#9FD8E1"/>
<stop offset="0.5761" stop-color="#7DCBE1"/>
<stop offset="0.9285" stop-color="#34BAE2"/>
<stop offset="1" stop-color="#06B6E2"/>
</radialGradient>
<radialGradient id="paint1_radial_31_83" cx="0" cy="0" r="1" gradientUnits="userSpaceOnUse" gradientTransform="translate(22.0109 22.0016) scale(21.2472 21.2413)">
<stop offset="0.1541" stop-color="#ABDEE2"/>
<stop offset="0.3055" stop-color="#9FD7E1"/>
<stop offset="0.5728" stop-color="#7ECAE1"/>
<stop offset="0.9224" stop-color="#36B7E2"/>
<stop offset="1" stop-color="#08B3E2"/>
</radialGradient>
</defs>
</svg>
