<svg width="60" height="60" viewBox="0 0 60 60" fill="none" xmlns="http://www.w3.org/2000/svg">
<path d="M18.3548 3.75106C19.3909 3.75106 20.2309 2.91135 20.2309 1.87553C20.2309 0.839703 19.3909 0 18.3548 0C17.3187 0 16.4788 0.839703 16.4788 1.87553C16.4788 2.91135 17.3187 3.75106 18.3548 3.75106Z" fill="white"/>
<path d="M1.87606 20.1744C2.91217 20.1744 3.75211 19.3347 3.75211 18.2989C3.75211 17.263 2.91217 16.4233 1.87606 16.4233C0.839939 16.4233 0 17.263 0 18.2989C0 19.3347 0.839939 20.1744 1.87606 20.1744Z" fill="white"/>
<path d="M41.6788 3.75106C42.7149 3.75106 43.5548 2.91135 43.5548 1.87553C43.5548 0.839703 42.7149 0 41.6788 0C40.6427 0 39.8027 0.839703 39.8027 1.87553C39.8027 2.91135 40.6427 3.75106 41.6788 3.75106Z" fill="white"/>
<path d="M58.107 20.1744C59.1431 20.1744 59.9831 19.3347 59.9831 18.2989C59.9831 17.263 59.1431 16.4233 58.107 16.4233C57.0709 16.4233 56.231 17.263 56.231 18.2989C56.231 19.3347 57.0709 20.1744 58.107 20.1744Z" fill="white"/>
<path d="M1.87606 43.5089C2.91217 43.5089 3.75211 42.6692 3.75211 41.6333C3.75211 40.5975 2.91217 39.7578 1.87606 39.7578C0.839939 39.7578 0 40.5975 0 41.6333C0 42.6692 0.839939 43.5089 1.87606 43.5089Z" fill="white"/>
<path d="M58.107 43.5089C59.1431 43.5089 59.9831 42.6692 59.9831 41.6333C59.9831 40.5975 59.1431 39.7578 58.107 39.7578C57.0709 39.7578 56.231 40.5975 56.231 41.6333C56.231 42.6692 57.0709 43.5089 58.107 43.5089Z" fill="white"/>
<path d="M18.3548 59.9996C19.3909 59.9996 20.2309 59.1599 20.2309 58.1241C20.2309 57.0882 19.3909 56.2485 18.3548 56.2485C17.3187 56.2485 16.4788 57.0882 16.4788 58.1241C16.4788 59.1599 17.3187 59.9996 18.3548 59.9996Z" fill="white"/>
<path d="M41.6788 59.9996C42.7149 59.9996 43.5548 59.1599 43.5548 58.1241C43.5548 57.0882 42.7149 56.2485 41.6788 56.2485C40.6427 56.2485 39.8027 57.0882 39.8027 58.1241C39.8027 59.1599 40.6427 59.9996 41.6788 59.9996Z" fill="white"/>
<path fill-rule="evenodd" clip-rule="evenodd" d="M27.7721 23.1546L25.838 18.8063H20.1614C19.9868 19.4287 19.4991 19.9202 18.8789 20.1002V20.2253V28.7073L29.5466 32.9732C29.6601 32.7287 29.875 32.5408 30.1372 32.4634L28.3698 24.9142C28.3281 24.9198 28.2856 24.9227 28.2424 24.9227C27.7195 24.9227 27.2957 24.499 27.2957 23.9763C27.2957 23.6247 27.4874 23.3178 27.7721 23.1546ZM25.3795 17.7756H20.1569C19.9785 17.1607 19.4939 16.676 18.8789 16.4975V14.7594L21.2245 10.0274C21.3397 10.0772 21.4668 10.1049 21.6003 10.1049C21.7199 10.1049 21.8343 10.0827 21.9397 10.0422L25.3795 17.7756ZM17.8141 9.96905V16.5024C17.2071 16.6848 16.7295 17.1663 16.5527 17.7756H16.2085H9.48174C8.60287 17.7587 7.72399 17.8432 7.72399 17.8432C5.62822 17.9953 3.83667 18.2825 3.83667 18.2825C5.4169 18.5373 6.82417 18.6576 7.4209 18.7086C7.61558 18.7253 7.72399 18.7346 7.72399 18.7387C8.73808 18.8232 9.48174 18.8063 9.48174 18.8063H16.2254H16.5482C16.5721 18.8915 16.6019 18.9742 16.637 19.054L13.4121 25.5601C13.2956 25.5089 13.1669 25.4805 13.0315 25.4805C12.7418 25.4805 12.4824 25.6106 12.3088 25.8155L2.36777 18.4469L2.30737 18.5283L12.2474 25.8962C12.1447 26.0476 12.0847 26.2303 12.0847 26.4269C12.0847 26.8616 12.3778 27.2279 12.7773 27.3389L10.5086 37.0514C10.4551 37.042 10.4001 37.0371 10.344 37.0371C10.2252 37.0371 10.1115 37.059 10.0067 37.0989L1.91417 18.3285L1.88602 18.3407L18.3221 1.90919L21.1712 8.31449C20.864 8.47093 20.6536 8.79009 20.6536 9.15839C20.6536 9.51151 20.847 9.81946 21.1337 9.98213L18.8789 14.5311V9.96905C18.8958 9.10732 18.8113 8.24559 18.8113 8.24559C18.6592 6.1842 18.355 4.44385 18.355 4.44385C18 6.48834 17.8817 8.24559 17.8817 8.24559C17.7972 9.2256 17.8141 9.96905 17.8141 9.96905ZM13.5026 25.6058L16.6928 19.1697C16.9249 19.6114 17.328 19.9493 17.8141 20.0953V20.2422V28.2815L13.9293 26.728C13.961 26.6335 13.9782 26.5322 13.9782 26.4269C13.9782 26.0757 13.7868 25.7691 13.5026 25.6058ZM17.8141 28.3907V36.2028L11.2504 37.7096C11.158 37.4037 10.9149 37.1631 10.6074 37.0742L12.8763 27.3608C12.9268 27.3691 12.9786 27.3734 13.0315 27.3734C13.4132 27.3734 13.7421 27.1476 13.8919 26.8223L17.8141 28.3907ZM18.8789 35.9584V28.8165L29.5089 33.0673C29.4765 33.1627 29.459 33.265 29.459 33.3713C29.459 33.4242 29.4633 33.4761 29.4717 33.5266L18.8789 35.9584ZM17.8141 36.3068L11.2745 37.8081C11.2851 37.865 11.2907 37.9236 11.2907 37.9836C11.2907 38.2134 11.2088 38.424 11.0726 38.588L13.7971 41.1267H16.2422L16.5655 41.1252C16.7371 40.5143 17.2104 40.0297 17.8145 39.842L17.8141 39.7578V36.3068ZM20.1739 41.1098C19.9939 40.4895 19.502 40.0017 18.8792 39.8272L18.8789 39.7578V36.0624L29.4935 33.6256C29.5767 33.9244 29.8029 34.1637 30.0938 34.2652L28.1861 41.1098H20.1739ZM18.8955 43.4349C19.5161 43.2549 20.004 42.7632 20.1786 42.1405H27.8989L25.4446 50.9466C25.3821 50.9336 25.3173 50.9268 25.2509 50.9268C24.997 50.9268 24.7664 51.0267 24.5964 51.1894L18.8958 45.8776V43.5089L18.8955 43.4349ZM16.5696 42.1559C16.7461 42.7654 17.2236 43.2471 17.8307 43.4296L17.831 43.5089V44.8855L14.9033 42.1574H16.2422L16.5696 42.1559ZM9.49859 41.1267H13.6484L11.0037 38.6624C10.8332 38.8281 10.6005 38.9301 10.344 38.9301C9.96473 38.9301 9.63758 38.7072 9.48645 38.3853L1.87646 41.5214V41.6507L18.125 57.8946L18.0603 57.8174L24.49 52.4365C24.3733 52.2791 24.3042 52.0842 24.3042 51.8732C24.3042 51.6409 24.388 51.428 24.527 51.2633L18.8958 46.0162V50.0817C18.8958 50.0817 18.9127 50.8082 18.8282 51.8051C18.8282 51.822 18.693 53.5624 18.355 55.6069C18.355 55.6069 18.0507 53.8496 17.8986 51.8051C17.8986 51.8051 17.8141 50.9434 17.831 50.0817V45.024L14.7545 42.1574H9.49859C9.49859 42.1574 8.75492 42.1743 7.74084 42.0898C7.74084 42.0856 7.63244 42.0764 7.43777 42.0597C6.84105 42.0087 5.43377 41.8884 3.85352 41.6336C3.85352 41.6336 5.64506 41.3463 7.74084 41.1943C7.74084 41.1943 8.61971 41.1098 9.49859 41.1267ZM25.5426 50.9725L28.0041 42.1405H34.6226L36.0718 45.1109C35.7773 45.2713 35.5774 45.5836 35.5774 45.9426C35.5774 46.0812 35.6072 46.2129 35.6608 46.3315L26.0598 51.3812C25.943 51.1896 25.76 51.0428 25.5426 50.9725ZM28.2914 41.1098H34.1197L30.7704 34.245C30.6582 34.2919 30.535 34.3178 30.4057 34.3178C30.3319 34.3178 30.2601 34.3093 30.1912 34.2934L28.2914 41.1098ZM36.1634 45.0672L34.7354 42.1405H39.9229C39.9913 42.3847 40.108 42.6087 40.2619 42.8017L37.2156 45.296C37.0428 45.1114 36.7969 44.9961 36.5241 44.9961C36.3964 44.9961 36.2746 45.0214 36.1634 45.0672ZM34.2325 41.1098H39.9276C40.0978 40.5232 40.5468 40.0552 41.1217 39.8585L41.1213 39.7576V36.4989L31.2986 33.6869C31.2207 33.907 31.0637 34.0898 30.8617 34.201L34.2325 41.1098ZM42.1863 39.8138C42.5744 39.9108 42.9145 40.1287 43.1645 40.4251L45.5382 38.4815C45.428 38.3268 45.3633 38.1376 45.3633 37.9333C45.3633 37.86 45.3716 37.7886 45.3874 37.7201L42.186 36.8037V39.7576L42.1863 39.8138ZM45.6013 38.5608L43.2278 40.5043C43.3633 40.6837 43.4673 40.8883 43.5316 41.1098H43.8422H50.5859C50.5859 41.1098 51.3296 41.0929 52.3437 41.1774C52.3477 41.1814 52.4501 41.1901 52.6317 41.2056C53.2176 41.2555 54.6272 41.3756 56.2141 41.6336C56.2141 41.6336 54.4225 41.9208 52.3268 42.0729C52.3268 42.0729 51.4479 42.1574 50.569 42.1405H43.8253H43.5363C43.357 42.78 42.8472 43.2813 42.2027 43.4487L42.2029 43.5086V50.0814C42.2029 50.0814 42.2198 50.808 42.1353 51.8049C42.1353 51.8218 42.0001 53.579 41.6621 55.6066C41.6621 55.6066 41.3579 53.8663 41.2058 51.8049C41.2058 51.8049 41.1213 50.9431 41.1382 50.0814V43.5086L41.1377 43.4136C40.822 43.3088 40.5435 43.1223 40.3272 42.8792L37.2808 45.3736C37.4002 45.532 37.4709 45.729 37.4709 45.9426C37.4709 46.3156 37.255 46.6383 36.9413 46.7924L41.7044 58.0829L58.1412 41.6507V18.3502L41.6624 1.87598H18.4183L21.2639 8.27341C21.3684 8.23367 21.4818 8.21191 21.6003 8.21191C22.0041 8.21191 22.3489 8.46464 22.4849 8.8205L40.5519 3.16326L40.5823 3.26001L22.516 8.91702C22.5363 8.99408 22.5471 9.07497 22.5471 9.15839C22.5471 9.22064 22.541 9.28149 22.5296 9.34038L35.5874 12.675C35.7084 12.2916 36.067 12.0137 36.4904 12.0137C36.605 12.0137 36.7147 12.034 36.8163 12.0712L40.9771 3.15591L41.069 3.19877L36.9096 12.1112C37.2222 12.2658 37.4372 12.5879 37.4372 12.9602C37.4372 13.1393 37.3874 13.3068 37.301 13.4496L41.1213 16.0051V9.98565C41.1213 9.98565 41.1044 9.2422 41.1889 8.2622C41.1889 8.2622 41.3241 6.50494 41.6621 4.46045C41.6621 4.46045 41.9663 6.2008 42.1184 8.2622C42.1184 8.2622 42.2029 9.12392 42.186 9.98565V16.4792C42.7609 16.6229 43.2307 17.0317 43.4579 17.5681L43.7433 17.7591L43.8254 17.7587H50.5691C50.5691 17.7587 51.3127 17.7418 52.3268 17.8263C52.3268 17.8308 52.453 17.8423 52.677 17.8628L52.6772 17.8628L52.6773 17.8628C53.3015 17.9199 54.6846 18.0463 56.2141 18.2825C56.2141 18.2825 54.4226 18.5697 52.3268 18.7218C52.3268 18.7218 51.4479 18.8232 50.5691 18.8063H45.3089L50.9073 22.5512C51.0799 22.319 51.3563 22.1685 51.6679 22.1685C51.9867 22.1685 52.2687 22.326 52.4403 22.5674L57.3499 19.3348L57.4057 19.4195L52.4945 22.6531C52.5711 22.7897 52.6147 22.9472 52.6147 23.1149C52.6147 23.5023 52.382 23.8352 52.0487 23.9818L57.8231 40.0549L57.7276 40.0892L51.9538 24.0175C51.8636 24.046 51.7676 24.0614 51.6679 24.0614C51.5532 24.0614 51.4433 24.041 51.3416 24.0037L46.6749 37.0597C47.0167 37.2025 47.2568 37.5399 47.2568 37.9333C47.2568 38.0016 47.2495 38.0681 47.2358 38.1323L57.7289 40.9384L57.7027 41.0363L47.2093 38.2302C47.0847 38.6075 46.7292 38.8798 46.31 38.8798C46.028 38.8798 45.7747 38.7565 45.6013 38.5608ZM41.1213 16.5241V16.1271L37.2439 13.5334C37.0709 13.7602 36.7978 13.9066 36.4904 13.9066C36.288 13.9066 36.1004 13.8431 35.9465 13.7349L32.934 17.7756H39.9212L39.9275 17.7756C40.0976 17.1891 40.5465 16.721 41.1213 16.5241ZM39.923 18.8063H39.9212H32.1656L28.8514 23.2516C29.0391 23.4094 29.1646 23.6387 29.1859 23.8975L41.1213 23.4578V20.2419V20.0736C40.5413 19.875 40.0896 19.4002 39.923 18.8063ZM43.5362 18.8063C43.3553 19.4511 42.8383 19.9555 42.186 20.1185V20.2419V23.4186L50.7213 23.1041C50.7232 22.9333 50.7703 22.7734 50.8513 22.6357L45.1265 18.8063H43.8254H43.5362ZM43.5179 17.7302L43.5271 17.76L43.5622 17.7598L43.5179 17.7302ZM41.1213 36.3934L31.3272 33.5896C31.3437 33.5195 31.3525 33.4464 31.3525 33.3713C31.3525 32.8486 30.9286 32.4248 30.4057 32.4248C30.3478 32.4248 30.291 32.43 30.2359 32.44L28.4695 24.8953C28.8757 24.7954 29.1787 24.4333 29.1889 23.9988L41.1213 23.5592V36.3934ZM42.186 36.6982L45.4154 37.6227C45.544 37.2525 45.896 36.9868 46.31 36.9868C46.4036 36.9868 46.494 37.0004 46.5794 37.0257L51.2482 23.9636C50.9615 23.8216 50.7571 23.5387 50.7255 23.2054L42.186 23.52V36.6982ZM27.8628 23.109L25.9489 18.8063H32.0391L28.7705 23.1906C28.6196 23.089 28.4379 23.0298 28.2424 23.0298C28.1074 23.0298 27.979 23.058 27.8628 23.109ZM25.4905 17.7756H32.8075L35.8667 13.6722C35.6687 13.4987 35.5437 13.244 35.5437 12.9602C35.5437 12.8961 35.5501 12.8336 35.5622 12.7732L22.5048 9.4387C22.4291 9.68338 22.2567 9.88561 22.0323 10.0008L25.4905 17.7756ZM9.91407 37.1401L1.87646 18.4972V41.4117L9.44837 38.2913C9.41522 38.1948 9.39722 38.0913 9.39722 37.9836C9.39722 37.6156 9.60728 37.2967 9.91407 37.1401ZM18.1254 57.8951L24.5547 52.5146C24.7277 52.7022 24.9756 52.8197 25.2509 52.8197C25.6451 52.8197 25.983 52.5789 26.1255 52.2365L40.3474 57.3292L40.3816 57.2337L26.1593 52.1409C26.1843 52.056 26.1977 51.9662 26.1977 51.8732C26.1977 51.7292 26.1655 51.5927 26.1079 51.4704L35.7074 46.4216C35.8719 46.7013 36.1761 46.8891 36.5241 46.8891C36.6379 46.8891 36.747 46.869 36.848 46.8322L41.6121 58.1249H18.3553L18.1254 57.8951ZM41.6833 58.104L41.6336 58.1249H41.6624L41.6833 58.104Z" fill="white"/>
</svg>
