<svg width="256" height="80" viewBox="0 0 256 80" fill="none" xmlns="http://www.w3.org/2000/svg">
<path d="M41.2601 2.00342H40.3218V77.9979H41.2601V2.00342Z" fill="url(#paint0_radial_1074_254)"/>
<path d="M79.7337 39.5425H1.84058V40.4582H79.7337V39.5425Z" fill="url(#paint1_radial_1074_254)"/>
<path d="M52.3964 77.1375L28.1553 3.16497L29.0487 2.88623L53.2898 76.8587L52.3964 77.1375Z" fill="url(#paint2_radial_1074_254)"/>
<path d="M52.3649 64.8693L28.2332 15.5494L29.0797 15.1548L53.2114 64.4747L52.3649 64.8693Z" fill="url(#paint3_radial_1074_254)"/>
<path d="M52.5525 52.2811L28.2263 28.3884L28.8924 27.7437L53.2186 51.6363L52.5525 52.2811Z" fill="url(#paint4_radial_1074_254)"/>
<path d="M65.7459 52.2796L15.2898 28.5689L15.6976 27.7437L66.1538 51.4544L65.7459 52.2796Z" fill="url(#paint5_radial_1074_254)"/>
<path d="M77.9071 52.2057L3.24805 28.69L3.53633 27.8179L78.1954 51.3342L77.9071 52.2057Z" fill="url(#paint6_radial_1074_254)"/>
<path d="M29.0487 77.0628L28.1553 76.784L52.3964 2.81152L53.2898 3.09027L29.0487 77.0628Z" fill="url(#paint7_radial_1074_254)"/>
<path d="M29.0797 64.7941L28.2332 64.3987L52.3649 15.0796L53.2114 15.4742L29.0797 64.7941Z" fill="url(#paint8_radial_1074_254)"/>
<path d="M28.8924 52.2061L28.2263 51.5614L52.5525 27.668L53.2186 28.3135L28.8924 52.2061Z" fill="url(#paint9_radial_1074_254)"/>
<path d="M15.6976 52.2049L15.2898 51.3804L65.7459 27.6689L66.1538 28.4942L15.6976 52.2049Z" fill="url(#paint10_radial_1074_254)"/>
<path d="M3.53633 52.1315L3.24805 51.2593L77.9071 27.7437L78.1954 28.6151L3.53633 52.1315Z" fill="url(#paint11_radial_1074_254)"/>
<path d="M65.9127 24.4778C65.1853 24.4956 64.4792 24.7277 63.883 25.1449C63.2868 25.5621 62.8268 26.1459 62.5608 26.8232C62.2947 27.5005 62.2344 28.2412 62.3872 28.9527C62.5401 29.6641 62.8994 30.3147 63.4202 30.8229C63.9411 31.3311 64.6002 31.6744 65.3152 31.8099C66.0301 31.9453 66.7692 31.8669 67.4398 31.5843C68.1104 31.3018 68.6827 30.8277 69.0852 30.2215C69.4877 29.6152 69.7025 28.9037 69.7026 28.176C69.689 27.1835 69.2825 26.2368 68.5721 25.5435C67.8616 24.8503 66.9053 24.467 65.9127 24.4778Z" fill="#00CC00"/>
<path d="M65.912 36.133C65.1845 36.151 64.4784 36.3832 63.8822 36.8005C63.286 37.2178 62.8261 37.8016 62.5601 38.479C62.2941 39.1564 62.2339 39.8972 62.3869 40.6087C62.5398 41.3202 62.8993 41.9707 63.4202 42.4789C63.9411 42.9871 64.6003 43.3303 65.3154 43.4656C66.0304 43.601 66.7695 43.5224 67.4401 43.2398C68.1107 42.9571 68.683 42.4829 69.0854 41.8766C69.4879 41.2703 69.7025 40.5587 69.7025 39.8309C69.6888 38.8383 69.2822 37.8917 68.5716 37.1985C67.8611 36.5053 66.9046 36.1221 65.912 36.133Z" fill="#00CC00"/>
<path d="M65.9126 47.9177C65.1851 47.9356 64.4791 48.1677 63.8829 48.5849C63.2867 49.0021 62.8268 49.5858 62.5608 50.2631C62.2947 50.9404 62.2344 51.6812 62.3873 52.3926C62.5401 53.104 62.8995 53.7546 63.4203 54.2628C63.9411 54.771 64.6002 55.1143 65.3152 55.2497C66.0302 55.3851 66.7692 55.3066 67.4398 55.0241C68.1103 54.7415 68.6827 54.2675 69.0852 53.6612C69.4876 53.055 69.7023 52.3435 69.7024 51.6158C69.6888 50.6233 69.2823 49.6767 68.5719 48.9834C67.8614 48.2902 66.9051 47.907 65.9126 47.9177Z" fill="#00CC00"/>
<path d="M15.6607 47.9177C14.9333 47.9357 14.2273 48.1678 13.6311 48.5851C13.035 49.0023 12.5751 49.5861 12.3092 50.2634C12.0432 50.9407 11.9829 51.6814 12.1358 52.3928C12.2888 53.1043 12.6482 53.7548 13.169 54.2629C13.6898 54.7711 14.3489 55.1143 15.0639 55.2497C15.7788 55.3851 16.5179 55.3066 17.1884 55.024C17.859 54.7415 18.4313 54.2674 18.8337 53.6612C19.2362 53.0549 19.4509 52.3435 19.451 51.6158C19.4374 50.6232 19.0308 49.6765 18.3203 48.9832C17.6098 48.29 16.6533 47.9068 15.6607 47.9177Z" fill="#00CC00"/>
<path d="M15.6606 24.4778C14.9332 24.4957 14.2272 24.7279 13.631 25.1451C13.0348 25.5623 12.575 26.1461 12.309 26.8235C12.043 27.5008 11.9827 28.2415 12.1356 28.9529C12.2885 29.6643 12.6479 30.3149 13.1687 30.823C13.6895 31.3312 14.3487 31.6745 15.0636 31.8099C15.7786 31.9453 16.5176 31.8668 17.1882 31.5843C17.8588 31.3017 18.4311 30.8277 18.8336 30.2214C19.236 29.6152 19.4508 28.9037 19.4509 28.176C19.4374 27.1834 19.0308 26.2366 18.3203 25.5433C17.6098 24.85 16.6533 24.4668 15.6606 24.4778Z" fill="#00CC00"/>
<path d="M15.661 36.133C14.9335 36.1509 14.2274 36.3829 13.631 36.8001C13.0347 37.2173 12.5747 37.8011 12.3086 38.4785C12.0425 39.1559 11.9822 39.8967 12.135 40.6082C12.2879 41.3197 12.6473 41.9704 13.1682 42.4786C13.6891 42.9869 14.3483 43.3302 15.0634 43.4656C15.7784 43.601 16.5175 43.5225 17.1882 43.2398C17.8588 42.9572 18.4312 42.483 18.8337 41.8767C19.2361 41.2703 19.4508 40.5587 19.4507 39.8309C19.4371 38.8385 19.0305 37.8919 18.3201 37.1988C17.6097 36.5056 16.6535 36.1224 15.661 36.133Z" fill="#00CC00"/>
<path d="M3.22853 48.3064C2.57753 48.3224 1.94572 48.5302 1.4122 48.9035C0.878674 49.2769 0.467133 49.7994 0.229089 50.4055C-0.00895617 51.0116 -0.0629303 51.6745 0.073925 52.3112C0.21078 52.9478 0.532386 53.53 0.998481 53.9847C1.46458 54.4395 2.05446 54.7467 2.69429 54.8679C3.33412 54.989 3.99547 54.9188 4.59557 54.6659C5.19567 54.413 5.70785 53.9888 6.068 53.4462C6.42815 52.9037 6.62027 52.267 6.62032 51.6158C6.60813 50.7275 6.24425 49.8804 5.60844 49.26C4.97264 48.6396 4.11679 48.2967 3.22853 48.3064Z" fill="#00CC00"/>
<path d="M3.22874 24.8664C2.57782 24.8825 1.9461 25.0903 1.41267 25.4636C0.879229 25.837 0.467762 26.3594 0.229765 26.9655C-0.00823221 27.5715 -0.0621854 28.2343 0.0746546 28.8709C0.211495 29.5075 0.53305 30.0896 0.999077 30.5443C1.4651 30.999 2.0549 31.3062 2.69464 31.4274C3.33439 31.5485 3.99566 31.4783 4.5957 31.2255C5.19575 30.9727 5.7079 30.5486 6.06806 30.0061C6.42822 29.4637 6.62039 28.8271 6.62052 28.176C6.60841 27.2877 6.24456 26.4405 5.60874 25.8201C4.97292 25.1997 4.11703 24.8567 3.22874 24.8664Z" fill="#00CC00"/>
<path d="M3.22856 36.5217C2.57755 36.5378 1.94575 36.7455 1.41224 37.1189C0.87873 37.4924 0.467222 38.0148 0.229225 38.621C-0.00877193 39.2272 -0.062683 39.8901 0.0742407 40.5267C0.211164 41.1634 0.53284 41.7455 0.998999 42.2002C1.46516 42.6549 2.05509 42.962 2.69494 43.0831C3.3348 43.2042 3.99615 43.1338 4.59621 42.8808C5.19626 42.6278 5.70837 42.2034 6.06841 41.6608C6.42846 41.1182 6.62044 40.4814 6.62034 39.8302C6.60805 38.9421 6.2441 38.0951 5.6083 37.4749C4.97249 36.8547 4.1167 36.5119 3.22856 36.5217Z" fill="#00CC00"/>
<path d="M78.3523 31.484C79.0033 31.4679 79.6351 31.2602 80.1686 30.8868C80.702 30.5134 81.1135 29.9909 81.3515 29.3848C81.5895 28.7786 81.6434 28.1157 81.5065 27.4791C81.3695 26.8425 81.0479 26.2604 80.5817 25.8057C80.1156 25.351 79.5257 25.044 78.8858 24.9229C78.246 24.8019 77.5847 24.8723 76.9846 25.1253C76.3846 25.3782 75.8726 25.8026 75.5125 26.3452C75.1525 26.8878 74.9606 27.5246 74.9607 28.1758C74.9728 29.0639 75.3366 29.911 75.9725 30.5312C76.6083 31.1514 77.4642 31.494 78.3523 31.484Z" fill="#00CC00"/>
<path d="M78.3522 48.3064C77.7012 48.3223 77.0693 48.5299 76.5357 48.9032C76.0021 49.2765 75.5905 49.7989 75.3523 50.4051C75.1142 51.0112 75.0601 51.6741 75.1969 52.3108C75.3337 52.9475 75.6552 53.5297 76.1213 53.9845C76.5874 54.4394 77.1772 54.7466 77.8171 54.8678C78.4569 54.989 79.1183 54.9188 79.7185 54.6659C80.3186 54.4131 80.8308 53.9888 81.191 53.4463C81.5512 52.9037 81.7433 52.267 81.7433 51.6158C81.7313 50.7276 81.3676 49.8804 80.7319 49.26C80.0962 48.6397 79.2404 48.2967 78.3522 48.3064Z" fill="#00CC00"/>
<path d="M78.3524 36.5227C77.7013 36.5386 77.0693 36.7462 76.5356 37.1195C76.0019 37.4928 75.5902 38.0153 75.3521 38.6215C75.1139 39.2277 75.0599 39.8907 75.1967 40.5274C75.3335 41.1642 75.6551 41.7465 76.1213 42.2013C76.5874 42.6562 77.1774 42.9634 77.8173 43.0846C78.4573 43.2057 79.1187 43.1354 79.7189 42.8825C80.3191 42.6295 80.8313 42.2051 81.1914 41.6624C81.5515 41.1197 81.7436 40.4829 81.7435 39.8316C81.7314 38.9435 81.3677 38.0964 80.732 37.4761C80.0963 36.8558 79.2405 36.5129 78.3524 36.5227Z" fill="#00CC00"/>
<path d="M40.7907 34.5106C39.7438 34.5363 38.7277 34.8703 37.8696 35.4708C37.0115 36.0712 36.3496 36.9114 35.9668 37.8862C35.584 38.861 35.4972 39.9271 35.7173 40.951C35.9374 41.9749 36.4547 42.9111 37.2043 43.6424C37.954 44.3737 38.9027 44.8677 39.9317 45.0624C40.9608 45.2571 42.0244 45.144 42.9894 44.7372C43.9544 44.3303 44.778 43.6478 45.357 42.7752C45.9361 41.9025 46.2448 40.8785 46.2446 39.8312C46.2251 38.403 45.64 37.0408 44.6176 36.0434C43.5952 35.046 42.219 34.4948 40.7907 34.5106Z" fill="#E20613"/>
<path d="M40.7908 6.61931C41.4418 6.60324 42.0736 6.3955 42.6071 6.0221C43.1406 5.64869 43.5522 5.12622 43.7902 4.52007C44.0282 3.91393 44.0822 3.25103 43.9453 2.61437C43.8084 1.97771 43.4868 1.39557 43.0207 0.940816C42.5545 0.48606 41.9646 0.178896 41.3248 0.0577682C40.6849 -0.0633591 40.0236 0.0069295 39.4235 0.259844C38.8234 0.512758 38.3113 0.937055 37.9511 1.47963C37.591 2.0222 37.3989 2.65895 37.3989 3.31016C37.411 4.19843 37.7748 5.04567 38.4107 5.66603C39.0465 6.28639 39.9025 6.62922 40.7908 6.61931Z" fill="#00CC00"/>
<path d="M40.791 32.4248C41.6267 32.4042 42.4379 32.1376 43.1228 31.6582C43.8078 31.1789 44.3361 30.5082 44.6417 29.7301C44.9473 28.9519 45.0166 28.1009 44.8409 27.2835C44.6652 26.4662 44.2523 25.7189 43.6539 25.135C43.0555 24.5512 42.2982 24.1569 41.4768 24.0014C40.6554 23.8459 39.8063 23.9362 39.036 24.2609C38.2656 24.5856 37.6081 25.1303 37.1458 25.8269C36.6835 26.5234 36.437 27.3409 36.437 28.1769C36.4525 29.3171 36.9196 30.4047 37.7358 31.201C38.552 31.9973 39.6507 32.4374 40.791 32.4248Z" fill="#E20613"/>
<path d="M40.7907 47.3679C39.9549 47.3885 39.1438 47.655 38.4588 48.1343C37.7739 48.6136 37.2455 49.2843 36.9399 50.0624C36.6343 50.8406 36.565 51.6915 36.7406 52.5089C36.9163 53.3262 37.3292 54.0735 37.9276 54.6574C38.5259 55.2412 39.2832 55.6355 40.1046 55.791C40.926 55.9465 41.775 55.8562 42.5454 55.5315C43.3158 55.2068 43.9732 54.6621 44.4355 53.9656C44.8978 53.269 45.1443 52.4516 45.1443 51.6156C45.1286 50.4755 44.6616 49.3881 43.8455 48.5918C43.0293 47.7956 41.9308 47.3555 40.7907 47.3679Z" fill="#E20613"/>
<path d="M40.7908 19.1416C41.5183 19.1237 42.2243 18.8916 42.8205 18.4743C43.4166 18.0571 43.8765 17.4732 44.1424 16.7959C44.4084 16.1186 44.4687 15.3778 44.3157 14.6664C44.1628 13.955 43.8034 13.3045 43.2825 12.7964C42.7616 12.2882 42.1025 11.945 41.3875 11.8097C40.6725 11.6743 39.9335 11.7529 39.2629 12.0355C38.5924 12.3181 38.0201 12.7923 37.6177 13.3986C37.2153 14.0049 37.0007 14.7164 37.0007 15.4441C37.0143 16.4366 37.421 17.3832 38.1315 18.0763C38.8419 18.7694 39.7983 19.1526 40.7908 19.1416Z" fill="#00CC00"/>
<path d="M40.7906 60.8581C40.0631 60.876 39.357 61.1081 38.7607 61.5254C38.1644 61.9426 37.7045 62.5265 37.4384 63.2038C37.1724 63.8812 37.112 64.622 37.265 65.3336C37.4179 66.0451 37.7773 66.6957 38.2982 67.2039C38.8191 67.7121 39.4783 68.0554 40.1934 68.1908C40.9085 68.3262 41.6476 68.2476 42.3182 67.965C42.9888 67.6824 43.5612 67.2082 43.9636 66.6018C44.3661 65.9955 44.5807 65.2839 44.5807 64.5561C44.5672 63.5635 44.1606 62.6169 43.4501 61.9236C42.7396 61.2304 41.7832 60.8472 40.7906 60.8581Z" fill="#00CC00"/>
<path d="M40.7909 73.3816C40.1399 73.3977 39.5082 73.6054 38.9747 73.9789C38.4413 74.3523 38.0298 74.8748 37.7919 75.4809C37.5539 76.0871 37.5001 76.7499 37.637 77.3865C37.774 78.0231 38.0957 78.6052 38.5618 79.0598C39.028 79.5145 39.6179 79.8216 40.2577 79.9426C40.8975 80.0636 41.5588 79.9932 42.1589 79.7402C42.7589 79.4872 43.2709 79.0628 43.6309 78.5202C43.9909 77.9776 44.1828 77.3409 44.1827 76.6897C44.1705 75.8016 43.8065 74.9546 43.1707 74.3344C42.5348 73.7143 41.679 73.3716 40.7909 73.3816Z" fill="#00CC00"/>
<path d="M52.809 6.61931C53.46 6.60326 54.0918 6.39552 54.6254 6.02213C55.1589 5.64874 55.5704 5.12627 55.8085 4.52012C56.0465 3.91397 56.1005 3.25108 55.9636 2.61442C55.8267 1.97775 55.5051 1.3956 55.039 0.940841C54.5729 0.486077 53.983 0.178903 53.3431 0.0577704C52.7033 -0.0633627 52.0419 0.00693348 51.4418 0.259846C50.8417 0.512758 50.3296 0.937055 49.9694 1.47963C49.6093 2.02221 49.4172 2.65895 49.4172 3.31016C49.4293 4.19842 49.7931 5.04564 50.429 5.666C51.0648 6.28636 51.9207 6.62919 52.809 6.61931Z" fill="#00CC00"/>
<path d="M52.8097 44.0805C53.6454 44.06 54.4565 43.7934 55.1414 43.3141C55.8264 42.8349 56.3547 42.1642 56.6604 41.3862C56.966 40.6081 57.0354 39.7572 56.8598 38.9398C56.6842 38.1225 56.2715 37.3752 55.6732 36.7913C55.075 36.2074 54.3178 35.813 53.4964 35.6573C52.6751 35.5017 51.8261 35.5917 51.0557 35.9162C50.2853 36.2407 49.6277 36.7852 49.1653 37.4816C48.7028 38.178 48.456 38.9954 48.4558 39.8313C48.471 40.9717 48.9379 42.0596 49.7542 42.8562C50.5704 43.6528 51.6693 44.0931 52.8097 44.0805Z" fill="#E20613"/>
<path d="M52.8095 23.9285C51.9738 23.949 51.1626 24.2155 50.4776 24.6948C49.7926 25.1741 49.2642 25.8447 48.9586 26.6228C48.6529 27.401 48.5835 28.252 48.7591 29.0693C48.9348 29.8867 49.3476 30.6341 49.9459 31.2179C50.5442 31.8018 51.3015 32.1962 52.1229 32.3518C52.9443 32.5074 53.7934 32.4172 54.5638 32.0926C55.3342 31.7679 55.9917 31.2233 56.4541 30.5268C56.9164 29.8303 57.1631 29.0128 57.1631 28.1768C57.1476 27.0366 56.6806 25.9491 55.8645 25.1527C55.0484 24.3563 53.9498 23.9161 52.8095 23.9285Z" fill="#00CC00"/>
<path d="M52.8095 47.3679C51.9737 47.3885 51.1626 47.655 50.4776 48.1343C49.7927 48.6136 49.2643 49.2843 48.9587 50.0624C48.6531 50.8406 48.5838 51.6915 48.7594 52.5089C48.9351 53.3262 49.348 54.0735 49.9464 54.6574C50.5447 55.2412 51.302 55.6355 52.1234 55.791C52.9448 55.9465 53.7939 55.8562 54.5642 55.5315C55.3346 55.2068 55.992 54.6621 56.4543 53.9656C56.9166 53.269 57.1631 52.4516 57.1631 51.6156C57.1474 50.4755 56.6803 49.3881 55.8642 48.5919C55.0481 47.7956 53.9496 47.3555 52.8095 47.3679Z" fill="#00CC00"/>
<path d="M52.8091 19.1416C53.5365 19.1237 54.2425 18.8915 54.8386 18.4742C55.4348 18.057 55.8946 17.4731 56.1606 16.7958C56.4265 16.1185 56.4868 15.3777 56.3338 14.6663C56.1808 13.9549 55.8214 13.3044 55.3005 12.7963C54.7797 12.2882 54.1205 11.945 53.4055 11.8096C52.6905 11.6743 51.9515 11.7529 51.281 12.0355C50.6104 12.3182 50.0382 12.7923 49.6358 13.3986C49.2334 14.0049 49.0188 14.7164 49.0188 15.4441C49.0323 16.4366 49.439 17.3833 50.1495 18.0764C50.86 18.7696 51.8165 19.1527 52.8091 19.1416Z" fill="#00CC00"/>
<path d="M52.8091 73.3816C52.1582 73.3976 51.5264 73.6054 50.9929 73.9788C50.4594 74.3522 50.048 74.8747 49.81 75.4808C49.572 76.087 49.5181 76.7498 49.6551 77.3864C49.792 78.023 50.1137 78.6051 50.5798 79.0598C51.046 79.5145 51.6359 79.8215 52.2757 79.9426C52.9156 80.0636 53.5769 79.9932 54.1769 79.7402C54.7769 79.4872 55.289 79.0629 55.649 78.5202C56.009 77.9776 56.2009 77.3409 56.2008 76.6897C56.1886 75.8016 55.8246 74.9546 55.1888 74.3345C54.553 73.7143 53.6972 73.3716 52.8091 73.3816Z" fill="#00CC00"/>
<path d="M52.8092 60.8581C52.0816 60.876 51.3755 61.1081 50.7793 61.5254C50.183 61.9426 49.723 62.5265 49.457 63.2038C49.1909 63.8812 49.1306 64.622 49.2835 65.3336C49.4365 66.0451 49.7959 66.6956 50.3168 67.2039C50.8377 67.7121 51.4969 68.0554 52.2119 68.1908C52.927 68.3262 53.6661 68.2476 54.3367 67.965C55.0074 67.6824 55.5797 67.2082 55.9822 66.6018C56.3846 65.9955 56.5993 65.2839 56.5993 64.5561C56.5857 63.5635 56.1791 62.6169 55.4686 61.9237C54.7581 61.2305 53.8017 60.8473 52.8092 60.8581Z" fill="#00CC00"/>
<path d="M28.7726 6.61932C29.4236 6.60322 30.0554 6.39546 30.5889 6.02204C31.1224 5.64862 31.5339 5.12614 31.7719 4.51998C32.0099 3.91383 32.0639 3.25094 31.927 2.61429C31.7901 1.97764 31.4684 1.39551 31.0023 0.94077C30.5362 0.486028 29.9463 0.178871 29.3064 0.057756C28.6666 -0.0633594 28.0052 0.00694549 27.4052 0.259865C26.8051 0.512785 26.2929 0.937078 25.9328 1.47965C25.5727 2.02222 25.3806 2.65897 25.3806 3.31017C25.3927 4.19846 25.7565 5.04571 26.3924 5.66607C27.0283 6.28643 27.8843 6.62925 28.7726 6.61932Z" fill="#00CC00"/>
<path d="M28.7727 23.9285C27.9369 23.949 27.1258 24.2155 26.4408 24.6948C25.7558 25.1741 25.2274 25.8447 24.9217 26.6228C24.616 27.401 24.5466 28.252 24.7223 29.0693C24.8979 29.8867 25.3107 30.6341 25.909 31.2179C26.5074 31.8018 27.2646 32.1962 28.086 32.3518C28.9074 32.5074 29.7565 32.4172 30.5269 32.0926C31.2973 31.7679 31.9548 31.2233 32.4172 30.5268C32.8796 29.8303 33.1262 29.0128 33.1262 28.1768C33.1106 27.0367 32.6436 25.9492 31.8275 25.1529C31.0114 24.3565 29.9129 23.9162 28.7727 23.9285Z" fill="#00CC00"/>
<path d="M28.7728 47.3679C27.9371 47.3885 27.126 47.655 26.441 48.1343C25.7561 48.6136 25.2277 49.2843 24.9221 50.0624C24.6164 50.8405 24.5471 51.6915 24.7228 52.5089C24.8985 53.3262 25.3114 54.0735 25.9097 54.6574C26.5081 55.2412 27.2654 55.6355 28.0868 55.791C28.9082 55.9465 29.7572 55.8562 30.5276 55.5315C31.2979 55.2068 31.9554 54.6621 32.4177 53.9656C32.88 53.269 33.1265 52.4516 33.1264 51.6156C33.1107 50.4755 32.6436 49.3882 31.8275 48.592C31.0114 47.7958 29.9129 47.3556 28.7728 47.3679Z" fill="#00CC00"/>
<path d="M28.7727 35.5842C27.9369 35.6047 27.1257 35.8713 26.4406 36.3507C25.7556 36.83 25.2272 37.5007 24.9216 38.2789C24.6159 39.0571 24.5466 39.9082 24.7224 40.7256C24.8981 41.5429 25.3111 42.2903 25.9095 42.8742C26.508 43.458 27.2654 43.8523 28.0869 44.0077C28.9083 44.1631 29.7574 44.0728 30.5278 43.7479C31.2982 43.4231 31.9556 42.8783 32.4179 42.1816C32.8801 41.4849 33.1265 40.6673 33.1263 39.8313C33.1104 38.6913 32.6432 37.6041 31.8272 36.808C31.0111 36.0119 29.9127 35.5718 28.7727 35.5842Z" fill="#E20613"/>
<path d="M28.7728 19.1417C29.5002 19.1235 30.2061 18.8912 30.8022 18.4738C31.3982 18.0565 31.8579 17.4726 32.1237 16.7952C32.3895 16.1179 32.4497 15.3772 32.2966 14.6658C32.1435 13.9545 31.784 13.3041 31.2631 12.796C30.7422 12.288 30.0831 11.9448 29.3681 11.8096C28.6531 11.6743 27.9142 11.753 27.2437 12.0356C26.5732 12.3183 26.001 12.7924 25.5986 13.3987C25.1963 14.005 24.9817 14.7164 24.9817 15.4441C24.9952 16.4368 25.4019 17.3836 26.1127 18.0768C26.8234 18.77 27.7801 19.1529 28.7728 19.1417Z" fill="#00CC00"/>
<path d="M28.773 73.3816C28.1221 73.3977 27.4903 73.6055 26.9569 73.9789C26.4234 74.3524 26.012 74.8748 25.774 75.481C25.5361 76.0871 25.4822 76.75 25.6192 77.3866C25.7562 78.0232 26.0779 78.6052 26.544 79.0599C27.0102 79.5145 27.6001 79.8216 28.2399 79.9426C28.8798 80.0636 29.5411 79.9932 30.1411 79.7402C30.7411 79.4872 31.2531 79.0628 31.6131 78.5202C31.9731 77.9776 32.165 77.3409 32.1649 76.6897C32.1526 75.8016 31.7887 74.9546 31.1528 74.3344C30.517 73.7143 29.6612 73.3716 28.773 73.3816Z" fill="#00CC00"/>
<path d="M28.7728 60.8581C28.0452 60.876 27.3391 61.1081 26.7429 61.5254C26.1466 61.9426 25.6867 62.5265 25.4206 63.2038C25.1546 63.8812 25.0942 64.622 25.2472 65.3335C25.4001 66.0451 25.7595 66.6956 26.2804 67.2039C26.8013 67.7121 27.4605 68.0554 28.1756 68.1908C28.8906 68.3262 29.6297 68.2476 30.3004 67.965C30.971 67.6823 31.5434 67.2082 31.9458 66.6018C32.3482 65.9955 32.5629 65.2838 32.5629 64.5561C32.5491 63.5636 32.1425 62.6171 31.432 61.9239C30.7216 61.2307 29.7653 60.8475 28.7728 60.8581Z" fill="#00CC00"/>
<path d="M120.8 23.0043C119.771 22.9812 118.747 23.1647 117.79 23.544C116.832 23.9232 115.961 24.4906 115.226 25.2125C115.215 25.2242 115.203 25.2347 115.193 25.2439C115.187 25.2385 115.181 25.2326 115.175 25.2263C114.447 24.4907 113.575 23.9135 112.614 23.5311C111.652 23.1487 110.622 22.9694 109.588 23.0043C107.597 22.9792 105.671 23.71 104.198 25.049C102.659 26.424 101.878 28.3489 101.878 30.7726V47.6275C101.873 47.9015 101.933 48.1728 102.053 48.4191C102.173 48.6654 102.35 48.8796 102.569 49.0441C102.984 49.3472 103.484 49.5105 103.997 49.5105C104.51 49.5105 105.01 49.3472 105.425 49.0441C105.644 48.8798 105.821 48.6657 105.942 48.4194C106.062 48.1731 106.122 47.9017 106.117 47.6275V30.7726C106.117 29.5555 106.439 28.6691 107.104 28.0624C107.794 27.467 108.676 27.1395 109.588 27.1395C110.5 27.1395 111.382 27.467 112.072 28.0624C112.736 28.6691 113.059 29.5555 113.059 30.7726V47.6275C113.054 47.9016 113.113 48.1729 113.234 48.4192C113.354 48.6655 113.531 48.8797 113.75 49.0441C114.164 49.3472 114.664 49.5106 115.178 49.5106C115.691 49.5106 116.191 49.3472 116.605 49.0441C116.825 48.8798 117.002 48.6656 117.122 48.4193C117.243 48.173 117.303 47.9016 117.298 47.6275V30.7726C117.298 29.5394 117.623 28.6497 118.292 28.0541C118.981 27.4396 119.878 27.1123 120.8 27.1395C121.717 27.1122 122.609 27.4433 123.285 28.0624C123.948 28.6691 124.271 29.5555 124.271 30.7726V47.6275C124.266 47.9016 124.326 48.1729 124.446 48.4192C124.567 48.6655 124.744 48.8796 124.963 49.0441C125.377 49.3472 125.877 49.5106 126.391 49.5106C126.904 49.5106 127.404 49.3472 127.819 49.0441C128.038 48.8797 128.215 48.6655 128.335 48.4192C128.455 48.1729 128.515 47.9016 128.51 47.6275V30.7726C128.51 28.35 127.729 26.4248 126.189 25.0491C124.717 23.7099 122.791 22.9791 120.8 23.0043Z" fill="#00CC00"/>
<path d="M139.631 28.7755C140.592 27.7581 141.872 27.2636 143.541 27.2636C144.1 27.279 144.655 27.363 145.193 27.5138C145.713 27.6783 146.25 27.7804 146.794 27.818L146.866 27.8152C147.336 27.7751 148.189 27.5285 148.616 26.3207C148.795 25.9049 148.807 25.4364 148.651 25.0118C148.494 24.5871 148.181 24.2384 147.776 24.0376C146.705 23.4338 145.28 23.1279 143.541 23.1279C140.707 23.1279 138.37 24.0575 136.593 25.8916C134.83 27.7116 133.936 30.0378 133.936 32.8066V40.1713C133.936 42.9399 134.83 45.2666 136.593 47.0865C138.369 48.9203 140.707 49.8499 143.541 49.8499C145.28 49.8499 146.705 49.5445 147.766 48.9465C148.174 48.7466 148.49 48.3976 148.648 47.9715C148.806 47.5455 148.795 47.075 148.616 46.6571C148.188 45.4503 147.337 45.2031 146.867 45.1631L146.794 45.1597C146.25 45.1973 145.713 45.2994 145.193 45.4639C144.655 45.615 144.1 45.6991 143.541 45.7146C141.871 45.7146 140.592 45.2195 139.631 44.2014C138.651 43.1652 138.175 41.8467 138.175 40.1713V39.0314C138.167 38.9711 138.172 38.9098 138.19 38.8515C138.208 38.7933 138.238 38.7394 138.277 38.6935C138.303 38.6633 138.336 38.6394 138.372 38.6237C138.409 38.6081 138.448 38.601 138.488 38.6031H140.573C140.85 38.6097 141.126 38.5521 141.378 38.4349C141.63 38.3177 141.851 38.144 142.025 37.9272C142.334 37.5289 142.502 37.0388 142.502 36.5344C142.502 36.03 142.334 35.54 142.024 35.1418C141.85 34.9256 141.629 34.7523 141.377 34.6354C141.125 34.5185 140.85 34.4611 140.572 34.4676H138.488C138.447 34.4702 138.405 34.4636 138.367 34.4484C138.328 34.4332 138.293 34.4097 138.265 34.3795C138.235 34.3525 138.211 34.3189 138.195 34.2812C138.179 34.2436 138.172 34.2029 138.175 34.1622V32.8066C138.175 31.1313 138.651 29.8125 139.631 28.7755Z" fill="#00CC00"/>
<path d="M167.682 25.3493C166.771 24.5941 165.735 24.0035 164.621 23.604C163.496 23.2027 162.31 22.9985 161.115 23.0004H155.998C155.483 22.9903 154.979 23.1549 154.57 23.4674C154.351 23.6318 154.174 23.8459 154.053 24.0922C153.933 24.3384 153.873 24.6096 153.878 24.8836V47.1615C153.873 47.4355 153.933 47.7069 154.053 47.9532C154.174 48.1995 154.351 48.4137 154.57 48.5781C154.98 48.8904 155.483 49.0548 155.998 49.0442H161.115C162.31 49.0464 163.496 48.8422 164.621 48.4405C165.735 48.0414 166.771 47.4511 167.682 46.6962C168.663 45.8589 169.428 44.7982 169.914 43.6034C170.464 42.2702 170.738 40.8391 170.719 39.3968V32.6478C170.738 31.2056 170.464 29.7745 169.914 28.4412C169.428 27.2467 168.663 26.1864 167.682 25.3493ZM166.481 32.6478V39.3968C166.481 41.2325 165.978 42.5764 164.947 43.504C163.898 44.4482 162.525 44.9513 161.115 44.9086H158.117V27.1363H161.115C162.525 27.0934 163.898 27.5966 164.947 28.5409C165.978 29.4686 166.481 30.812 166.481 32.6478Z" fill="#00CC00"/>
<path d="M180.026 23.8097C179.612 23.5066 179.112 23.3432 178.599 23.3433C178.085 23.3434 177.585 23.5069 177.171 23.8102C176.952 23.9747 176.775 24.1889 176.655 24.4351C176.535 24.6813 176.475 24.9525 176.48 25.2264V47.6274C176.475 47.9014 176.535 48.1727 176.655 48.4189C176.775 48.6652 176.952 48.8795 177.171 49.044C177.585 49.3471 178.085 49.5105 178.599 49.5105C179.112 49.5105 179.612 49.3471 180.026 49.044C180.246 48.8797 180.423 48.6656 180.544 48.4193C180.664 48.173 180.724 47.9016 180.719 47.6274V25.2264C180.724 24.9523 180.664 24.6809 180.543 24.4346C180.423 24.1883 180.246 23.9741 180.026 23.8097Z" fill="#00CC00"/>
<path d="M205.642 23.8102C205.227 23.5068 204.727 23.3432 204.213 23.3433C203.699 23.3433 203.199 23.507 202.784 23.8105C202.566 23.9754 202.389 24.1896 202.269 24.4357C202.149 24.6818 202.09 24.9527 202.094 25.2264V34.4049H191.362V25.2264C191.367 24.9524 191.307 24.681 191.187 24.4347C191.066 24.1884 190.889 23.9742 190.67 23.8097C190.256 23.5065 189.756 23.3432 189.242 23.3433C188.729 23.3434 188.229 23.5069 187.815 23.8102C187.596 23.9745 187.418 24.1886 187.298 24.4348C187.178 24.6811 187.118 24.9524 187.123 25.2264V47.6274C187.118 47.9015 187.178 48.1729 187.298 48.4192C187.418 48.6655 187.596 48.8797 187.815 49.044C188.229 49.3471 188.729 49.5105 189.243 49.5105C189.756 49.5105 190.256 49.3471 190.67 49.044C190.889 48.8796 191.066 48.6654 191.187 48.4191C191.307 48.1728 191.367 47.9015 191.362 47.6274V38.5408H202.094V47.6275C202.089 47.9014 202.149 48.1726 202.27 48.4189C202.39 48.6651 202.566 48.8794 202.785 49.044C203.2 49.3471 203.7 49.5105 204.213 49.5105C204.727 49.5105 205.227 49.3471 205.641 49.044C205.86 48.8795 206.037 48.6653 206.157 48.4191C206.278 48.1728 206.338 47.9015 206.332 47.6275V25.2264C206.338 24.9526 206.278 24.6814 206.158 24.4352C206.037 24.189 205.861 23.9748 205.642 23.8102Z" fill="#00CC00"/>
<path d="M230.876 23.8097C230.462 23.5066 229.962 23.3432 229.448 23.3433C228.935 23.3434 228.435 23.5069 228.021 23.8102C227.802 23.9747 227.625 24.1888 227.504 24.435C227.384 24.6812 227.324 24.9525 227.329 25.2264V40.1402C227.329 41.9763 226.827 43.3202 225.794 44.2475C224.723 45.1524 223.366 45.6499 221.964 45.6522C220.561 45.6545 219.203 45.1615 218.128 44.2601C217.098 43.3436 216.597 41.9753 216.597 40.0784V25.2264C216.602 24.9523 216.542 24.6809 216.422 24.4346C216.302 24.1883 216.124 23.9741 215.905 23.8097C215.491 23.5066 214.991 23.3432 214.477 23.3433C213.964 23.3434 213.464 23.5069 213.05 23.8102C212.83 23.9747 212.653 24.1888 212.533 24.435C212.413 24.6812 212.352 24.9524 212.357 25.2264V40.1402C212.357 43.1774 213.325 45.575 215.234 47.2674C217.096 48.8919 219.483 49.7872 221.954 49.7876C224.425 49.788 226.812 48.8935 228.674 47.2695C230.594 45.5769 231.568 43.1785 231.568 40.1402V25.2264C231.573 24.9524 231.513 24.6809 231.393 24.4346C231.273 24.1883 231.095 23.9741 230.876 23.8097Z" fill="#00CC00"/>
<path d="M252.793 36.076C253.527 34.7672 253.907 33.2899 253.897 31.7895C253.919 29.5944 253.083 27.4773 251.569 25.8882C250.002 24.1997 247.787 23.3434 244.988 23.3434H239.713C239.436 23.3406 239.161 23.3927 238.904 23.4966C238.646 23.6004 238.412 23.754 238.215 23.9485C238.017 24.1371 237.86 24.3642 237.753 24.6157C237.647 24.8672 237.592 25.1379 237.594 25.4111V47.1963C237.592 47.4695 237.647 47.7402 237.753 47.9918C237.86 48.2433 238.017 48.4704 238.215 48.659C238.412 48.8536 238.646 49.0073 238.903 49.1111C239.161 49.215 239.436 49.267 239.713 49.2641H247.357C249.842 49.2641 251.816 48.4968 253.226 46.9823C254.585 45.5659 255.337 43.6742 255.32 41.7113C255.32 39.6153 254.467 37.7179 252.793 36.076ZM247.357 45.1288H241.833V38.3253H247.041C249.684 38.3253 250.931 39.3774 251.081 41.735C251.093 42.1825 251.016 42.6279 250.856 43.0457C250.696 43.4636 250.454 43.8457 250.146 44.1701C249.536 44.8152 248.623 45.1288 247.357 45.1288ZM248.919 34.3141C248.403 34.2303 247.881 34.1887 247.357 34.1897H241.833L241.834 27.4793H244.988C246.551 27.4793 247.69 27.8823 248.47 28.7123C248.862 29.1213 249.168 29.6038 249.372 30.132C249.577 30.6601 249.674 31.2235 249.66 31.7895C249.674 32.6866 249.416 33.567 248.919 34.3141Z" fill="#00CC00"/>
<path d="M104.263 56.4894H103.726C102.778 56.4894 102.304 56.2087 102.305 55.6473C102.305 55.0822 102.735 54.7997 103.595 54.7998H106.75C107.611 54.7998 108.041 55.0823 108.041 55.6473C108.041 56.2088 107.565 56.4894 106.614 56.4894H106.077V61.575C106.077 62.4319 105.775 62.8602 105.17 62.8601C104.565 62.8601 104.263 62.4317 104.263 61.575L104.263 56.4894Z" fill="#E20613"/>
<path d="M110.338 59.5403V61.5723C110.338 62.4306 110.035 62.8597 109.43 62.8595C108.825 62.8595 108.522 62.4311 108.522 61.5745V55.9857C108.522 55.1254 108.825 54.6953 109.43 54.6953C110.035 54.6953 110.338 55.1254 110.338 55.9857V57.8669H113.673V55.9857C113.673 55.1254 113.976 54.6953 114.581 54.6953C115.186 54.6953 115.489 55.1254 115.489 55.9857V61.5745C115.489 62.4313 115.186 62.8597 114.581 62.8595C113.976 62.8595 113.673 62.4304 113.673 61.5723V59.5403H110.338Z" fill="#E20613"/>
<path d="M116.506 58.786C116.46 57.6944 116.824 56.625 117.528 55.7894C117.905 55.405 118.355 55.0997 118.851 54.8912C119.347 54.6828 119.88 54.5754 120.418 54.5754C120.957 54.5754 121.489 54.6828 121.986 54.8912C122.482 55.0997 122.932 55.405 123.308 55.7894C123.975 56.6472 124.336 57.7025 124.336 58.7888C124.336 59.875 123.975 60.9303 123.308 61.7881C122.931 62.1709 122.481 62.4749 121.985 62.6823C121.488 62.8898 120.956 62.9966 120.418 62.9966C119.881 62.9966 119.348 62.8898 118.852 62.6823C118.356 62.4749 117.906 62.1709 117.528 61.7881C116.824 60.9507 116.459 59.8794 116.506 58.786ZM120.41 53.6949L119.437 54.2855C119.284 54.3879 119.107 54.4465 118.923 54.455C118.57 54.455 118.393 54.2636 118.392 53.8808C118.397 53.7608 118.43 53.6436 118.489 53.539C118.548 53.4343 118.631 53.3453 118.732 53.2794L119.951 52.3278C120.076 52.2119 120.24 52.1475 120.41 52.1475C120.58 52.1475 120.744 52.2119 120.869 52.3278L122.089 53.2794C122.19 53.3453 122.273 53.4343 122.332 53.539C122.391 53.6436 122.424 53.7608 122.429 53.8808C122.429 54.2636 122.252 54.455 121.898 54.455C121.714 54.4465 121.536 54.3879 121.384 54.2855L120.41 53.6949ZM118.48 58.808C118.457 59.3998 118.613 59.9847 118.928 60.4867C119.094 60.7264 119.316 60.9222 119.575 61.0574C119.834 61.1926 120.121 61.2632 120.413 61.2632C120.705 61.2632 120.992 61.1926 121.251 61.0574C121.51 60.9222 121.732 60.7264 121.898 60.4867C122.213 59.9848 122.369 59.3998 122.346 58.808C122.369 58.2071 122.218 57.6124 121.909 57.0962C121.744 56.8506 121.522 56.6492 121.261 56.51C121 56.3707 120.709 56.2979 120.413 56.2979C120.117 56.2979 119.826 56.3707 119.565 56.51C119.304 56.6492 119.081 56.8506 118.917 57.0962C118.609 57.6125 118.457 58.2071 118.48 58.808H118.48Z" fill="#E20613"/>
<path d="M126.262 62.8599C125.656 62.8599 125.354 62.4316 125.354 61.5749V55.9206C125.354 55.1113 125.634 54.7066 126.195 54.7066C126.39 54.7207 126.579 54.7813 126.747 54.8833C126.914 54.9853 127.054 55.1258 127.156 55.293L130.505 59.7187V55.9952C130.505 55.1361 130.807 54.7066 131.412 54.7065C132.018 54.7065 132.32 55.1362 132.32 55.9955V61.7788C132.32 62.5325 132.043 62.9093 131.489 62.9093C131.276 62.8877 131.071 62.8166 130.891 62.7017C130.71 62.5868 130.559 62.4312 130.45 62.2475L127.169 57.9112V61.5749C127.169 62.4318 126.867 62.8601 126.262 62.8599Z" fill="#E20613"/>
<path d="M138.905 59.6605H138.374C137.452 59.6605 136.991 59.3789 136.991 58.8156C136.991 58.2487 137.416 57.9652 138.265 57.9652H139.599C139.944 57.9353 140.288 58.0347 140.565 58.2442C140.677 58.3707 140.762 58.519 140.814 58.68C140.866 58.8409 140.885 59.0109 140.868 59.1792C140.89 59.6806 140.812 60.1813 140.639 60.6524C140.466 61.1235 140.202 61.5558 139.861 61.9243C139.51 62.283 139.086 62.5638 138.619 62.7484C138.152 62.933 137.651 63.0174 137.149 62.9961C136.615 63.0163 136.084 62.914 135.596 62.6969C135.108 62.4799 134.676 62.1538 134.333 61.7439C133.651 60.908 133.298 59.8523 133.338 58.7745C133.283 57.6627 133.662 56.5729 134.393 55.7342C134.776 55.3379 135.239 55.0284 135.751 54.8265C136.263 54.6246 136.813 54.535 137.363 54.5639C138.089 54.5406 138.809 54.7154 139.443 55.0697C140.01 55.407 140.293 55.7908 140.294 56.2209C140.294 56.4385 140.214 56.6488 140.07 56.8115C140.004 56.8937 139.921 56.9601 139.826 57.0055C139.732 57.051 139.628 57.0744 139.523 57.0739C139.204 56.9862 138.899 56.8555 138.615 56.6856C138.213 56.4565 137.764 56.3237 137.302 56.2974C137.004 56.2817 136.707 56.3417 136.438 56.4717C136.17 56.6018 135.939 56.7977 135.766 57.0411C135.437 57.5454 135.274 58.1402 135.301 58.7417C135.277 59.3508 135.437 59.953 135.76 60.4698C135.924 60.7238 136.152 60.9305 136.421 61.0695C136.689 61.2086 136.989 61.2752 137.291 61.2627C137.504 61.273 137.717 61.2397 137.917 61.165C138.117 61.0902 138.299 60.9755 138.454 60.8279C138.602 60.6726 138.718 60.4895 138.795 60.2892C138.873 60.0888 138.91 59.8752 138.905 59.6605Z" fill="#E20613"/>
<path d="M146.478 56.4894H145.942C144.994 56.4894 144.52 56.2087 144.521 55.6473C144.521 55.0822 144.951 54.7997 145.811 54.7998H148.966C149.826 54.7998 150.256 55.0823 150.256 55.6473C150.256 56.2088 149.781 56.4894 148.829 56.4894H148.293V61.575C148.293 62.4319 147.991 62.8602 147.386 62.8601C146.781 62.8601 146.478 62.4317 146.478 61.575L146.478 56.4894Z" fill="#E20613"/>
<path d="M152.597 61.5745C152.597 62.4313 152.294 62.8597 151.689 62.8595C151.084 62.8595 150.782 62.4311 150.782 61.5745V55.9857C150.782 55.1254 151.084 54.6953 151.689 54.6953C152.294 54.6953 152.597 55.1254 152.597 55.9857V61.5745Z" fill="#E20613"/>
<path d="M154.959 62.8599C154.354 62.8599 154.052 62.4316 154.052 61.5749V55.9206C154.052 55.1113 154.332 54.7066 154.893 54.7066C155.088 54.7206 155.278 54.7812 155.445 54.8832C155.612 54.9852 155.752 55.1257 155.854 55.293L159.203 59.7187V55.9952C159.203 55.1361 159.506 54.7066 160.111 54.7065C160.716 54.7065 161.019 55.1362 161.019 55.9955V61.7788C161.019 62.5325 160.742 62.9093 160.187 62.9093C159.974 62.8879 159.77 62.8168 159.589 62.7019C159.409 62.587 159.258 62.4313 159.148 62.2475L155.867 57.9112V61.5749C155.867 62.4318 155.565 62.8601 154.959 62.8599Z" fill="#E20613"/>
<path d="M170.653 54.6794C170.756 54.6811 170.858 54.7035 170.952 54.7455C171.046 54.7874 171.13 54.848 171.2 54.9235C171.276 54.9928 171.338 55.077 171.38 55.1709C171.422 55.2648 171.445 55.3664 171.447 55.4695C171.397 55.8094 171.253 56.1285 171.031 56.391L169.194 59.0104V61.575C169.194 62.4319 168.893 62.8602 168.292 62.86C167.686 62.86 167.384 62.4317 167.384 61.575V59.0104L165.546 56.4128C165.326 56.1482 165.186 55.8266 165.142 55.4853C165.139 55.3739 165.162 55.2634 165.209 55.1621C165.255 55.0608 165.324 54.9712 165.41 54.9001C165.577 54.7531 165.794 54.6743 166.017 54.6794C166.312 54.6794 166.621 54.9164 166.946 55.3904L168.3 57.3323L169.679 55.3672C170 54.9085 170.325 54.6793 170.653 54.6794Z" fill="#E20613"/>
<path d="M176.499 56.4894H175.963C175.016 56.4894 174.542 56.2087 174.542 55.6473C174.542 55.0822 174.972 54.7997 175.832 54.7998H178.988C179.848 54.7998 180.278 55.0823 180.278 55.6473C180.278 56.2088 179.803 56.4894 178.851 56.4894H178.315V61.575C178.315 62.4319 178.012 62.8602 177.407 62.8601C176.802 62.8601 176.499 62.4317 176.499 61.575L176.499 56.4894Z" fill="#E20613"/>
<path d="M184.051 54.7993C184.911 54.7993 185.341 55.0837 185.341 55.6524C185.341 56.2101 184.911 56.4889 184.051 56.4889H182.575V57.9108H183.849C184.709 57.9108 185.14 58.1906 185.14 58.7502C185.14 59.3061 184.71 59.5841 183.849 59.5842H182.575V61.0879H184.106C184.966 61.0879 185.396 61.3659 185.396 61.9218C185.396 62.4815 184.966 62.7613 184.106 62.7612H181.99C181.658 62.7944 181.325 62.7154 181.044 62.537C180.934 62.4123 180.853 62.2662 180.804 62.1079C180.755 61.9496 180.739 61.7828 180.759 61.6183V56.0734C180.722 55.7199 180.82 55.3656 181.033 55.0809C181.309 54.8624 181.661 54.7613 182.011 54.7993H184.051ZM182.957 53.6946L181.984 54.2852C181.831 54.3876 181.654 54.4462 181.47 54.4547C181.116 54.4547 180.94 54.2633 180.94 53.8805C180.944 53.7606 180.978 53.6434 181.036 53.5388C181.095 53.4342 181.178 53.3452 181.278 53.2791L182.498 52.3275C182.623 52.2116 182.787 52.1472 182.958 52.1472C183.128 52.1472 183.292 52.2116 183.417 52.3275L184.636 53.2791C184.736 53.345 184.82 53.434 184.879 53.5387C184.938 53.6433 184.971 53.7605 184.975 53.8805C184.975 54.2633 184.799 54.4547 184.445 54.4547C184.261 54.4463 184.083 54.3877 183.931 54.2852L182.957 53.6946ZM181.941 52.0706C181.858 52.0821 181.773 52.0741 181.694 52.0473C181.615 52.0205 181.543 51.9756 181.484 51.9161C181.425 51.8567 181.381 51.7844 181.354 51.7048C181.328 51.6253 181.321 51.5408 181.333 51.458C181.343 51.2778 181.411 51.1055 181.525 50.9659L182.34 49.8448C182.408 49.7363 182.502 49.6465 182.614 49.5835C182.726 49.5205 182.851 49.4863 182.98 49.484C183.164 49.4806 183.342 49.5492 183.477 49.6753C183.544 49.7357 183.598 49.81 183.634 49.8931C183.67 49.9762 183.687 50.0661 183.685 50.1566C183.672 50.3953 183.568 50.6201 183.395 50.7854L182.542 51.726C182.471 51.8222 182.381 51.9025 182.278 51.9619C182.174 52.0212 182.059 52.0582 181.941 52.0706Z" fill="#E20613"/>
<path d="M194.748 62.0996C194.055 62.7136 193.151 63.035 192.227 62.9962C191.54 63.018 190.87 62.7798 190.351 62.3292C190.094 62.1067 189.891 61.8297 189.754 61.5185C189.618 61.2073 189.553 60.8697 189.564 60.5301C189.564 59.4947 190.176 58.6781 191.401 58.0802C190.947 57.6534 190.674 57.0678 190.641 56.4452C190.634 56.1681 190.697 55.8937 190.826 55.6478C190.954 55.4019 191.142 55.1927 191.374 55.0397C191.833 54.7208 192.383 54.5579 192.943 54.575C193.513 54.5571 194.073 54.7303 194.534 55.0671C194.764 55.2326 194.949 55.4517 195.073 55.7053C195.198 55.9589 195.259 56.2393 195.251 56.5218C195.251 57.3385 194.8 58.0184 193.9 58.5615L194.978 59.8561C195.259 59.5085 195.449 59.2852 195.548 59.1864C195.732 58.961 195.994 58.8139 196.282 58.7746C196.376 58.7728 196.468 58.7919 196.553 58.8308C196.638 58.8696 196.713 58.9271 196.773 58.9989C196.901 59.1436 196.97 59.3308 196.967 59.5239C196.967 59.8703 196.63 60.3552 195.956 60.9785C196.419 61.5143 196.651 61.9099 196.65 62.1651C196.653 62.2662 196.636 62.3667 196.599 62.4607C196.561 62.5547 196.505 62.6402 196.434 62.712C196.364 62.7839 196.279 62.8405 196.185 62.8781C196.092 62.9157 195.991 62.9336 195.89 62.9307C195.599 62.9307 195.218 62.6536 194.748 62.0996ZM193.807 60.9347L192.353 59.2559C191.696 59.5585 191.368 59.9723 191.368 60.4972C191.362 60.6371 191.386 60.7767 191.437 60.9071C191.488 61.0375 191.565 61.1559 191.665 61.2546C191.767 61.3513 191.889 61.4264 192.021 61.4757C192.153 61.525 192.294 61.5475 192.435 61.5417C192.952 61.5181 193.442 61.3015 193.807 60.9347ZM192.921 57.4842C193.512 57.2436 193.807 56.9228 193.807 56.5218C193.806 56.4259 193.783 56.3315 193.739 56.2461C193.695 56.1607 193.632 56.0866 193.555 56.0295C193.406 55.906 193.219 55.8383 193.025 55.8382C192.842 55.8347 192.663 55.8968 192.522 56.0131C192.451 56.0702 192.394 56.1427 192.355 56.2251C192.316 56.3075 192.297 56.3977 192.298 56.4888C192.298 56.7733 192.506 57.1051 192.921 57.4842Z" fill="#E20613"/>
<path d="M206.587 60.2974C206.603 60.6815 206.527 61.0638 206.365 61.4126C206.204 61.7613 205.961 62.0665 205.657 62.3025C205.036 62.7676 204.273 63.0049 203.497 62.9746C202.867 62.9937 202.24 62.8615 201.671 62.5891C201.171 62.3321 200.921 62.034 200.922 61.695C200.916 61.5804 200.936 61.4661 200.982 61.3609C201.027 61.2556 201.096 61.1622 201.184 61.0879C201.363 60.9431 201.589 60.8692 201.819 60.8803C202.108 60.9161 202.392 60.9839 202.666 61.0825C203.017 61.2021 203.383 61.2702 203.754 61.2848C203.986 61.2904 204.213 61.2096 204.389 61.0579C204.474 60.9851 204.542 60.8939 204.588 60.7912C204.633 60.6885 204.655 60.5768 204.651 60.4645C204.654 60.3504 204.632 60.237 204.587 60.1322C204.541 60.0274 204.474 59.9337 204.389 59.8575C204.047 59.6241 203.665 59.4571 203.262 59.3654C202.696 59.223 202.162 58.9764 201.687 58.6381C201.464 58.4524 201.287 58.2174 201.17 57.9517C201.054 57.686 201 57.3968 201.015 57.107C201.001 56.7471 201.073 56.3892 201.224 56.0624C201.375 55.7355 201.601 55.449 201.884 55.2259C202.462 54.7854 203.175 54.5592 203.902 54.5861C204.361 54.5802 204.817 54.66 205.247 54.8212C205.797 55.0363 206.072 55.3498 206.072 55.7618C206.072 56.2757 205.801 56.5327 205.258 56.5327C205.017 56.5181 204.779 56.4722 204.55 56.396C204.319 56.3196 204.079 56.2736 203.836 56.2593C203.624 56.2516 203.415 56.3067 203.234 56.4178C203.144 56.4716 203.07 56.5488 203.02 56.6411C202.97 56.7334 202.946 56.8375 202.951 56.9424C202.951 57.263 203.304 57.5362 204.011 57.7619C204.646 57.9353 205.247 58.2142 205.789 58.5871C206.047 58.789 206.254 59.0492 206.393 59.3465C206.532 59.6437 206.598 59.9695 206.587 60.2974Z" fill="#E20613"/>
<path d="M207.516 59.344V55.9863C207.516 55.126 207.819 54.6959 208.424 54.6959C209.029 54.6959 209.332 55.126 209.332 55.9863V59.1415C209.332 60.5561 209.866 61.2634 210.934 61.2634C212.002 61.2634 212.536 60.5561 212.536 59.1415V55.9863C212.536 55.126 212.837 54.6959 213.438 54.6959C214.043 54.6959 214.346 55.126 214.346 55.9863V59.344C214.402 60.3001 214.098 61.2426 213.493 61.9852C212.798 62.6343 211.883 62.9958 210.932 62.9968C209.981 62.9978 209.065 62.6382 208.369 61.9906C207.765 61.2456 207.461 60.3017 207.516 59.344ZM210.633 54.2693C210.55 54.2808 210.466 54.2729 210.386 54.2461C210.307 54.2193 210.235 54.1744 210.176 54.115C210.117 54.0556 210.073 53.9832 210.047 53.9037C210.021 53.8242 210.014 53.7397 210.026 53.6569C210.036 53.4767 210.103 53.3043 210.217 53.1646L211.032 52.0437C211.101 51.9352 211.195 51.8453 211.307 51.7823C211.418 51.7193 211.544 51.6851 211.672 51.6827C211.857 51.6794 212.035 51.7481 212.17 51.8742C212.237 51.9347 212.291 52.009 212.326 52.092C212.362 52.1751 212.38 52.2649 212.377 52.3553C212.364 52.594 212.26 52.8187 212.088 52.9841L211.235 53.9247C211.164 54.0209 211.074 54.1012 210.97 54.1606C210.867 54.2199 210.752 54.257 210.633 54.2693ZM214.778 55.3575H214.62C214.411 55.3642 214.206 55.2986 214.04 55.1716C213.956 55.1115 213.888 55.0317 213.842 54.9391C213.796 54.8466 213.774 54.7443 213.777 54.6411C213.774 54.531 213.794 54.4214 213.836 54.3196C213.878 54.2178 213.941 54.126 214.021 54.0505C214.182 53.8977 214.398 53.8151 214.62 53.8208C214.76 53.8145 214.899 53.8394 215.028 53.8937C215.157 53.948 215.273 54.0304 215.366 54.1348C215.554 54.3538 215.652 54.6352 215.642 54.9234C215.639 55.1479 215.591 55.3695 215.502 55.5755C215.413 55.7816 215.284 55.9681 215.123 56.1243C214.977 56.296 214.796 56.4349 214.592 56.5318C214.389 56.6286 214.167 56.6813 213.942 56.6862C213.609 56.6862 213.444 56.5836 213.444 56.3784C213.444 56.2561 213.544 56.1642 213.744 56.1028C214.112 55.9877 214.311 55.9229 214.341 55.9085C214.451 55.8561 214.548 55.7793 214.623 55.6837C214.699 55.5882 214.752 55.4766 214.778 55.3575Z" fill="#E20613"/>
<path d="M219.629 62.9968C219.089 63.0213 218.55 62.9257 218.052 62.7167C217.553 62.5077 217.108 62.1906 216.747 61.7883C216.045 60.9494 215.682 59.8787 215.729 58.7862C215.692 57.6951 216.069 56.6304 216.785 55.806C217.142 55.4021 217.584 55.0822 218.08 54.8695C218.575 54.6567 219.112 54.5564 219.65 54.5756C220.241 54.5551 220.827 54.6879 221.351 54.961C221.807 55.2181 222.035 55.5143 222.035 55.8496C222.036 56.0618 221.956 56.2664 221.81 56.4211C221.743 56.5002 221.659 56.5634 221.565 56.6064C221.47 56.6494 221.367 56.6711 221.264 56.6699C221.01 56.646 220.759 56.5938 220.517 56.5141C220.24 56.4254 219.952 56.373 219.661 56.3583C219.365 56.3458 219.07 56.4109 218.806 56.5471C218.543 56.6832 218.319 56.8858 218.157 57.1348C217.838 57.6407 217.679 58.2319 217.704 58.8299C217.678 59.4269 217.846 60.0162 218.185 60.5087C218.36 60.7472 218.591 60.9385 218.859 61.0654C219.126 61.1924 219.42 61.251 219.716 61.2361C220.05 61.2239 220.379 61.1545 220.689 61.0309C220.92 60.9323 221.163 60.8634 221.411 60.8259C221.509 60.8263 221.606 60.8486 221.695 60.8912C221.783 60.9338 221.861 60.9955 221.923 61.072C222.061 61.2208 222.138 61.416 222.138 61.6188C222.138 61.9906 221.899 62.3133 221.419 62.5868C220.868 62.8772 220.251 63.0185 219.629 62.9968Z" fill="#E20613"/>
<path d="M231.56 54.7227C231.668 54.7216 231.774 54.7428 231.873 54.7852C231.972 54.8275 232.061 54.89 232.134 54.9686C232.211 55.044 232.272 55.1342 232.314 55.2337C232.355 55.3333 232.376 55.4402 232.375 55.548C232.342 55.8945 232.178 56.2153 231.916 56.4447L229.959 58.4839L232.387 61.1251C232.645 61.3578 232.808 61.6772 232.845 62.0225C232.838 62.2421 232.748 62.4509 232.593 62.6064C232.437 62.7619 232.229 62.8524 232.009 62.8595C231.739 62.8595 231.412 62.6481 231.03 62.2253L228.312 59.2231V61.5745C228.312 62.4313 228.009 62.8597 227.404 62.8595C226.799 62.8595 226.496 62.4311 226.496 61.5745V55.9857C226.496 55.1254 226.799 54.6953 227.404 54.6953C228.009 54.6953 228.312 55.1254 228.312 55.9857V57.9545L230.62 55.3459C230.988 54.9304 231.301 54.7226 231.56 54.7227Z" fill="#E20613"/>
<path d="M235.213 59.5403V61.5723C235.213 62.4306 234.911 62.8597 234.305 62.8595C233.7 62.8595 233.397 62.4311 233.397 61.5745V55.9857C233.397 55.1254 233.7 54.6953 234.305 54.6953C234.911 54.6953 235.213 55.1254 235.213 55.9857V57.8669H238.549V55.9857C238.549 55.1254 238.852 54.6953 239.457 54.6953C240.062 54.6953 240.365 55.1254 240.365 55.9857V61.5745C240.365 62.4313 240.062 62.8597 239.457 62.8595C238.852 62.8595 238.549 62.4304 238.549 61.5723V59.5403H235.213Z" fill="#E20613"/>
<path d="M241.381 58.7858C241.335 57.6941 241.7 56.6246 242.404 55.7893C242.781 55.4049 243.231 55.0995 243.727 54.8911C244.223 54.6826 244.756 54.5752 245.294 54.5752C245.833 54.5752 246.365 54.6826 246.862 54.8911C247.358 55.0995 247.807 55.4049 248.184 55.7893C248.851 56.6471 249.212 57.7024 249.212 58.7886C249.212 59.8749 248.851 60.9302 248.184 61.788C247.807 62.1708 247.357 62.4747 246.861 62.6822C246.364 62.8896 245.832 62.9965 245.294 62.9965C244.757 62.9965 244.224 62.8896 243.728 62.6822C243.232 62.4747 242.782 62.1708 242.404 61.788C241.699 60.9508 241.334 59.8794 241.381 58.7858ZM243.355 58.8078C243.333 59.3997 243.489 59.9848 243.804 60.4866C243.97 60.7262 244.192 60.9221 244.451 61.0573C244.71 61.1925 244.997 61.2631 245.289 61.2631C245.581 61.2631 245.868 61.1925 246.127 61.0573C246.386 60.9221 246.608 60.7262 246.774 60.4866C247.088 59.9846 247.244 59.3996 247.222 58.8078C247.245 58.207 247.093 57.6123 246.785 57.0961C246.62 56.8504 246.398 56.6491 246.137 56.5098C245.876 56.3706 245.585 56.2978 245.289 56.2978C244.993 56.2978 244.702 56.3706 244.441 56.5098C244.18 56.6491 243.957 56.8504 243.793 57.0961C243.484 57.6121 243.332 58.2069 243.355 58.8078ZM244.859 53.908V53.6456C244.856 53.5854 244.867 53.5254 244.892 53.4705C244.914 53.4305 245.033 53.3758 245.247 53.3066C245.326 53.2905 245.397 53.2471 245.447 53.1841C245.497 53.1211 245.523 53.0425 245.521 52.962C245.521 52.7797 245.425 52.6886 245.232 52.6886C245.06 52.7059 244.9 52.7811 244.778 52.9019C244.675 53.0081 244.544 53.0822 244.4 53.1151C244.346 53.1149 244.293 53.1014 244.245 53.0756C244.197 53.0498 244.156 53.0127 244.126 52.9674C244.066 52.8931 244.034 52.8005 244.033 52.705C244.033 52.5489 244.07 52.395 244.142 52.2567C244.215 52.1185 244.32 52.0001 244.449 51.9121C244.721 51.711 245.052 51.607 245.39 51.6169C245.576 51.6145 245.76 51.6513 245.93 51.7248C246.101 51.7983 246.254 51.9068 246.379 52.0434C246.494 52.1532 246.586 52.2845 246.65 52.43C246.714 52.5754 246.748 52.7321 246.751 52.8909C246.752 53.1202 246.672 53.3425 246.527 53.5199C246.391 53.7014 246.192 53.826 245.969 53.8699C245.965 53.9278 245.947 53.9839 245.917 54.0338C245.887 54.0836 245.846 54.1257 245.797 54.1568C245.697 54.241 245.57 54.2883 245.439 54.2908C245.303 54.2873 245.171 54.2466 245.057 54.1732C244.925 54.095 244.859 54.0066 244.859 53.908Z" fill="#E20613"/>
<path d="M253.521 54.7998C254.381 54.7998 254.811 55.0842 254.811 55.6529C254.811 56.2106 254.381 56.4894 253.521 56.4894H252.045V57.9113H253.319C254.179 57.9113 254.61 58.1911 254.61 58.7507C254.61 59.3066 254.179 59.5846 253.319 59.5847H252.045V61.0884H253.576C254.436 61.0884 254.866 61.3664 254.866 61.9224C254.866 62.482 254.436 62.7618 253.576 62.7618H251.46C251.128 62.7949 250.795 62.716 250.514 62.5375C250.404 62.4129 250.323 62.2667 250.274 62.1084C250.225 61.9502 250.209 61.7834 250.229 61.6189V56.0739C250.192 55.7204 250.29 55.3661 250.503 55.0814C250.779 54.8629 251.131 54.7618 251.481 54.7998H253.521Z" fill="#E20613"/>
<defs>
<radialGradient id="paint0_radial_1074_254" cx="0" cy="0" r="1" gradientUnits="userSpaceOnUse" gradientTransform="translate(40.7909 40.0007) scale(27.5405 26.8701)">
<stop offset="0.4" stop-color="white"/>
<stop offset="0.50962" stop-color="#F9F9F9"/>
<stop offset="0.65306" stop-color="#E9E9E9"/>
<stop offset="0.81528" stop-color="#CECECE"/>
<stop offset="0.99013" stop-color="#A8A8A8"/>
<stop offset="1" stop-color="#A6A6A6"/>
</radialGradient>
<radialGradient id="paint1_radial_1074_254" cx="0" cy="0" r="1" gradientUnits="userSpaceOnUse" gradientTransform="translate(8453.45 269.677) scale(2954.72 34.737)">
<stop offset="0.4" stop-color="white"/>
<stop offset="0.50962" stop-color="#F9F9F9"/>
<stop offset="0.65306" stop-color="#E9E9E9"/>
<stop offset="0.81528" stop-color="#CECECE"/>
<stop offset="0.99013" stop-color="#A8A8A8"/>
<stop offset="1" stop-color="#A6A6A6"/>
</radialGradient>
<radialGradient id="paint2_radial_1074_254" cx="0" cy="0" r="1" gradientUnits="userSpaceOnUse" gradientTransform="translate(2753.09 18664.1) scale(980.96 2897.9)">
<stop offset="0.4" stop-color="white"/>
<stop offset="0.50962" stop-color="#F9F9F9"/>
<stop offset="0.65306" stop-color="#E9E9E9"/>
<stop offset="0.81528" stop-color="#CECECE"/>
<stop offset="0.99013" stop-color="#A8A8A8"/>
<stop offset="1" stop-color="#A6A6A6"/>
</radialGradient>
<radialGradient id="paint3_radial_1074_254" cx="0" cy="0" r="1" gradientUnits="userSpaceOnUse" gradientTransform="translate(2736.22 12509.7) scale(690.245 1373.8)">
<stop offset="0.4" stop-color="white"/>
<stop offset="0.50962" stop-color="#F9F9F9"/>
<stop offset="0.65306" stop-color="#E9E9E9"/>
<stop offset="0.81528" stop-color="#CECECE"/>
<stop offset="0.99013" stop-color="#A8A8A8"/>
<stop offset="1" stop-color="#A6A6A6"/>
</radialGradient>
<radialGradient id="paint4_radial_1074_254" cx="0" cy="0" r="1" gradientUnits="userSpaceOnUse" gradientTransform="translate(2737.73 6194.64) scale(431.502 423.65)">
<stop offset="0.4" stop-color="white"/>
<stop offset="0.50962" stop-color="#F9F9F9"/>
<stop offset="0.65306" stop-color="#E9E9E9"/>
<stop offset="0.81528" stop-color="#CECECE"/>
<stop offset="0.99013" stop-color="#A8A8A8"/>
<stop offset="1" stop-color="#A6A6A6"/>
</radialGradient>
<radialGradient id="paint5_radial_1074_254" cx="0" cy="0" r="1" gradientUnits="userSpaceOnUse" gradientTransform="translate(5529.61 6194.26) scale(1405.4 677.94)">
<stop offset="0.4" stop-color="white"/>
<stop offset="0.50962" stop-color="#F9F9F9"/>
<stop offset="0.65306" stop-color="#E9E9E9"/>
<stop offset="0.81528" stop-color="#CECECE"/>
<stop offset="0.99013" stop-color="#A8A8A8"/>
<stop offset="1" stop-color="#A6A6A6"/>
</radialGradient>
<radialGradient id="paint6_radial_1074_254" cx="0" cy="0" r="1" gradientUnits="userSpaceOnUse" gradientTransform="translate(8128.52 6157.11) scale(2883.38 938.25)">
<stop offset="0.4" stop-color="white"/>
<stop offset="0.50962" stop-color="#F9F9F9"/>
<stop offset="0.65306" stop-color="#E9E9E9"/>
<stop offset="0.81528" stop-color="#CECECE"/>
<stop offset="0.99013" stop-color="#A8A8A8"/>
<stop offset="1" stop-color="#A6A6A6"/>
</radialGradient>
<radialGradient id="paint7_radial_1074_254" cx="0" cy="0" r="1" gradientUnits="userSpaceOnUse" gradientTransform="translate(2753.09 18656.2) scale(980.954 2897.89)">
<stop offset="0.4" stop-color="white"/>
<stop offset="0.50962" stop-color="#F9F9F9"/>
<stop offset="0.65306" stop-color="#E9E9E9"/>
<stop offset="0.81528" stop-color="#CECECE"/>
<stop offset="0.99013" stop-color="#A8A8A8"/>
<stop offset="1" stop-color="#A6A6A6"/>
</radialGradient>
<radialGradient id="paint8_radial_1074_254" cx="0" cy="0" r="1" gradientUnits="userSpaceOnUse" gradientTransform="translate(2736.22 12504.3) scale(690.243 1373.8)">
<stop offset="0.4" stop-color="white"/>
<stop offset="0.50962" stop-color="#F9F9F9"/>
<stop offset="0.65306" stop-color="#E9E9E9"/>
<stop offset="0.81528" stop-color="#CECECE"/>
<stop offset="0.99013" stop-color="#A8A8A8"/>
<stop offset="1" stop-color="#A6A6A6"/>
</radialGradient>
<radialGradient id="paint9_radial_1074_254" cx="0" cy="0" r="1" gradientUnits="userSpaceOnUse" gradientTransform="translate(2737.73 6192.15) scale(431.503 423.663)">
<stop offset="0.4" stop-color="white"/>
<stop offset="0.50962" stop-color="#F9F9F9"/>
<stop offset="0.65306" stop-color="#E9E9E9"/>
<stop offset="0.81528" stop-color="#CECECE"/>
<stop offset="0.99013" stop-color="#A8A8A8"/>
<stop offset="1" stop-color="#A6A6A6"/>
</radialGradient>
<radialGradient id="paint10_radial_1074_254" cx="0" cy="0" r="1" gradientUnits="userSpaceOnUse" gradientTransform="translate(5529.61 6191.59) scale(1405.4 677.941)">
<stop offset="0.4" stop-color="white"/>
<stop offset="0.50962" stop-color="#F9F9F9"/>
<stop offset="0.65306" stop-color="#E9E9E9"/>
<stop offset="0.81528" stop-color="#CECECE"/>
<stop offset="0.99013" stop-color="#A8A8A8"/>
<stop offset="1" stop-color="#A6A6A6"/>
</radialGradient>
<radialGradient id="paint11_radial_1074_254" cx="0" cy="0" r="1" gradientUnits="userSpaceOnUse" gradientTransform="translate(8128.52 6154.45) scale(2883.38 938.25)">
<stop offset="0.4" stop-color="white"/>
<stop offset="0.50962" stop-color="#F9F9F9"/>
<stop offset="0.65306" stop-color="#E9E9E9"/>
<stop offset="0.81528" stop-color="#CECECE"/>
<stop offset="0.99013" stop-color="#A8A8A8"/>
<stop offset="1" stop-color="#A6A6A6"/>
</radialGradient>
</defs>
</svg>
