<svg width="23" height="24" viewBox="0 0 23 24" fill="none" xmlns="http://www.w3.org/2000/svg">
<path d="M21.5589 23.4332C9.29469 23.4506 -0.0131066 14.0411 1.38538e-05 1.89699C1.38538e-05 1.10392 0.643605 0.457397 1.43751 0.457397H5.23159C5.94398 0.457397 6.54915 0.980283 6.65376 1.6842C6.90447 3.3713 7.39619 5.01375 8.11395 6.56136L8.26167 6.87987C8.46706 7.32273 8.32784 7.84892 7.93022 8.13258C6.75524 8.97079 6.3062 10.658 7.22156 11.9745C8.37024 13.6266 9.8182 15.0728 11.4716 16.2197C12.7895 17.1338 14.4782 16.6853 15.3173 15.5118C15.6014 15.1144 16.1285 14.9752 16.5721 15.1805L16.8894 15.3274C18.4388 16.0443 20.0831 16.5356 21.7721 16.786C22.4768 16.8904 23 17.4949 23 18.2066V21.9972C23 22.7903 22.3548 23.4332 21.5609 23.4332L21.5589 23.4332Z" fill="#4A6BDE"/>
</svg>
