<svg width="180" height="180" viewBox="0 0 180 180" fill="none" xmlns="http://www.w3.org/2000/svg">
<rect x="2.5" y="2.5" width="175" height="175" rx="7.5" stroke="#4A6BDE" stroke-width="5"/>
<path d="M14 17C14 15.3431 15.3431 14 17 14H47.6897C49.3465 14 50.6897 15.3431 50.6897 17V47.6897C50.6897 49.3465 49.3465 50.6897 47.6897 50.6897H17C15.3431 50.6897 14 49.3465 14 47.6897V17ZM55.931 16.6207C55.931 15.1733 57.1044 14 58.5517 14H63.4138C65.0706 14 66.4138 15.3431 66.4138 17V27.1035C66.4138 28.5508 67.5871 29.7241 69.0345 29.7241V29.7241C70.4818 29.7241 71.6552 30.8975 71.6552 32.3448V32.3448C71.6552 33.7922 70.4818 34.9655 69.0345 34.9655H63.7931C62.3457 34.9655 61.1724 36.1388 61.1724 37.5862V37.5862C61.1724 39.0336 62.3457 40.2069 63.7931 40.2069H68.6552C70.312 40.2069 71.6552 41.55 71.6552 43.2069V48.069C71.6552 49.5163 70.4818 50.6897 69.0345 50.6897V50.6897C67.5871 50.6897 66.4138 49.5163 66.4138 48.069V48.069C66.4138 46.6216 65.2405 45.4483 63.7931 45.4483V45.4483C62.3457 45.4483 61.1724 46.6216 61.1724 48.069V48.069C61.1724 49.5163 62.3457 50.6897 63.7931 50.6897V50.6897C65.2405 50.6897 66.4138 51.863 66.4138 53.3103V53.3103C66.4138 54.7577 65.2405 55.931 63.7931 55.931V55.931C62.3457 55.931 61.1724 57.1044 61.1724 58.5517V63.7931C61.1724 65.2405 62.3457 66.4138 63.7931 66.4138V66.4138C65.2405 66.4138 66.4138 67.5871 66.4138 69.0345V69.0345C66.4138 70.4818 65.2405 71.6552 63.7931 71.6552H58.5517C57.1044 71.6552 55.931 70.4818 55.931 69.0345V69.0345C55.931 67.5871 54.7577 66.4138 53.3103 66.4138V66.4138C51.863 66.4138 50.6897 65.2405 50.6897 63.7931V63.7931C50.6897 62.3457 49.5163 61.1724 48.069 61.1724V61.1724C46.6216 61.1724 45.4483 59.9991 45.4483 58.5517V58.5517C45.4483 57.1044 46.6216 55.931 48.069 55.931H52.931C54.5879 55.931 55.931 54.5879 55.931 52.931V32.3448C55.931 30.8975 57.1044 29.7241 58.5517 29.7241V29.7241C59.9991 29.7241 61.1724 28.5508 61.1724 27.1034V21.8621C61.1724 20.4147 59.9991 19.2414 58.5517 19.2414V19.2414C57.1044 19.2414 55.931 18.0681 55.931 16.6207V16.6207ZM71.6552 16.6207C71.6552 15.1733 72.8285 14 74.2759 14H90C91.4474 14 92.6207 15.1733 92.6207 16.6207V16.6207C92.6207 18.0681 93.794 19.2414 95.2414 19.2414V19.2414C96.6887 19.2414 97.8621 20.4147 97.8621 21.8621V21.8621C97.8621 23.3094 96.6887 24.4828 95.2414 24.4828V24.4828C93.794 24.4828 92.6207 25.6561 92.6207 27.1034V27.1034C92.6207 28.5508 91.4474 29.7241 90 29.7241V29.7241C88.5526 29.7241 87.3793 28.5508 87.3793 27.1034V27.1034C87.3793 25.6561 86.206 24.4828 84.7586 24.4828H79.5172C78.0699 24.4828 76.8966 23.3094 76.8966 21.8621V21.8621C76.8966 20.4147 75.7232 19.2414 74.2759 19.2414V19.2414C72.8285 19.2414 71.6552 18.0681 71.6552 16.6207V16.6207ZM97.8621 16.6207C97.8621 15.1733 99.0354 14 100.483 14V14C101.93 14 103.103 15.1733 103.103 16.6207V16.6207C103.103 18.0681 101.93 19.2414 100.483 19.2414V19.2414C99.0354 19.2414 97.8621 18.0681 97.8621 16.6207V16.6207ZM108.345 16.6207C108.345 15.1733 109.518 14 110.966 14V14C112.413 14 113.586 15.1733 113.586 16.6207V16.6207C113.586 18.0681 112.413 19.2414 110.966 19.2414V19.2414C109.518 19.2414 108.345 18.0681 108.345 16.6207V16.6207ZM129.31 17C129.31 15.3431 130.653 14 132.31 14H163C164.657 14 166 15.3431 166 17V47.6897C166 49.3465 164.657 50.6897 163 50.6897H132.31C130.653 50.6897 129.31 49.3465 129.31 47.6897V17ZM22.2414 19.2414C20.5845 19.2414 19.2414 20.5845 19.2414 22.2414V42.4483C19.2414 44.1051 20.5845 45.4483 22.2414 45.4483H42.4483C44.1051 45.4483 45.4483 44.1051 45.4483 42.4483V22.2414C45.4483 20.5845 44.1051 19.2414 42.4483 19.2414H22.2414ZM113.586 21.8621C113.586 20.4147 114.76 19.2414 116.207 19.2414H121.448C122.896 19.2414 124.069 20.4147 124.069 21.8621V21.8621C124.069 23.3094 122.896 24.4828 121.448 24.4828V24.4828C120.001 24.4828 118.828 25.6561 118.828 27.1034V27.1034C118.828 28.5508 117.654 29.7241 116.207 29.7241H105.724C104.277 29.7241 103.103 28.5508 103.103 27.1034V27.1034C103.103 25.6561 104.277 24.4828 105.724 24.4828H110.966C112.413 24.4828 113.586 23.3094 113.586 21.8621V21.8621ZM137.552 19.2414C135.895 19.2414 134.552 20.5845 134.552 22.2414V42.4483C134.552 44.1051 135.895 45.4483 137.552 45.4483H157.759C159.415 45.4483 160.759 44.1051 160.759 42.4483V22.2414C160.759 20.5845 159.415 19.2414 157.759 19.2414H137.552ZM24.4828 27.4828C24.4828 25.8259 25.8259 24.4828 27.4828 24.4828H37.2069C38.8638 24.4828 40.2069 25.8259 40.2069 27.4828V37.2069C40.2069 38.8638 38.8638 40.2069 37.2069 40.2069H27.4828C25.8259 40.2069 24.4828 38.8638 24.4828 37.2069V27.4828ZM71.6552 27.1034C71.6552 25.6561 72.8285 24.4828 74.2759 24.4828V24.4828C75.7232 24.4828 76.8966 25.6561 76.8966 27.1034V27.1034C76.8966 28.5508 75.7232 29.7241 74.2759 29.7241V29.7241C72.8285 29.7241 71.6552 28.5508 71.6552 27.1034V27.1034ZM139.793 27.4828C139.793 25.8259 141.136 24.4828 142.793 24.4828H152.517C154.174 24.4828 155.517 25.8259 155.517 27.4828V37.2069C155.517 38.8638 154.174 40.2069 152.517 40.2069H142.793C141.136 40.2069 139.793 38.8638 139.793 37.2069V27.4828ZM118.828 32.3448C118.828 30.8975 120.001 29.7241 121.448 29.7241V29.7241C122.896 29.7241 124.069 30.8975 124.069 32.3448V32.3448C124.069 33.7922 122.896 34.9655 121.448 34.9655V34.9655C120.001 34.9655 118.828 33.7922 118.828 32.3448V32.3448ZM71.6552 37.5862C71.6552 36.1388 72.8285 34.9655 74.2759 34.9655H79.5172C80.9646 34.9655 82.1379 36.1388 82.1379 37.5862V37.5862C82.1379 39.0336 80.9646 40.2069 79.5172 40.2069H74.2759C72.8285 40.2069 71.6552 39.0336 71.6552 37.5862V37.5862ZM103.103 37.5862C103.103 36.1388 104.277 34.9655 105.724 34.9655H110.966C112.413 34.9655 113.586 36.1388 113.586 37.5862V37.5862C113.586 39.0336 112.413 40.2069 110.966 40.2069H105.724C104.277 40.2069 103.103 39.0336 103.103 37.5862V37.5862ZM97.8621 42.8276C97.8621 41.3802 99.0354 40.2069 100.483 40.2069V40.2069C101.93 40.2069 103.103 41.3802 103.103 42.8276V48.069C103.103 49.5163 104.277 50.6897 105.724 50.6897V50.6897C107.172 50.6897 108.345 49.5163 108.345 48.069V48.069C108.345 46.6216 109.518 45.4483 110.966 45.4483V45.4483C112.413 45.4483 113.586 46.6216 113.586 48.069V53.3103C113.586 54.7577 112.413 55.931 110.966 55.931V55.931C109.518 55.931 108.345 57.1044 108.345 58.5517V58.5517C108.345 59.9991 107.172 61.1724 105.724 61.1724V61.1724C104.277 61.1724 103.103 59.9991 103.103 58.5517V58.5517C103.103 57.1044 101.93 55.931 100.483 55.931H95.2414C93.794 55.931 92.6207 54.7577 92.6207 53.3103V53.3103C92.6207 51.863 93.794 50.6897 95.2414 50.6897V50.6897C96.6887 50.6897 97.8621 49.5163 97.8621 48.069V42.8276ZM113.586 42.8276C113.586 41.3802 114.76 40.2069 116.207 40.2069V40.2069C117.654 40.2069 118.828 41.3802 118.828 42.8276V42.8276C118.828 44.275 117.654 45.4483 116.207 45.4483V45.4483C114.76 45.4483 113.586 44.275 113.586 42.8276V42.8276ZM76.8966 48.069C76.8966 46.6216 78.0699 45.4483 79.5172 45.4483V45.4483C80.9646 45.4483 82.1379 46.6216 82.1379 48.069V48.069C82.1379 49.5163 83.3113 50.6897 84.7586 50.6897V50.6897C86.206 50.6897 87.3793 51.863 87.3793 53.3103V58.5517C87.3793 59.9991 88.5526 61.1724 90 61.1724V61.1724C91.4474 61.1724 92.6207 62.3457 92.6207 63.7931V63.7931C92.6207 65.2405 91.4474 66.4138 90 66.4138H84.7586C83.3113 66.4138 82.1379 65.2405 82.1379 63.7931V63.7931C82.1379 62.3457 80.9646 61.1724 79.5172 61.1724V61.1724C78.0699 61.1724 76.8966 59.9991 76.8966 58.5517V48.069ZM87.3793 48.069C87.3793 46.6216 88.5526 45.4483 90 45.4483V45.4483C91.4474 45.4483 92.6207 46.6216 92.6207 48.069V48.069C92.6207 49.5163 91.4474 50.6897 90 50.6897V50.6897C88.5526 50.6897 87.3793 49.5163 87.3793 48.069V48.069ZM118.828 48.069C118.828 46.6216 120.001 45.4483 121.448 45.4483V45.4483C122.896 45.4483 124.069 46.6216 124.069 48.069V48.069C124.069 49.5163 122.896 50.6897 121.448 50.6897V50.6897C120.001 50.6897 118.828 49.5163 118.828 48.069V48.069ZM14 58.5517C14 57.1044 15.1733 55.931 16.6207 55.931V55.931C18.0681 55.931 19.2414 57.1044 19.2414 58.5517V69.0345C19.2414 70.4819 18.0681 71.6552 16.6207 71.6552V71.6552C15.1733 71.6552 14 70.4818 14 69.0345V58.5517ZM34.9655 58.5517C34.9655 57.1044 36.1388 55.931 37.5862 55.931V55.931C39.0336 55.931 40.2069 57.1044 40.2069 58.5517V58.5517C40.2069 59.9991 41.3802 61.1724 42.8276 61.1724V61.1724C44.275 61.1724 45.4483 62.3457 45.4483 63.7931V63.7931C45.4483 65.2405 46.6216 66.4138 48.069 66.4138V66.4138C49.5163 66.4138 50.6897 67.5871 50.6897 69.0345V69.0345C50.6897 70.4818 49.5163 71.6552 48.069 71.6552V71.6552C46.6216 71.6552 45.4483 72.8285 45.4483 74.2759V74.2759C45.4483 75.7232 46.6216 76.8966 48.069 76.8966H69.0345C70.4818 76.8966 71.6552 78.0699 71.6552 79.5172V79.5172C71.6552 80.9646 70.4818 82.1379 69.0345 82.1379V82.1379C67.5871 82.1379 66.4138 83.3113 66.4138 84.7586V84.7586C66.4138 86.206 65.2405 87.3793 63.7931 87.3793H58.5517C57.1044 87.3793 55.931 88.5526 55.931 90V90C55.931 91.4474 54.7577 92.6207 53.3103 92.6207H48.069C46.6216 92.6207 45.4483 91.4474 45.4483 90V90C45.4483 88.5526 46.6216 87.3793 48.069 87.3793V87.3793C49.5163 87.3793 50.6897 86.206 50.6897 84.7586V84.7586C50.6897 83.3113 49.5163 82.1379 48.069 82.1379V82.1379C46.6216 82.1379 45.4483 83.3113 45.4483 84.7586V84.7586C45.4483 86.206 44.275 87.3793 42.8276 87.3793V87.3793C41.3802 87.3793 40.2069 86.206 40.2069 84.7586V84.7586C40.2069 83.3113 39.0336 82.1379 37.5862 82.1379V82.1379C36.1388 82.1379 34.9655 80.9646 34.9655 79.5172V79.5172C34.9655 78.0699 33.7922 76.8966 32.3448 76.8966H27.4828C25.8259 76.8966 24.4828 75.5534 24.4828 73.8966V63.7931C24.4828 62.3457 25.6561 61.1724 27.1034 61.1724V61.1724C28.5508 61.1724 29.7241 62.3457 29.7241 63.7931V63.7931C29.7241 65.2405 30.8975 66.4138 32.3448 66.4138V66.4138C33.7922 66.4138 34.9655 67.5871 34.9655 69.0345V69.0345C34.9655 70.4818 36.1388 71.6552 37.5862 71.6552V71.6552C39.0336 71.6552 40.2069 70.4818 40.2069 69.0345V69.0345C40.2069 67.5871 39.0336 66.4138 37.5862 66.4138V66.4138C36.1388 66.4138 34.9655 65.2405 34.9655 63.7931V58.5517ZM66.4138 58.5517C66.4138 57.1044 67.5871 55.931 69.0345 55.931V55.931C70.4818 55.931 71.6552 57.1044 71.6552 58.5517V63.7931C71.6552 65.2405 70.4818 66.4138 69.0345 66.4138V66.4138C67.5871 66.4138 66.4138 65.2405 66.4138 63.7931V58.5517ZM113.586 58.5517C113.586 57.1044 114.76 55.931 116.207 55.931H147.655C149.103 55.931 150.276 57.1044 150.276 58.5517V58.5517C150.276 59.9991 151.449 61.1724 152.897 61.1724H158.138C159.585 61.1724 160.759 59.9991 160.759 58.5517V58.5517C160.759 57.1044 161.932 55.931 163.379 55.931V55.931C164.827 55.931 166 57.1044 166 58.5517V74.2759C166 75.7232 164.827 76.8966 163.379 76.8966V76.8966C161.932 76.8966 160.759 78.0699 160.759 79.5172V79.5172C160.759 80.9646 161.932 82.1379 163.379 82.1379V82.1379C164.827 82.1379 166 83.3113 166 84.7586V95.2414C166 96.6887 164.827 97.8621 163.379 97.8621V97.8621C161.932 97.8621 160.759 99.0354 160.759 100.483V100.483C160.759 101.93 161.932 103.103 163.379 103.103V103.103C164.827 103.103 166 104.277 166 105.724V131.931C166 133.378 164.827 134.552 163.379 134.552V134.552C161.932 134.552 160.759 133.378 160.759 131.931V121.448C160.759 120.001 159.585 118.828 158.138 118.828V118.828C156.691 118.828 155.517 117.654 155.517 116.207V116.207C155.517 114.76 156.691 113.586 158.138 113.586V113.586C159.585 113.586 160.759 112.413 160.759 110.966V110.966C160.759 109.518 159.585 108.345 158.138 108.345V108.345C156.691 108.345 155.517 107.172 155.517 105.724V95.2414C155.517 93.794 156.691 92.6207 158.138 92.6207V92.6207C159.585 92.6207 160.759 91.4474 160.759 90V90C160.759 88.5526 159.585 87.3793 158.138 87.3793V87.3793C156.691 87.3793 155.517 88.5526 155.517 90V90C155.517 91.4474 154.344 92.6207 152.897 92.6207H147.655C146.208 92.6207 145.034 91.4474 145.034 90V90C145.034 88.5526 143.861 87.3793 142.414 87.3793V87.3793C140.966 87.3793 139.793 86.206 139.793 84.7586V84.7586C139.793 83.3113 140.966 82.1379 142.414 82.1379H152.517C154.174 82.1379 155.517 80.7948 155.517 79.1379V74.2759C155.517 72.8285 156.691 71.6552 158.138 71.6552V71.6552C159.585 71.6552 160.759 70.4818 160.759 69.0345V69.0345C160.759 67.5871 159.585 66.4138 158.138 66.4138H147.655C146.208 66.4138 145.034 67.5871 145.034 69.0345V69.0345C145.034 70.4818 146.208 71.6552 147.655 71.6552V71.6552C149.103 71.6552 150.276 72.8285 150.276 74.2759V74.2759C150.276 75.7232 149.103 76.8966 147.655 76.8966H142.414C140.966 76.8966 139.793 75.7232 139.793 74.2759V74.2759C139.793 72.8285 138.62 71.6552 137.172 71.6552V71.6552C135.725 71.6552 134.552 70.4818 134.552 69.0345V69.0345C134.552 67.5871 133.378 66.4138 131.931 66.4138V66.4138C130.484 66.4138 129.31 65.2405 129.31 63.7931V63.7931C129.31 62.3457 128.137 61.1724 126.69 61.1724H116.207C114.76 61.1724 113.586 59.9991 113.586 58.5517V58.5517ZM97.8621 63.7931C97.8621 62.3457 99.0354 61.1724 100.483 61.1724V61.1724C101.93 61.1724 103.103 62.3457 103.103 63.7931V63.7931C103.103 65.2405 104.277 66.4138 105.724 66.4138V66.4138C107.172 66.4138 108.345 67.5871 108.345 69.0345V69.0345C108.345 70.4818 109.518 71.6552 110.966 71.6552H116.207C117.654 71.6552 118.828 72.8285 118.828 74.2759V74.2759C118.828 75.7232 120.001 76.8966 121.448 76.8966V76.8966C122.896 76.8966 124.069 75.7232 124.069 74.2759V74.2759C124.069 72.8285 125.242 71.6552 126.69 71.6552H131.931C133.378 71.6552 134.552 72.8285 134.552 74.2759V74.2759C134.552 75.7232 133.378 76.8966 131.931 76.8966V76.8966C130.484 76.8966 129.31 78.0699 129.31 79.5172V79.5172C129.31 80.9646 130.484 82.1379 131.931 82.1379V82.1379C133.378 82.1379 134.552 83.3113 134.552 84.7586V84.7586C134.552 86.206 133.378 87.3793 131.931 87.3793V87.3793C130.484 87.3793 129.31 88.5526 129.31 90V90C129.31 91.4474 128.137 92.6207 126.69 92.6207V92.6207C125.242 92.6207 124.069 91.4474 124.069 90V85.1379C124.069 83.4811 122.726 82.1379 121.069 82.1379H116.207C114.76 82.1379 113.586 80.9646 113.586 79.5172V79.5172C113.586 78.0699 112.413 76.8966 110.966 76.8966V76.8966C109.518 76.8966 108.345 78.0699 108.345 79.5172V79.5172C108.345 80.9646 107.172 82.1379 105.724 82.1379H84.7586C83.3113 82.1379 82.1379 83.3113 82.1379 84.7586V84.7586C82.1379 86.206 80.9646 87.3793 79.5172 87.3793V87.3793C78.0699 87.3793 76.8966 86.206 76.8966 84.7586V74.2759C76.8966 72.8285 78.0699 71.6552 79.5172 71.6552V71.6552C80.9646 71.6552 82.1379 72.8285 82.1379 74.2759V74.2759C82.1379 75.7232 83.3113 76.8966 84.7586 76.8966V76.8966C86.206 76.8966 87.3793 75.7232 87.3793 74.2759V74.2759C87.3793 72.8285 88.5526 71.6552 90 71.6552V71.6552C91.4474 71.6552 92.6207 72.8285 92.6207 74.2759V74.2759C92.6207 75.7232 93.794 76.8966 95.2414 76.8966H100.483C101.93 76.8966 103.103 75.7232 103.103 74.2759V74.2759C103.103 72.8285 101.93 71.6552 100.483 71.6552V71.6552C99.0354 71.6552 97.8621 70.4818 97.8621 69.0345V63.7931ZM108.345 63.7931C108.345 62.3457 109.518 61.1724 110.966 61.1724V61.1724C112.413 61.1724 113.586 62.3457 113.586 63.7931V63.7931C113.586 65.2405 112.413 66.4138 110.966 66.4138V66.4138C109.518 66.4138 108.345 65.2405 108.345 63.7931V63.7931ZM71.6552 69.0345C71.6552 67.5871 72.8285 66.4138 74.2759 66.4138V66.4138C75.7232 66.4138 76.8966 67.5871 76.8966 69.0345V69.0345C76.8966 70.4818 75.7232 71.6552 74.2759 71.6552V71.6552C72.8285 71.6552 71.6552 70.4818 71.6552 69.0345V69.0345ZM118.828 69.0345C118.828 67.5871 120.001 66.4138 121.448 66.4138V66.4138C122.896 66.4138 124.069 67.5871 124.069 69.0345V69.0345C124.069 70.4818 122.896 71.6552 121.448 71.6552V71.6552C120.001 71.6552 118.828 70.4818 118.828 69.0345V69.0345ZM14 79.5172C14 78.0699 15.1733 76.8966 16.6207 76.8966H21.4828C23.1396 76.8966 24.4828 78.2397 24.4828 79.8966V84.7586C24.4828 86.206 25.6561 87.3793 27.1034 87.3793V87.3793C28.5508 87.3793 29.7241 88.5526 29.7241 90V90C29.7241 91.4474 30.8975 92.6207 32.3448 92.6207V92.6207C33.7922 92.6207 34.9655 93.794 34.9655 95.2414V95.2414C34.9655 96.6887 33.7922 97.8621 32.3448 97.8621V97.8621C30.8975 97.8621 29.7241 99.0354 29.7241 100.483V105.345C29.7241 107.002 31.0673 108.345 32.7241 108.345H58.5517C59.9991 108.345 61.1724 109.518 61.1724 110.966V110.966C61.1724 112.413 62.3457 113.586 63.7931 113.586H69.0345C70.4818 113.586 71.6552 112.413 71.6552 110.966V110.966C71.6552 109.518 72.8285 108.345 74.2759 108.345H79.5172C80.9646 108.345 82.1379 109.518 82.1379 110.966V110.966C82.1379 112.413 80.9646 113.586 79.5172 113.586V113.586C78.0699 113.586 76.8966 114.76 76.8966 116.207V116.207C76.8966 117.654 75.7232 118.828 74.2759 118.828V118.828C72.8285 118.828 71.6552 120.001 71.6552 121.448V121.448C71.6552 122.896 70.4818 124.069 69.0345 124.069H63.7931C62.3457 124.069 61.1724 122.896 61.1724 121.448V121.448C61.1724 120.001 59.9991 118.828 58.5517 118.828H53.3103C51.863 118.828 50.6897 117.654 50.6897 116.207V116.207C50.6897 114.76 49.5163 113.586 48.069 113.586H37.5862C36.1388 113.586 34.9655 114.76 34.9655 116.207V116.207C34.9655 117.654 33.7922 118.828 32.3448 118.828H27.4828C25.8259 118.828 24.4828 117.484 24.4828 115.828V111.345C24.4828 109.688 23.1396 108.345 21.4828 108.345H16.6207C15.1733 108.345 14 107.172 14 105.724V105.724C14 104.277 15.1733 103.103 16.6207 103.103H21.4828C23.1396 103.103 24.4828 101.76 24.4828 100.103V95.2414C24.4828 93.794 23.3094 92.6207 21.8621 92.6207V92.6207C20.4147 92.6207 19.2414 93.794 19.2414 95.2414V95.2414C19.2414 96.6887 18.0681 97.8621 16.6207 97.8621V97.8621C15.1733 97.8621 14 96.6887 14 95.2414V90C14 88.5526 15.1733 87.3793 16.6207 87.3793V87.3793C18.0681 87.3793 19.2414 86.206 19.2414 84.7586V84.7586C19.2414 83.3113 18.0681 82.1379 16.6207 82.1379V82.1379C15.1733 82.1379 14 80.9646 14 79.5172V79.5172ZM29.7241 84.7586C29.7241 83.3113 30.8975 82.1379 32.3448 82.1379V82.1379C33.7922 82.1379 34.9655 83.3113 34.9655 84.7586V84.7586C34.9655 86.206 33.7922 87.3793 32.3448 87.3793V87.3793C30.8975 87.3793 29.7241 86.206 29.7241 84.7586V84.7586ZM34.9655 90C34.9655 88.5526 36.1388 87.3793 37.5862 87.3793V87.3793C39.0336 87.3793 40.2069 88.5526 40.2069 90V90C40.2069 91.4474 39.0336 92.6207 37.5862 92.6207V92.6207C36.1388 92.6207 34.9655 91.4474 34.9655 90V90ZM71.6552 90C71.6552 88.5526 72.8285 87.3793 74.2759 87.3793V87.3793C75.7232 87.3793 76.8966 88.5526 76.8966 90V95.2414C76.8966 96.6887 75.7232 97.8621 74.2759 97.8621V97.8621C72.8285 97.8621 71.6552 99.0354 71.6552 100.483V105.724C71.6552 107.172 70.4818 108.345 69.0345 108.345V108.345C67.5871 108.345 66.4138 107.172 66.4138 105.724V105.724C66.4138 104.277 65.2405 103.103 63.7931 103.103H58.931C57.2742 103.103 55.931 101.76 55.931 100.103V95.6207C55.931 93.9638 57.2742 92.6207 58.931 92.6207H69.0345C70.4819 92.6207 71.6552 91.4474 71.6552 90V90ZM82.1379 90.3793C82.1379 88.7225 83.4811 87.3793 85.1379 87.3793H95.2414C96.6887 87.3793 97.8621 88.5526 97.8621 90V90C97.8621 91.4474 99.0354 92.6207 100.483 92.6207V92.6207C101.93 92.6207 103.103 91.4474 103.103 90V90C103.103 88.5526 104.277 87.3793 105.724 87.3793V87.3793C107.172 87.3793 108.345 88.5526 108.345 90V100.483C108.345 101.93 107.172 103.103 105.724 103.103V103.103C104.277 103.103 103.103 101.93 103.103 100.483V100.483C103.103 99.0354 101.93 97.8621 100.483 97.8621H95.2414C93.794 97.8621 92.6207 96.6887 92.6207 95.2414V95.2414C92.6207 93.794 91.4474 92.6207 90 92.6207V92.6207C88.5526 92.6207 87.3793 93.794 87.3793 95.2414V100.483C87.3793 101.93 88.5526 103.103 90 103.103V103.103C91.4474 103.103 92.6207 104.277 92.6207 105.724V105.724C92.6207 107.172 91.4474 108.345 90 108.345H84.7586C83.3113 108.345 82.1379 107.172 82.1379 105.724V105.724C82.1379 104.277 80.9646 103.103 79.5172 103.103V103.103C78.0699 103.103 76.8966 101.93 76.8966 100.483V100.483C76.8966 99.0354 78.0699 97.8621 79.5172 97.8621V97.8621C80.9646 97.8621 82.1379 96.6887 82.1379 95.2414V90.3793ZM134.552 90C134.552 88.5526 135.725 87.3793 137.172 87.3793V87.3793C138.62 87.3793 139.793 88.5526 139.793 90V90C139.793 91.4474 138.62 92.6207 137.172 92.6207V92.6207C135.725 92.6207 134.552 91.4474 134.552 90V90ZM40.2069 95.2414C40.2069 93.794 41.3802 92.6207 42.8276 92.6207V92.6207C44.275 92.6207 45.4483 93.794 45.4483 95.2414V95.2414C45.4483 96.6887 44.275 97.8621 42.8276 97.8621V97.8621C41.3802 97.8621 40.2069 96.6887 40.2069 95.2414V95.2414ZM129.31 95.2414C129.31 93.794 130.484 92.6207 131.931 92.6207V92.6207C133.378 92.6207 134.552 93.794 134.552 95.2414V95.2414C134.552 96.6887 133.378 97.8621 131.931 97.8621V97.8621C130.484 97.8621 129.31 96.6887 129.31 95.2414V95.2414ZM34.9655 100.483C34.9655 99.0354 36.1388 97.8621 37.5862 97.8621V97.8621C39.0336 97.8621 40.2069 99.0354 40.2069 100.483V100.483C40.2069 101.93 39.0336 103.103 37.5862 103.103V103.103C36.1388 103.103 34.9655 101.93 34.9655 100.483V100.483ZM45.4483 100.483C45.4483 99.0354 46.6216 97.8621 48.069 97.8621V97.8621C49.5163 97.8621 50.6897 99.0354 50.6897 100.483V100.483C50.6897 101.93 49.5163 103.103 48.069 103.103V103.103C46.6216 103.103 45.4483 101.93 45.4483 100.483V100.483ZM113.586 100.483C113.586 99.0354 114.76 97.8621 116.207 97.8621V97.8621C117.654 97.8621 118.828 99.0354 118.828 100.483V100.483C118.828 101.93 117.654 103.103 116.207 103.103V103.103C114.76 103.103 113.586 101.93 113.586 100.483V100.483ZM134.552 100.483C134.552 99.0354 135.725 97.8621 137.172 97.8621V97.8621C138.62 97.8621 139.793 99.0354 139.793 100.483V100.483C139.793 101.93 140.966 103.103 142.414 103.103H147.655C149.103 103.103 150.276 104.277 150.276 105.724V105.724C150.276 107.172 149.103 108.345 147.655 108.345H131.931C130.484 108.345 129.31 107.172 129.31 105.724V105.724C129.31 104.277 130.484 103.103 131.931 103.103V103.103C133.378 103.103 134.552 101.93 134.552 100.483V100.483ZM97.8621 105.724C97.8621 104.277 99.0354 103.103 100.483 103.103V103.103C101.93 103.103 103.103 104.277 103.103 105.724V105.724C103.103 107.172 104.277 108.345 105.724 108.345V108.345C107.172 108.345 108.345 109.518 108.345 110.966V116.207C108.345 117.654 107.172 118.828 105.724 118.828V118.828C104.277 118.828 103.103 117.654 103.103 116.207V116.207C103.103 114.76 101.93 113.586 100.483 113.586V113.586C99.0354 113.586 97.8621 112.413 97.8621 110.966V105.724ZM118.828 110.966C118.828 109.518 120.001 108.345 121.448 108.345V108.345C122.896 108.345 124.069 109.518 124.069 110.966V115.828C124.069 117.484 125.412 118.828 127.069 118.828H131.931C133.378 118.828 134.552 117.654 134.552 116.207V116.207C134.552 114.76 135.725 113.586 137.172 113.586H142.414C143.861 113.586 145.034 114.76 145.034 116.207V116.207C145.034 117.654 146.208 118.828 147.655 118.828V118.828C149.103 118.828 150.276 120.001 150.276 121.448V121.448C150.276 122.896 149.103 124.069 147.655 124.069V124.069C146.208 124.069 145.034 125.242 145.034 126.69V126.69C145.034 128.137 146.208 129.31 147.655 129.31H152.897C154.344 129.31 155.517 130.484 155.517 131.931V131.931C155.517 133.378 154.344 134.552 152.897 134.552H147.655C146.208 134.552 145.034 135.725 145.034 137.172V137.172C145.034 138.62 146.208 139.793 147.655 139.793V139.793C149.103 139.793 150.276 140.966 150.276 142.414V142.414C150.276 143.861 149.103 145.034 147.655 145.034H132.31C130.653 145.034 129.31 146.378 129.31 148.034V152.897C129.31 154.344 128.137 155.517 126.69 155.517V155.517C125.242 155.517 124.069 154.344 124.069 152.897V152.897C124.069 151.449 122.896 150.276 121.448 150.276V150.276C120.001 150.276 118.828 149.103 118.828 147.655V147.655C118.828 146.208 117.654 145.034 116.207 145.034V145.034C114.76 145.034 113.586 143.861 113.586 142.414V137.172C113.586 135.725 112.413 134.552 110.966 134.552V134.552C109.518 134.552 108.345 133.378 108.345 131.931V131.931C108.345 130.484 107.172 129.31 105.724 129.31V129.31C104.277 129.31 103.103 128.137 103.103 126.69V126.69C103.103 125.242 104.277 124.069 105.724 124.069V124.069C107.172 124.069 108.345 122.896 108.345 121.448V121.448C108.345 120.001 109.518 118.828 110.966 118.828H115.828C117.484 118.828 118.828 117.484 118.828 115.828V110.966ZM150.276 110.966C150.276 109.518 151.449 108.345 152.897 108.345V108.345C154.344 108.345 155.517 109.518 155.517 110.966V110.966C155.517 112.413 154.344 113.586 152.897 113.586V113.586C151.449 113.586 150.276 112.413 150.276 110.966V110.966ZM87.3793 116.207C87.3793 114.76 88.5526 113.586 90 113.586V113.586C91.4474 113.586 92.6207 114.76 92.6207 116.207V116.207C92.6207 117.654 93.794 118.828 95.2414 118.828H100.483C101.93 118.828 103.103 120.001 103.103 121.448V121.448C103.103 122.896 101.93 124.069 100.483 124.069H84.7586C83.3113 124.069 82.1379 125.242 82.1379 126.69V126.69C82.1379 128.137 80.9646 129.31 79.5172 129.31V129.31C78.0699 129.31 76.8966 128.137 76.8966 126.69V121.828C76.8966 120.171 78.2397 118.828 79.8966 118.828H84.7586C86.206 118.828 87.3793 117.654 87.3793 116.207V116.207ZM14 121.448C14 120.001 15.1733 118.828 16.6207 118.828H21.8621C23.3094 118.828 24.4828 120.001 24.4828 121.448V121.448C24.4828 122.896 23.3094 124.069 21.8621 124.069H16.6207C15.1733 124.069 14 122.896 14 121.448V121.448ZM45.4483 121.448C45.4483 120.001 46.6216 118.828 48.069 118.828V118.828C49.5163 118.828 50.6897 120.001 50.6897 121.448V121.448C50.6897 122.896 49.5163 124.069 48.069 124.069V124.069C46.6216 124.069 45.4483 122.896 45.4483 121.448V121.448ZM55.931 126.69C55.931 125.242 57.1044 124.069 58.5517 124.069V124.069C59.9991 124.069 61.1724 125.242 61.1724 126.69V126.69C61.1724 128.137 62.3457 129.31 63.7931 129.31V129.31C65.2405 129.31 66.4138 130.484 66.4138 131.931V137.172C66.4138 138.62 67.5871 139.793 69.0345 139.793V139.793C70.4818 139.793 71.6552 140.966 71.6552 142.414V142.414C71.6552 143.861 72.8285 145.034 74.2759 145.034V145.034C75.7232 145.034 76.8966 143.861 76.8966 142.414V142.414C76.8966 140.966 78.0699 139.793 79.5172 139.793V139.793C80.9646 139.793 82.1379 138.62 82.1379 137.172V132.31C82.1379 130.653 83.4811 129.31 85.1379 129.31H95.2414C96.6887 129.31 97.8621 130.484 97.8621 131.931V131.931C97.8621 133.378 99.0354 134.552 100.483 134.552V134.552C101.93 134.552 103.103 135.725 103.103 137.172V137.172C103.103 138.62 101.93 139.793 100.483 139.793H95.2414C93.794 139.793 92.6207 138.62 92.6207 137.172V137.172C92.6207 135.725 91.4474 134.552 90 134.552V134.552C88.5526 134.552 87.3793 135.725 87.3793 137.172V142.414C87.3793 143.861 88.5526 145.034 90 145.034V145.034C91.4474 145.034 92.6207 146.208 92.6207 147.655V158.138C92.6207 159.585 91.4474 160.759 90 160.759V160.759C88.5526 160.759 87.3793 159.585 87.3793 158.138V158.138C87.3793 156.691 86.206 155.517 84.7586 155.517V155.517C83.3113 155.517 82.1379 154.344 82.1379 152.897V152.897C82.1379 151.449 80.9646 150.276 79.5172 150.276V150.276C78.0699 150.276 76.8966 151.449 76.8966 152.897V158.138C76.8966 159.585 75.7232 160.759 74.2759 160.759V160.759C72.8285 160.759 71.6552 161.932 71.6552 163.379V163.379C71.6552 164.827 70.4818 166 69.0345 166H58.5517C57.1044 166 55.931 164.827 55.931 163.379V163.379C55.931 161.932 57.1044 160.759 58.5517 160.759H63.7931C65.2405 160.759 66.4138 159.585 66.4138 158.138V158.138C66.4138 156.691 65.2405 155.517 63.7931 155.517V155.517C62.3457 155.517 61.1724 154.344 61.1724 152.897V152.897C61.1724 151.449 62.3457 150.276 63.7931 150.276V150.276C65.2405 150.276 66.4138 149.103 66.4138 147.655V147.655C66.4138 146.208 65.2405 145.034 63.7931 145.034H58.5517C57.1044 145.034 55.931 143.861 55.931 142.414V142.414C55.931 140.966 57.1044 139.793 58.5517 139.793V139.793C59.9991 139.793 61.1724 138.62 61.1724 137.172V137.172C61.1724 135.725 59.9991 134.552 58.5517 134.552V134.552C57.1044 134.552 55.931 133.378 55.931 131.931V126.69ZM127.069 124.069C125.412 124.069 124.069 125.412 124.069 127.069V136.793C124.069 138.45 125.412 139.793 127.069 139.793H136.793C138.45 139.793 139.793 138.45 139.793 136.793V127.069C139.793 125.412 138.45 124.069 136.793 124.069H127.069ZM14 132.31C14 130.653 15.3431 129.31 17 129.31H47.6897C49.3465 129.31 50.6897 130.653 50.6897 132.31V163C50.6897 164.657 49.3465 166 47.6897 166H17C15.3431 166 14 164.657 14 163V132.31ZM71.6552 131.931C71.6552 130.484 72.8285 129.31 74.2759 129.31V129.31C75.7232 129.31 76.8966 130.484 76.8966 131.931V137.172C76.8966 138.62 75.7232 139.793 74.2759 139.793V139.793C72.8285 139.793 71.6552 138.62 71.6552 137.172V131.931ZM129.31 131.931C129.31 130.484 130.484 129.31 131.931 129.31V129.31C133.378 129.31 134.552 130.484 134.552 131.931V131.931C134.552 133.378 133.378 134.552 131.931 134.552V134.552C130.484 134.552 129.31 133.378 129.31 131.931V131.931ZM22.2414 134.552C20.5845 134.552 19.2414 135.895 19.2414 137.552V157.759C19.2414 159.415 20.5845 160.759 22.2414 160.759H42.4483C44.1051 160.759 45.4483 159.415 45.4483 157.759V137.552C45.4483 135.895 44.1051 134.552 42.4483 134.552H22.2414ZM24.4828 142.793C24.4828 141.136 25.8259 139.793 27.4828 139.793H37.2069C38.8638 139.793 40.2069 141.136 40.2069 142.793V152.517C40.2069 154.174 38.8638 155.517 37.2069 155.517H27.4828C25.8259 155.517 24.4828 154.174 24.4828 152.517V142.793ZM160.759 142.414C160.759 140.966 161.932 139.793 163.379 139.793V139.793C164.827 139.793 166 140.966 166 142.414V142.414C166 143.861 164.827 145.034 163.379 145.034V145.034C161.932 145.034 160.759 143.861 160.759 142.414V142.414ZM97.8621 147.655C97.8621 146.208 99.0354 145.034 100.483 145.034V145.034C101.93 145.034 103.103 146.208 103.103 147.655V147.655C103.103 149.103 104.277 150.276 105.724 150.276V150.276C107.172 150.276 108.345 151.449 108.345 152.897V152.897C108.345 154.344 109.518 155.517 110.966 155.517V155.517C112.413 155.517 113.586 156.691 113.586 158.138V163.379C113.586 164.827 112.413 166 110.966 166V166C109.518 166 108.345 164.827 108.345 163.379V163.379C108.345 161.932 107.172 160.759 105.724 160.759V160.759C104.277 160.759 103.103 159.585 103.103 158.138V158.138C103.103 156.691 101.93 155.517 100.483 155.517V155.517C99.0354 155.517 97.8621 154.344 97.8621 152.897V147.655ZM108.345 147.655C108.345 146.208 109.518 145.034 110.966 145.034V145.034C112.413 145.034 113.586 146.208 113.586 147.655V147.655C113.586 149.103 112.413 150.276 110.966 150.276V150.276C109.518 150.276 108.345 149.103 108.345 147.655V147.655ZM155.517 147.655C155.517 146.208 156.691 145.034 158.138 145.034V145.034C159.585 145.034 160.759 146.208 160.759 147.655V147.655C160.759 149.103 161.932 150.276 163.379 150.276V150.276C164.827 150.276 166 151.449 166 152.897V158.138C166 159.585 164.827 160.759 163.379 160.759V160.759C161.932 160.759 160.759 161.932 160.759 163.379V163.379C160.759 164.827 159.585 166 158.138 166V166C156.691 166 155.517 164.827 155.517 163.379V158.138C155.517 156.691 154.344 155.517 152.897 155.517V155.517C151.449 155.517 150.276 156.691 150.276 158.138V163C150.276 164.657 148.933 166 147.276 166H142.414C140.966 166 139.793 164.827 139.793 163.379V163.379C139.793 161.932 138.62 160.759 137.172 160.759H131.931C130.484 160.759 129.31 159.585 129.31 158.138V158.138C129.31 156.691 130.484 155.517 131.931 155.517H142.414C143.861 155.517 145.034 154.344 145.034 152.897V152.897C145.034 151.449 146.208 150.276 147.655 150.276H152.897C154.344 150.276 155.517 149.103 155.517 147.655V147.655ZM113.586 152.897C113.586 151.449 114.76 150.276 116.207 150.276V150.276C117.654 150.276 118.828 151.449 118.828 152.897V152.897C118.828 154.344 117.654 155.517 116.207 155.517V155.517C114.76 155.517 113.586 154.344 113.586 152.897V152.897ZM118.828 158.138C118.828 156.691 120.001 155.517 121.448 155.517V155.517C122.896 155.517 124.069 156.691 124.069 158.138V163.379C124.069 164.827 122.896 166 121.448 166V166C120.001 166 118.828 164.827 118.828 163.379V158.138ZM76.8966 163.379C76.8966 161.932 78.0699 160.759 79.5172 160.759H84.7586C86.206 160.759 87.3793 161.932 87.3793 163.379V163.379C87.3793 164.827 86.206 166 84.7586 166H79.5172C78.0699 166 76.8966 164.827 76.8966 163.379V163.379ZM92.6207 163.379C92.6207 161.932 93.794 160.759 95.2414 160.759H100.483C101.93 160.759 103.103 161.932 103.103 163.379V163.379C103.103 164.827 101.93 166 100.483 166H95.2414C93.794 166 92.6207 164.827 92.6207 163.379V163.379Z" fill="#4A6BDE"/>
</svg>
