<svg width="63" height="51" viewBox="0 0 63 51" fill="none" xmlns="http://www.w3.org/2000/svg">
<path fill-rule="evenodd" clip-rule="evenodd" d="M5 0.413269H58C60.7614 0.413269 63 2.65185 63 5.41327V45.3607C63 48.1221 60.7614 50.3607 58 50.3607H5C2.23858 50.3607 0 48.1221 0 45.3607V5.41328C0 2.65185 2.23858 0.413269 5 0.413269ZM40.095 26.8C40.4254 26.6437 40.819 26.3509 40.8616 25.9878C40.9092 25.5812 40.5374 25.4144 40.1568 25.2437C40.0774 25.2081 39.9976 25.1723 39.9212 25.1341L27.7018 19.0309C27.058 18.7093 26 18.1901 26 18.9098V32.7598C26 33.3723 27.0169 32.9884 27.5706 32.7264L40.095 26.8Z" fill="#C31B1A"/>
</svg>
