<svg width="40" height="40" viewBox="0 0 40 40" fill="none" xmlns="http://www.w3.org/2000/svg">
<path fill-rule="evenodd" clip-rule="evenodd" d="M20 40C8.95431 40 0 31.0457 0 20C0 8.9543 8.95431 0 20 0C31.0457 0 40 8.9543 40 20C40 31.0457 31.0457 40 20 40ZM26.753 20.8337C27.0175 20.7084 27.3324 20.4739 27.3665 20.1832C27.4047 19.8574 27.1069 19.7236 26.8021 19.5867C26.7386 19.5582 26.6747 19.5295 26.6136 19.4989L16.8359 14.6101C16.3206 14.3524 15.4739 13.9368 15.4739 14.513V25.6079C15.4739 26.0982 16.2877 25.791 16.7308 25.5811L26.753 20.8337Z" fill="#C31B1A"/>
</svg>
